G04 ================== begin FILE IDENTIFICATION RECORD ==================*
G04 Layout Name:  L:/SENIOR DESIGN/DESIGN 4/ALLEGRO V5/allegro/senior design v5.brd*
G04 Film Name:    BOATCREWSILK_TOP*
G04 File Format:  Gerber RS274X*
G04 File Origin:  Cadence Allegro 22.1-P001*
G04 Origin Date:  Fri May  9 15:46:27 2025*
G04 *
G04 Layer:  PACKAGE GEOMETRY/SILKSCREEN_TOP*
G04 Layer:  MANUFACTURING/AUTOSILK_TOP*
G04 *
G04 Offset:    (0.00 0.00)*
G04 Mirror:    No*
G04 Mode:      Positive*
G04 Rotation:  0*
G04 FullContactRelief:  No*
G04 UndefLineWidth:     5.00*
G04 ================== end FILE IDENTIFICATION RECORD ====================*
%FSLAX25Y25*MOIN*%
%IR0*IPPOS*OFA0.00000B0.00000*MIA0B0*SFA1.00000B1.00000*%
%ADD10C,.005*%
%ADD11C,.006*%
%ADD12C,.00787*%
G75*
%LPD*%
G75*
G36*
G01X-20588Y84597D02*
Y83097D01*
X-19588D01*
Y84597D01*
X-20588D01*
G37*
G36*
G01X-3208Y60812D02*
Y59812D01*
X-1708D01*
Y60812D01*
X-3208D01*
G37*
G36*
G01X-1240Y112788D02*
Y113788D01*
X260D01*
Y112788D01*
X-1240D01*
G37*
G36*
G01X16477Y60812D02*
Y59812D01*
X17977D01*
Y60812D01*
X16477D01*
G37*
G36*
G01X18445Y112788D02*
Y113788D01*
X19945D01*
Y112788D01*
X18445D01*
G37*
G36*
G01X33388Y86566D02*
Y85066D01*
X32388D01*
Y86566D01*
X33388D01*
G37*
G54D10*
G01X-150220Y11080D02*
X-140180D01*
Y21120D01*
X-150220D01*
Y11080D01*
G01X-148987Y28433D02*
X-148880Y28558D01*
X-148800Y28767D01*
X-148747Y29058D01*
X-148800Y29308D01*
X-148907Y29475D01*
X-149093Y29600D01*
X-149813D01*
Y27100D01*
X-148933D01*
X-148747Y27267D01*
X-148640Y27517D01*
X-148587Y27808D01*
X-148640Y28100D01*
X-148800Y28350D01*
X-148987Y28433D01*
X-149813D01*
G01X-146520Y27100D02*
Y28767D01*
G01Y28475D02*
X-146627Y28642D01*
X-146787Y28725D01*
X-146973Y28767D01*
X-147160Y28683D01*
X-147320Y28517D01*
X-147427Y28267D01*
X-147480Y27933D01*
X-147427Y27600D01*
X-147320Y27350D01*
X-147160Y27183D01*
X-146973Y27100D01*
X-146787Y27142D01*
X-146627Y27267D01*
X-146520Y27433D01*
G01X-144800Y29600D02*
Y27100D01*
G01X-145173Y28767D02*
X-144427D01*
G01X-142600Y29600D02*
Y27100D01*
G01X-142973Y28767D02*
X-142227D01*
G01X-140693Y27933D02*
X-140053D01*
G01X-140400Y28475D02*
Y27392D01*
G01X-150220Y29880D02*
X-140180D01*
Y39920D01*
X-150220D01*
Y29880D01*
G01X-137833Y53900D02*
Y56400D01*
X-137167D01*
X-136953Y56275D01*
X-136820Y56108D01*
X-136767Y55775D01*
X-136820Y55442D01*
X-136980Y55233D01*
X-137167Y55108D01*
X-137833D01*
G01X-137167D02*
X-136767Y53900D01*
G01X-135607Y54942D02*
X-135420Y55233D01*
X-135260Y55400D01*
X-135047Y55483D01*
X-134860Y55400D01*
X-134727Y55233D01*
X-134620Y54983D01*
X-134593Y54692D01*
X-134620Y54442D01*
X-134727Y54192D01*
X-134887Y53983D01*
X-135073Y53900D01*
X-135287Y53983D01*
X-135473Y54233D01*
X-135580Y54608D01*
X-135607Y55025D01*
X-135553Y55567D01*
X-135473Y55858D01*
X-135340Y56150D01*
X-135153Y56358D01*
X-134967Y56400D01*
X-134780Y56317D01*
X-134647Y56108D01*
G01X-134600Y90300D02*
Y87800D01*
G01X-135213Y90300D02*
X-133987D01*
G01X-132933Y87800D02*
Y90300D01*
X-132293D01*
X-132080Y90175D01*
X-131920Y89883D01*
X-131867Y89550D01*
X-131920Y89217D01*
X-132053Y88967D01*
X-132293Y88842D01*
X-132933D01*
G01X-129880Y87800D02*
Y90300D01*
X-130867Y88508D01*
X-129533D01*
G01X-137600Y94600D02*
X-127600D01*
Y104600D01*
X-137600D01*
Y94600D01*
G01X-138440Y126950D02*
X-137907D01*
Y126200D01*
X-138067Y125950D01*
X-138253Y125783D01*
X-138520Y125700D01*
X-138787Y125783D01*
X-138973Y125950D01*
X-139133Y126200D01*
X-139240Y126492D01*
X-139293Y126825D01*
Y127117D01*
X-139240Y127367D01*
X-139133Y127658D01*
X-138973Y127908D01*
X-138813Y128075D01*
X-138600Y128200D01*
X-138413D01*
X-138200Y128117D01*
X-138040Y127950D01*
G01X-135920Y125700D02*
Y127367D01*
G01Y127075D02*
X-136027Y127242D01*
X-136187Y127325D01*
X-136373Y127367D01*
X-136560Y127283D01*
X-136720Y127117D01*
X-136827Y126867D01*
X-136880Y126533D01*
X-136827Y126200D01*
X-136720Y125950D01*
X-136560Y125783D01*
X-136373Y125700D01*
X-136187Y125742D01*
X-136027Y125867D01*
X-135920Y126033D01*
G01X-134573Y125700D02*
Y127367D01*
G01Y127033D02*
X-134440Y127200D01*
X-134307Y127325D01*
X-134120Y127367D01*
X-133987Y127325D01*
X-133827Y127200D01*
G01X-132373Y125700D02*
Y127367D01*
G01Y127033D02*
X-132240Y127200D01*
X-132107Y127325D01*
X-131920Y127367D01*
X-131787Y127325D01*
X-131627Y127200D01*
G01X-130200Y126825D02*
X-129347D01*
X-129427Y127117D01*
X-129560Y127283D01*
X-129747Y127367D01*
X-129933Y127325D01*
X-130093Y127200D01*
X-130200Y126908D01*
X-130253Y126658D01*
Y126408D01*
X-130200Y126158D01*
X-130067Y125908D01*
X-129907Y125742D01*
X-129720Y125700D01*
X-129533Y125783D01*
X-129347Y126033D01*
G01X-127600Y128200D02*
Y125700D01*
G01X-127973Y127367D02*
X-127227D01*
G01X-125400Y128200D02*
Y125700D01*
G01X-125773Y127367D02*
X-125027D01*
G01X-121560Y126033D02*
X-121347Y125825D01*
X-121107Y125700D01*
X-120893D01*
X-120680Y125825D01*
X-120520Y126033D01*
X-120440Y126325D01*
X-120493Y126617D01*
X-120627Y126867D01*
X-120867Y127033D01*
X-121187Y127117D01*
X-121373Y127283D01*
X-121453Y127575D01*
X-121400Y127867D01*
X-121267Y128075D01*
X-121080Y128200D01*
X-120893D01*
X-120707Y128117D01*
X-120547Y127908D01*
G01X-119253Y125700D02*
Y128200D01*
G01Y126992D02*
X-119120Y127200D01*
X-118987Y127325D01*
X-118773Y127367D01*
X-118613Y127325D01*
X-118427Y127158D01*
X-118347Y126908D01*
Y125700D01*
G01X-117000Y126825D02*
X-116147D01*
X-116227Y127117D01*
X-116360Y127283D01*
X-116547Y127367D01*
X-116733Y127325D01*
X-116893Y127200D01*
X-117000Y126908D01*
X-117053Y126658D01*
Y126408D01*
X-117000Y126158D01*
X-116867Y125908D01*
X-116707Y125742D01*
X-116520Y125700D01*
X-116333Y125783D01*
X-116147Y126033D01*
G01X-114880Y124867D02*
Y127367D01*
G01Y126992D02*
X-114747Y127200D01*
X-114613Y127325D01*
X-114400Y127367D01*
X-114213Y127325D01*
X-114027Y127117D01*
X-113947Y126825D01*
X-113920Y126533D01*
X-113947Y126242D01*
X-114027Y125950D01*
X-114187Y125783D01*
X-114400Y125700D01*
X-114587Y125742D01*
X-114773Y125867D01*
X-114880Y126033D01*
G01X-112680Y124867D02*
Y127367D01*
G01Y126992D02*
X-112547Y127200D01*
X-112413Y127325D01*
X-112200Y127367D01*
X-112013Y127325D01*
X-111827Y127117D01*
X-111747Y126825D01*
X-111720Y126533D01*
X-111747Y126242D01*
X-111827Y125950D01*
X-111987Y125783D01*
X-112200Y125700D01*
X-112387Y125742D01*
X-112573Y125867D01*
X-112680Y126033D01*
G01X-109520Y125700D02*
Y127367D01*
G01Y127075D02*
X-109627Y127242D01*
X-109787Y127325D01*
X-109973Y127367D01*
X-110160Y127283D01*
X-110320Y127117D01*
X-110427Y126867D01*
X-110480Y126533D01*
X-110427Y126200D01*
X-110320Y125950D01*
X-110160Y125783D01*
X-109973Y125700D01*
X-109787Y125742D01*
X-109627Y125867D01*
X-109520Y126033D01*
G01X-108173Y125700D02*
Y127367D01*
G01Y127033D02*
X-108040Y127200D01*
X-107907Y127325D01*
X-107720Y127367D01*
X-107587Y127325D01*
X-107427Y127200D01*
G01X-105120Y128200D02*
Y125700D01*
G01Y126075D02*
X-105227Y125867D01*
X-105387Y125742D01*
X-105573Y125700D01*
X-105787Y125783D01*
X-105947Y125992D01*
X-106053Y126242D01*
X-106080Y126533D01*
X-106053Y126825D01*
X-105947Y127075D01*
X-105787Y127283D01*
X-105573Y127367D01*
X-105387Y127325D01*
X-105253Y127242D01*
X-105120Y127075D01*
G01X-139133Y123100D02*
X-139000Y122850D01*
X-138840Y122683D01*
X-138653Y122600D01*
X-138440Y122683D01*
X-138280Y122850D01*
X-138120Y123100D01*
X-138067Y123433D01*
Y125100D01*
G01X-135920Y122600D02*
Y124267D01*
G01Y123975D02*
X-136027Y124142D01*
X-136187Y124225D01*
X-136373Y124267D01*
X-136560Y124183D01*
X-136720Y124017D01*
X-136827Y123767D01*
X-136880Y123433D01*
X-136827Y123100D01*
X-136720Y122850D01*
X-136560Y122683D01*
X-136373Y122600D01*
X-136187Y122642D01*
X-136027Y122767D01*
X-135920Y122933D01*
G01X-134760Y121850D02*
X-134600Y121767D01*
X-134387Y121850D01*
X-134253Y122017D01*
X-134147Y122225D01*
X-133987Y122892D01*
X-133640Y124267D01*
G01X-134493D02*
X-133987Y122892D01*
G01X-130387Y122600D02*
Y125100D01*
G01X-129373D02*
X-130387Y123558D01*
G01X-129213Y122600D02*
X-129933Y124267D01*
G01X-127973Y122600D02*
Y124267D01*
G01Y123933D02*
X-127840Y124100D01*
X-127707Y124225D01*
X-127520Y124267D01*
X-127387Y124225D01*
X-127227Y124100D01*
G01X-125400Y124267D02*
Y122600D01*
G01Y124933D02*
X-125453Y124975D01*
Y125058D01*
X-125400Y125100D01*
X-125347Y125058D01*
Y124975D01*
X-125400Y124933D01*
G01X-123600Y122892D02*
X-123467Y122725D01*
X-123280Y122600D01*
X-123120D01*
X-122960Y122683D01*
X-122853Y122808D01*
X-122800Y122975D01*
X-122827Y123225D01*
X-122933Y123350D01*
X-123413Y123600D01*
X-123520Y123892D01*
X-123467Y124100D01*
X-123360Y124225D01*
X-123200Y124267D01*
X-123040Y124225D01*
X-122880Y124100D01*
G01X-121400Y123725D02*
X-120547D01*
X-120627Y124017D01*
X-120760Y124183D01*
X-120947Y124267D01*
X-121133Y124225D01*
X-121293Y124100D01*
X-121400Y123808D01*
X-121453Y123558D01*
Y123308D01*
X-121400Y123058D01*
X-121267Y122808D01*
X-121107Y122642D01*
X-120920Y122600D01*
X-120733Y122683D01*
X-120547Y122933D01*
G01X-118800Y122600D02*
Y125100D01*
G01X-116600Y122600D02*
Y125100D01*
G01X-139133Y120000D02*
X-139000Y119750D01*
X-138840Y119583D01*
X-138653Y119500D01*
X-138440Y119583D01*
X-138280Y119750D01*
X-138120Y120000D01*
X-138067Y120333D01*
Y122000D01*
G01X-135920Y119500D02*
Y121167D01*
G01Y120875D02*
X-136027Y121042D01*
X-136187Y121125D01*
X-136373Y121167D01*
X-136560Y121083D01*
X-136720Y120917D01*
X-136827Y120667D01*
X-136880Y120333D01*
X-136827Y120000D01*
X-136720Y119750D01*
X-136560Y119583D01*
X-136373Y119500D01*
X-136187Y119542D01*
X-136027Y119667D01*
X-135920Y119833D01*
G01X-134760Y118750D02*
X-134600Y118667D01*
X-134387Y118750D01*
X-134253Y118917D01*
X-134147Y119125D01*
X-133987Y119792D01*
X-133640Y121167D01*
G01X-134493D02*
X-133987Y119792D01*
G01X-130360Y119833D02*
X-130147Y119625D01*
X-129907Y119500D01*
X-129693D01*
X-129480Y119625D01*
X-129320Y119833D01*
X-129240Y120125D01*
X-129293Y120417D01*
X-129427Y120667D01*
X-129667Y120833D01*
X-129987Y120917D01*
X-130173Y121083D01*
X-130253Y121375D01*
X-130200Y121667D01*
X-130067Y121875D01*
X-129880Y122000D01*
X-129693D01*
X-129507Y121917D01*
X-129347Y121708D01*
G01X-128053Y119500D02*
Y122000D01*
G01Y120792D02*
X-127920Y121000D01*
X-127787Y121125D01*
X-127573Y121167D01*
X-127413Y121125D01*
X-127227Y120958D01*
X-127147Y120708D01*
Y119500D01*
G01X-124920D02*
Y121167D01*
G01Y120875D02*
X-125027Y121042D01*
X-125187Y121125D01*
X-125373Y121167D01*
X-125560Y121083D01*
X-125720Y120917D01*
X-125827Y120667D01*
X-125880Y120333D01*
X-125827Y120000D01*
X-125720Y119750D01*
X-125560Y119583D01*
X-125373Y119500D01*
X-125187Y119542D01*
X-125027Y119667D01*
X-124920Y119833D01*
G01X-123653Y119500D02*
Y122000D01*
G01Y120792D02*
X-123520Y121000D01*
X-123387Y121125D01*
X-123173Y121167D01*
X-123013Y121125D01*
X-122827Y120958D01*
X-122747Y120708D01*
Y119500D01*
G01X-139133Y143700D02*
Y141200D01*
X-138067D01*
G01X-136400D02*
X-136560Y141242D01*
X-136720Y141408D01*
X-136827Y141700D01*
X-136880Y142033D01*
X-136827Y142367D01*
X-136720Y142658D01*
X-136560Y142825D01*
X-136400Y142867D01*
X-136240Y142825D01*
X-136080Y142658D01*
X-135973Y142367D01*
X-135947Y142033D01*
X-135973Y141700D01*
X-136080Y141408D01*
X-136240Y141242D01*
X-136400Y141200D01*
G01X-134733D02*
Y143700D01*
X-134067D01*
X-133853Y143575D01*
X-133720Y143408D01*
X-133667Y143075D01*
X-133720Y142742D01*
X-133880Y142533D01*
X-134067Y142408D01*
X-134733D01*
G01X-134067D02*
X-133667Y141200D01*
G01X-131520D02*
Y142867D01*
G01Y142575D02*
X-131627Y142742D01*
X-131787Y142825D01*
X-131973Y142867D01*
X-132160Y142783D01*
X-132320Y142617D01*
X-132427Y142367D01*
X-132480Y142033D01*
X-132427Y141700D01*
X-132320Y141450D01*
X-132160Y141283D01*
X-131973Y141200D01*
X-131787Y141242D01*
X-131627Y141367D01*
X-131520Y141533D01*
G01X-128133Y141200D02*
Y143700D01*
X-127467D01*
X-127253Y143575D01*
X-127120Y143408D01*
X-127067Y143075D01*
X-127120Y142742D01*
X-127280Y142533D01*
X-127467Y142408D01*
X-128133D01*
G01X-127467D02*
X-127067Y141200D01*
G01X-124813Y143492D02*
X-124973Y143617D01*
X-125160Y143700D01*
X-125373D01*
X-125613Y143575D01*
X-125800Y143367D01*
X-125933Y143117D01*
X-126040Y142700D01*
X-126067Y142325D01*
X-126013Y141950D01*
X-125933Y141700D01*
X-125773Y141450D01*
X-125587Y141283D01*
X-125400Y141200D01*
X-125213D01*
X-125027Y141283D01*
X-124867Y141408D01*
X-124733Y141575D01*
G01X-120787Y142533D02*
X-120680Y142658D01*
X-120600Y142867D01*
X-120547Y143158D01*
X-120600Y143408D01*
X-120707Y143575D01*
X-120893Y143700D01*
X-121613D01*
Y141200D01*
X-120733D01*
X-120547Y141367D01*
X-120440Y141617D01*
X-120387Y141908D01*
X-120440Y142200D01*
X-120600Y142450D01*
X-120787Y142533D01*
X-121613D01*
G01X-118800Y141200D02*
X-118960Y141242D01*
X-119120Y141408D01*
X-119227Y141700D01*
X-119280Y142033D01*
X-119227Y142367D01*
X-119120Y142658D01*
X-118960Y142825D01*
X-118800Y142867D01*
X-118640Y142825D01*
X-118480Y142658D01*
X-118373Y142367D01*
X-118347Y142033D01*
X-118373Y141700D01*
X-118480Y141408D01*
X-118640Y141242D01*
X-118800Y141200D01*
G01X-116120D02*
Y142867D01*
G01Y142575D02*
X-116227Y142742D01*
X-116387Y142825D01*
X-116573Y142867D01*
X-116760Y142783D01*
X-116920Y142617D01*
X-117027Y142367D01*
X-117080Y142033D01*
X-117027Y141700D01*
X-116920Y141450D01*
X-116760Y141283D01*
X-116573Y141200D01*
X-116387Y141242D01*
X-116227Y141367D01*
X-116120Y141533D01*
G01X-114400Y143700D02*
Y141200D01*
G01X-114773Y142867D02*
X-114027D01*
G01X-139160Y138433D02*
X-138947Y138225D01*
X-138707Y138100D01*
X-138493D01*
X-138280Y138225D01*
X-138120Y138433D01*
X-138040Y138725D01*
X-138093Y139017D01*
X-138227Y139267D01*
X-138467Y139433D01*
X-138787Y139517D01*
X-138973Y139683D01*
X-139053Y139975D01*
X-139000Y140267D01*
X-138867Y140475D01*
X-138680Y140600D01*
X-138493D01*
X-138307Y140517D01*
X-138147Y140308D01*
G01X-136800Y139225D02*
X-135947D01*
X-136027Y139517D01*
X-136160Y139683D01*
X-136347Y139767D01*
X-136533Y139725D01*
X-136693Y139600D01*
X-136800Y139308D01*
X-136853Y139058D01*
Y138808D01*
X-136800Y138558D01*
X-136667Y138308D01*
X-136507Y138142D01*
X-136320Y138100D01*
X-136133Y138183D01*
X-135947Y138433D01*
G01X-134653Y138100D02*
Y139767D01*
G01Y139350D02*
X-134547Y139558D01*
X-134387Y139725D01*
X-134173Y139767D01*
X-133987Y139725D01*
X-133827Y139558D01*
X-133747Y139267D01*
Y138100D01*
G01X-132000Y139767D02*
Y138100D01*
G01Y140433D02*
X-132053Y140475D01*
Y140558D01*
X-132000Y140600D01*
X-131947Y140558D01*
Y140475D01*
X-132000Y140433D01*
G01X-129800Y138100D02*
X-129960Y138142D01*
X-130120Y138308D01*
X-130227Y138600D01*
X-130280Y138933D01*
X-130227Y139267D01*
X-130120Y139558D01*
X-129960Y139725D01*
X-129800Y139767D01*
X-129640Y139725D01*
X-129480Y139558D01*
X-129373Y139267D01*
X-129347Y138933D01*
X-129373Y138600D01*
X-129480Y138308D01*
X-129640Y138142D01*
X-129800Y138100D01*
G01X-127973D02*
Y139767D01*
G01Y139433D02*
X-127840Y139600D01*
X-127707Y139725D01*
X-127520Y139767D01*
X-127387Y139725D01*
X-127227Y139600D01*
G01X-123787Y138100D02*
Y140600D01*
X-123253D01*
X-123040Y140475D01*
X-122880Y140308D01*
X-122747Y140058D01*
X-122640Y139767D01*
X-122613Y139350D01*
X-122640Y138933D01*
X-122747Y138642D01*
X-122880Y138392D01*
X-123040Y138225D01*
X-123253Y138100D01*
X-123787D01*
G01X-121400Y139225D02*
X-120547D01*
X-120627Y139517D01*
X-120760Y139683D01*
X-120947Y139767D01*
X-121133Y139725D01*
X-121293Y139600D01*
X-121400Y139308D01*
X-121453Y139058D01*
Y138808D01*
X-121400Y138558D01*
X-121267Y138308D01*
X-121107Y138142D01*
X-120920Y138100D01*
X-120733Y138183D01*
X-120547Y138433D01*
G01X-119200Y138392D02*
X-119067Y138225D01*
X-118880Y138100D01*
X-118720D01*
X-118560Y138183D01*
X-118453Y138308D01*
X-118400Y138475D01*
X-118427Y138725D01*
X-118533Y138850D01*
X-119013Y139100D01*
X-119120Y139392D01*
X-119067Y139600D01*
X-118960Y139725D01*
X-118800Y139767D01*
X-118640Y139725D01*
X-118480Y139600D01*
G01X-116600Y139767D02*
Y138100D01*
G01Y140433D02*
X-116653Y140475D01*
Y140558D01*
X-116600Y140600D01*
X-116547Y140558D01*
Y140475D01*
X-116600Y140433D01*
G01X-114773Y137475D02*
X-114587Y137308D01*
X-114373Y137267D01*
X-114187Y137308D01*
X-114027Y137517D01*
X-113920Y137808D01*
Y139767D01*
G01Y139433D02*
X-114027Y139600D01*
X-114187Y139725D01*
X-114373Y139767D01*
X-114587Y139683D01*
X-114720Y139517D01*
X-114827Y139225D01*
X-114880Y138933D01*
X-114853Y138683D01*
X-114747Y138392D01*
X-114587Y138183D01*
X-114373Y138100D01*
X-114213Y138142D01*
X-114027Y138308D01*
X-113920Y138475D01*
G01X-112653Y138100D02*
Y139767D01*
G01Y139350D02*
X-112547Y139558D01*
X-112387Y139725D01*
X-112173Y139767D01*
X-111987Y139725D01*
X-111827Y139558D01*
X-111747Y139267D01*
Y138100D01*
G01X-107800D02*
Y140600D01*
X-108120Y140100D01*
G01Y138100D02*
X-107480D01*
G01X-138067Y135000D02*
X-139133D01*
Y137500D01*
X-138067D01*
G01X-138493Y136292D02*
X-139133D01*
G01X-136933Y137500D02*
Y135000D01*
X-135867D01*
G01X-133667D02*
X-134733D01*
Y137500D01*
X-133667D01*
G01X-134093Y136292D02*
X-134733D01*
G01X-131840Y136250D02*
X-131307D01*
Y135500D01*
X-131467Y135250D01*
X-131653Y135083D01*
X-131920Y135000D01*
X-132187Y135083D01*
X-132373Y135250D01*
X-132533Y135500D01*
X-132640Y135792D01*
X-132693Y136125D01*
Y136417D01*
X-132640Y136667D01*
X-132533Y136958D01*
X-132373Y137208D01*
X-132213Y137375D01*
X-132000Y137500D01*
X-131813D01*
X-131600Y137417D01*
X-131440Y137250D01*
G01X-128160Y135333D02*
X-127947Y135125D01*
X-127707Y135000D01*
X-127493D01*
X-127280Y135125D01*
X-127120Y135333D01*
X-127040Y135625D01*
X-127093Y135917D01*
X-127227Y136167D01*
X-127467Y136333D01*
X-127787Y136417D01*
X-127973Y136583D01*
X-128053Y136875D01*
X-128000Y137167D01*
X-127867Y137375D01*
X-127680Y137500D01*
X-127493D01*
X-127307Y137417D01*
X-127147Y137208D01*
G01X-125880Y134167D02*
Y136667D01*
G01Y136292D02*
X-125747Y136500D01*
X-125613Y136625D01*
X-125400Y136667D01*
X-125213Y136625D01*
X-125027Y136417D01*
X-124947Y136125D01*
X-124920Y135833D01*
X-124947Y135542D01*
X-125027Y135250D01*
X-125187Y135083D01*
X-125400Y135000D01*
X-125587Y135042D01*
X-125773Y135167D01*
X-125880Y135333D01*
G01X-123573Y135000D02*
Y136667D01*
G01Y136333D02*
X-123440Y136500D01*
X-123307Y136625D01*
X-123120Y136667D01*
X-122987Y136625D01*
X-122827Y136500D01*
G01X-121000Y136667D02*
Y135000D01*
G01Y137333D02*
X-121053Y137375D01*
Y137458D01*
X-121000Y137500D01*
X-120947Y137458D01*
Y137375D01*
X-121000Y137333D01*
G01X-119253Y135000D02*
Y136667D01*
G01Y136250D02*
X-119147Y136458D01*
X-118987Y136625D01*
X-118773Y136667D01*
X-118587Y136625D01*
X-118427Y136458D01*
X-118347Y136167D01*
Y135000D01*
G01X-116973Y134375D02*
X-116787Y134208D01*
X-116573Y134167D01*
X-116387Y134208D01*
X-116227Y134417D01*
X-116120Y134708D01*
Y136667D01*
G01Y136333D02*
X-116227Y136500D01*
X-116387Y136625D01*
X-116573Y136667D01*
X-116787Y136583D01*
X-116920Y136417D01*
X-117027Y136125D01*
X-117080Y135833D01*
X-117053Y135583D01*
X-116947Y135292D01*
X-116787Y135083D01*
X-116573Y135000D01*
X-116413Y135042D01*
X-116227Y135208D01*
X-116120Y135375D01*
G01X-112707Y137083D02*
X-112547Y137333D01*
X-112360Y137458D01*
X-112147Y137500D01*
X-111880Y137417D01*
X-111693Y137208D01*
X-111640Y136958D01*
X-111667Y136708D01*
X-111773Y136500D01*
X-112307Y136083D01*
X-112547Y135792D01*
X-112707Y135375D01*
X-112760Y135000D01*
X-111640D01*
G01X-110000Y137500D02*
X-110213Y137417D01*
X-110373Y137208D01*
X-110480Y136958D01*
X-110560Y136625D01*
X-110587Y136250D01*
X-110560Y135875D01*
X-110480Y135542D01*
X-110373Y135292D01*
X-110213Y135083D01*
X-110000Y135000D01*
X-109787Y135083D01*
X-109627Y135292D01*
X-109520Y135542D01*
X-109440Y135875D01*
X-109413Y136250D01*
X-109440Y136625D01*
X-109520Y136958D01*
X-109627Y137208D01*
X-109787Y137417D01*
X-110000Y137500D01*
G01X-108307Y137083D02*
X-108147Y137333D01*
X-107960Y137458D01*
X-107747Y137500D01*
X-107480Y137417D01*
X-107293Y137208D01*
X-107240Y136958D01*
X-107267Y136708D01*
X-107373Y136500D01*
X-107907Y136083D01*
X-108147Y135792D01*
X-108307Y135375D01*
X-108360Y135000D01*
X-107240D01*
G01X-106187Y135375D02*
X-106027Y135167D01*
X-105840Y135042D01*
X-105600Y135000D01*
X-105360Y135083D01*
X-105173Y135250D01*
X-105040Y135542D01*
X-105013Y135875D01*
X-105067Y136208D01*
X-105200Y136417D01*
X-105387Y136583D01*
X-105573Y136625D01*
X-105760Y136583D01*
X-106000Y136417D01*
X-105920Y137500D01*
X-105200D01*
G01X-128233Y40200D02*
Y42700D01*
X-127567D01*
X-127353Y42575D01*
X-127220Y42408D01*
X-127167Y42075D01*
X-127220Y41742D01*
X-127380Y41533D01*
X-127567Y41408D01*
X-128233D01*
G01X-127567D02*
X-127167Y40200D01*
G01X-125180D02*
Y42700D01*
X-126167Y40908D01*
X-124833D01*
G01X-119013Y42092D02*
X-119173Y42217D01*
X-119360Y42300D01*
X-119573D01*
X-119813Y42175D01*
X-120000Y41967D01*
X-120133Y41717D01*
X-120240Y41300D01*
X-120267Y40925D01*
X-120213Y40550D01*
X-120133Y40300D01*
X-119973Y40050D01*
X-119787Y39883D01*
X-119600Y39800D01*
X-119413D01*
X-119227Y39883D01*
X-119067Y40008D01*
X-118933Y40175D01*
G01X-117720Y42300D02*
X-117080D01*
G01X-117400D02*
Y39800D01*
G01X-117720D02*
X-117080D01*
G01X-115813D02*
Y42300D01*
X-114587Y39800D01*
Y42300D01*
G01X-119013Y79192D02*
X-119173Y79317D01*
X-119360Y79400D01*
X-119573D01*
X-119813Y79275D01*
X-120000Y79067D01*
X-120133Y78817D01*
X-120240Y78400D01*
X-120267Y78025D01*
X-120213Y77650D01*
X-120133Y77400D01*
X-119973Y77150D01*
X-119787Y76983D01*
X-119600Y76900D01*
X-119413D01*
X-119227Y76983D01*
X-119067Y77108D01*
X-118933Y77275D01*
G01X-117907Y78983D02*
X-117747Y79233D01*
X-117560Y79358D01*
X-117347Y79400D01*
X-117080Y79317D01*
X-116893Y79108D01*
X-116840Y78858D01*
X-116867Y78608D01*
X-116973Y78400D01*
X-117507Y77983D01*
X-117747Y77692D01*
X-117907Y77275D01*
X-117960Y76900D01*
X-116840D01*
G01X-115200Y79400D02*
X-115413Y79317D01*
X-115573Y79108D01*
X-115680Y78858D01*
X-115760Y78525D01*
X-115787Y78150D01*
X-115760Y77775D01*
X-115680Y77442D01*
X-115573Y77192D01*
X-115413Y76983D01*
X-115200Y76900D01*
X-114987Y76983D01*
X-114827Y77192D01*
X-114720Y77442D01*
X-114640Y77775D01*
X-114613Y78150D01*
X-114640Y78525D01*
X-114720Y78858D01*
X-114827Y79108D01*
X-114987Y79317D01*
X-115200Y79400D01*
G01X-105487Y23900D02*
Y22108D01*
X-105380Y21733D01*
X-105167Y21483D01*
X-104900Y21400D01*
X-104633Y21483D01*
X-104420Y21733D01*
X-104313Y22108D01*
Y23900D01*
G01X-103207Y22442D02*
X-103020Y22733D01*
X-102860Y22900D01*
X-102647Y22983D01*
X-102460Y22900D01*
X-102327Y22733D01*
X-102220Y22483D01*
X-102193Y22192D01*
X-102220Y21942D01*
X-102327Y21692D01*
X-102487Y21483D01*
X-102673Y21400D01*
X-102887Y21483D01*
X-103073Y21733D01*
X-103180Y22108D01*
X-103207Y22525D01*
X-103153Y23067D01*
X-103073Y23358D01*
X-102940Y23650D01*
X-102753Y23858D01*
X-102567Y23900D01*
X-102380Y23817D01*
X-102247Y23608D01*
G01X-110833Y21900D02*
Y24400D01*
X-110167D01*
X-109953Y24275D01*
X-109820Y24108D01*
X-109767Y23775D01*
X-109820Y23442D01*
X-109980Y23233D01*
X-110167Y23108D01*
X-110833D01*
G01X-110167D02*
X-109767Y21900D01*
G01X-108607Y23983D02*
X-108447Y24233D01*
X-108260Y24358D01*
X-108047Y24400D01*
X-107780Y24317D01*
X-107593Y24108D01*
X-107540Y23858D01*
X-107567Y23608D01*
X-107673Y23400D01*
X-108207Y22983D01*
X-108447Y22692D01*
X-108607Y22275D01*
X-108660Y21900D01*
X-107540D01*
G01X-112933Y65500D02*
Y63000D01*
X-111867D01*
G01X-109880D02*
Y65500D01*
X-110867Y63708D01*
X-109533D01*
G01X-105413Y78992D02*
X-105573Y79117D01*
X-105760Y79200D01*
X-105973D01*
X-106213Y79075D01*
X-106400Y78867D01*
X-106533Y78617D01*
X-106640Y78200D01*
X-106667Y77825D01*
X-106613Y77450D01*
X-106533Y77200D01*
X-106373Y76950D01*
X-106187Y76783D01*
X-106000Y76700D01*
X-105813D01*
X-105627Y76783D01*
X-105467Y76908D01*
X-105333Y77075D01*
G01X-104307Y78783D02*
X-104147Y79033D01*
X-103960Y79158D01*
X-103747Y79200D01*
X-103480Y79117D01*
X-103293Y78908D01*
X-103240Y78658D01*
X-103267Y78408D01*
X-103373Y78200D01*
X-103907Y77783D01*
X-104147Y77492D01*
X-104307Y77075D01*
X-104360Y76700D01*
X-103240D01*
G01X-101600D02*
Y79200D01*
X-101920Y78700D01*
G01Y76700D02*
X-101280D01*
G01X-111733Y79200D02*
Y76700D01*
X-110667D01*
G01X-109587Y77200D02*
X-109427Y76908D01*
X-109213Y76742D01*
X-108973Y76700D01*
X-108760Y76742D01*
X-108547Y76950D01*
X-108413Y77200D01*
X-108387Y77450D01*
X-108440Y77742D01*
X-108627Y77950D01*
X-108813Y78033D01*
X-109053D01*
G01X-108813D02*
X-108653Y78158D01*
X-108520Y78367D01*
X-108467Y78617D01*
X-108520Y78867D01*
X-108653Y79075D01*
X-108893Y79200D01*
X-109133Y79158D01*
X-109373Y78992D01*
G01X-110300Y91300D02*
Y88800D01*
G01X-110913Y91300D02*
X-109687D01*
G01X-108633Y88800D02*
Y91300D01*
X-107993D01*
X-107780Y91175D01*
X-107620Y90883D01*
X-107567Y90550D01*
X-107620Y90217D01*
X-107753Y89967D01*
X-107993Y89842D01*
X-108633D01*
G01X-106487Y89175D02*
X-106327Y88967D01*
X-106140Y88842D01*
X-105900Y88800D01*
X-105660Y88883D01*
X-105473Y89050D01*
X-105340Y89342D01*
X-105313Y89675D01*
X-105367Y90008D01*
X-105500Y90217D01*
X-105687Y90383D01*
X-105873Y90425D01*
X-106060Y90383D01*
X-106300Y90217D01*
X-106220Y91300D01*
X-105500D01*
G01X-113400Y94600D02*
X-103400D01*
Y104600D01*
X-113400D01*
Y94600D01*
G01X-93733Y20000D02*
Y22500D01*
X-93067D01*
X-92853Y22375D01*
X-92720Y22208D01*
X-92667Y21875D01*
X-92720Y21542D01*
X-92880Y21333D01*
X-93067Y21208D01*
X-93733D01*
G01X-93067D02*
X-92667Y20000D01*
G01X-91587Y20500D02*
X-91427Y20208D01*
X-91213Y20042D01*
X-90973Y20000D01*
X-90760Y20042D01*
X-90547Y20250D01*
X-90413Y20500D01*
X-90387Y20750D01*
X-90440Y21042D01*
X-90627Y21250D01*
X-90813Y21333D01*
X-91053D01*
G01X-90813D02*
X-90653Y21458D01*
X-90520Y21667D01*
X-90467Y21917D01*
X-90520Y22167D01*
X-90653Y22375D01*
X-90893Y22500D01*
X-91133Y22458D01*
X-91373Y22292D01*
G01X-103313Y40992D02*
X-103473Y41117D01*
X-103660Y41200D01*
X-103873D01*
X-104113Y41075D01*
X-104300Y40867D01*
X-104433Y40617D01*
X-104540Y40200D01*
X-104567Y39825D01*
X-104513Y39450D01*
X-104433Y39200D01*
X-104273Y38950D01*
X-104087Y38783D01*
X-103900Y38700D01*
X-103713D01*
X-103527Y38783D01*
X-103367Y38908D01*
X-103233Y39075D01*
G01X-101700Y38700D02*
Y41200D01*
X-102020Y40700D01*
G01Y38700D02*
X-101380D01*
G01X-99180D02*
Y41200D01*
X-100167Y39408D01*
X-98833D01*
G01X-94013Y65092D02*
X-94173Y65217D01*
X-94360Y65300D01*
X-94573D01*
X-94813Y65175D01*
X-95000Y64967D01*
X-95133Y64717D01*
X-95240Y64300D01*
X-95267Y63925D01*
X-95213Y63550D01*
X-95133Y63300D01*
X-94973Y63050D01*
X-94787Y62883D01*
X-94600Y62800D01*
X-94413D01*
X-94227Y62883D01*
X-94067Y63008D01*
X-93933Y63175D01*
G01X-92907Y64883D02*
X-92747Y65133D01*
X-92560Y65258D01*
X-92347Y65300D01*
X-92080Y65217D01*
X-91893Y65008D01*
X-91840Y64758D01*
X-91867Y64508D01*
X-91973Y64300D01*
X-92507Y63883D01*
X-92747Y63592D01*
X-92907Y63175D01*
X-92960Y62800D01*
X-91840D01*
G01X-90787Y63300D02*
X-90627Y63008D01*
X-90413Y62842D01*
X-90173Y62800D01*
X-89960Y62842D01*
X-89747Y63050D01*
X-89613Y63300D01*
X-89587Y63550D01*
X-89640Y63842D01*
X-89827Y64050D01*
X-90013Y64133D01*
X-90253D01*
G01X-90013D02*
X-89853Y64258D01*
X-89720Y64467D01*
X-89667Y64717D01*
X-89720Y64967D01*
X-89853Y65175D01*
X-90093Y65300D01*
X-90333Y65258D01*
X-90573Y65092D01*
G01X-98813Y78892D02*
X-98973Y79017D01*
X-99160Y79100D01*
X-99373D01*
X-99613Y78975D01*
X-99800Y78767D01*
X-99933Y78517D01*
X-100040Y78100D01*
X-100067Y77725D01*
X-100013Y77350D01*
X-99933Y77100D01*
X-99773Y76850D01*
X-99587Y76683D01*
X-99400Y76600D01*
X-99213D01*
X-99027Y76683D01*
X-98867Y76808D01*
X-98733Y76975D01*
G01X-97707Y78683D02*
X-97547Y78933D01*
X-97360Y79058D01*
X-97147Y79100D01*
X-96880Y79017D01*
X-96693Y78808D01*
X-96640Y78558D01*
X-96667Y78308D01*
X-96773Y78100D01*
X-97307Y77683D01*
X-97547Y77392D01*
X-97707Y76975D01*
X-97760Y76600D01*
X-96640D01*
G01X-95507Y78683D02*
X-95347Y78933D01*
X-95160Y79058D01*
X-94947Y79100D01*
X-94680Y79017D01*
X-94493Y78808D01*
X-94440Y78558D01*
X-94467Y78308D01*
X-94573Y78100D01*
X-95107Y77683D01*
X-95347Y77392D01*
X-95507Y76975D01*
X-95560Y76600D01*
X-94440D01*
G01X-78587Y4100D02*
Y6600D01*
X-78053D01*
X-77840Y6475D01*
X-77680Y6308D01*
X-77547Y6058D01*
X-77440Y5767D01*
X-77413Y5350D01*
X-77440Y4933D01*
X-77547Y4642D01*
X-77680Y4392D01*
X-77840Y4225D01*
X-78053Y4100D01*
X-78587D01*
G01X-76307Y6183D02*
X-76147Y6433D01*
X-75960Y6558D01*
X-75747Y6600D01*
X-75480Y6517D01*
X-75293Y6308D01*
X-75240Y6058D01*
X-75267Y5808D01*
X-75373Y5600D01*
X-75907Y5183D01*
X-76147Y4892D01*
X-76307Y4475D01*
X-76360Y4100D01*
X-75240D01*
G01X-73600D02*
Y6600D01*
X-73920Y6100D01*
G01Y4100D02*
X-73280D01*
G01X-90433Y29800D02*
Y32300D01*
X-89767D01*
X-89553Y32175D01*
X-89420Y32008D01*
X-89367Y31675D01*
X-89420Y31342D01*
X-89580Y31133D01*
X-89767Y31008D01*
X-90433D01*
G01X-89767D02*
X-89367Y29800D01*
G01X-87700D02*
Y32300D01*
X-88020Y31800D01*
G01Y29800D02*
X-87380D01*
G01X-87213Y24392D02*
X-87373Y24517D01*
X-87560Y24600D01*
X-87773D01*
X-88013Y24475D01*
X-88200Y24267D01*
X-88333Y24017D01*
X-88440Y23600D01*
X-88467Y23225D01*
X-88413Y22850D01*
X-88333Y22600D01*
X-88173Y22350D01*
X-87987Y22183D01*
X-87800Y22100D01*
X-87613D01*
X-87427Y22183D01*
X-87267Y22308D01*
X-87133Y22475D01*
G01X-85600Y22100D02*
Y24600D01*
X-85920Y24100D01*
G01Y22100D02*
X-85280D01*
G01X-83907Y24183D02*
X-83747Y24433D01*
X-83560Y24558D01*
X-83347Y24600D01*
X-83080Y24517D01*
X-82893Y24308D01*
X-82840Y24058D01*
X-82867Y23808D01*
X-82973Y23600D01*
X-83507Y23183D01*
X-83747Y22892D01*
X-83907Y22475D01*
X-83960Y22100D01*
X-82840D01*
G01X-86233Y65700D02*
Y63200D01*
X-85167D01*
G01X-83500D02*
X-83713Y63242D01*
X-83900Y63408D01*
X-84060Y63658D01*
X-84167Y63950D01*
X-84220Y64283D01*
Y64617D01*
X-84167Y64950D01*
X-84060Y65242D01*
X-83900Y65492D01*
X-83713Y65658D01*
X-83500Y65700D01*
X-83287Y65658D01*
X-83100Y65492D01*
X-82940Y65242D01*
X-82833Y64950D01*
X-82780Y64617D01*
Y64283D01*
X-82833Y63950D01*
X-82940Y63658D01*
X-83100Y63408D01*
X-83287Y63242D01*
X-83500Y63200D01*
G01X-81833D02*
Y65700D01*
X-81167D01*
X-80953Y65575D01*
X-80820Y65408D01*
X-80767Y65075D01*
X-80820Y64742D01*
X-80980Y64533D01*
X-81167Y64408D01*
X-81833D01*
G01X-81167D02*
X-80767Y63200D01*
G01X-79767D02*
X-79100Y65700D01*
X-78433Y63200D01*
G01X-78673Y64075D02*
X-79527D01*
G01X-77593Y63200D02*
Y65700D01*
X-76900Y63617D01*
X-76207Y65700D01*
Y63200D01*
G01X-74700D02*
X-74913Y63242D01*
X-75100Y63408D01*
X-75260Y63658D01*
X-75367Y63950D01*
X-75420Y64283D01*
Y64617D01*
X-75367Y64950D01*
X-75260Y65242D01*
X-75100Y65492D01*
X-74913Y65658D01*
X-74700Y65700D01*
X-74487Y65658D01*
X-74300Y65492D01*
X-74140Y65242D01*
X-74033Y64950D01*
X-73980Y64617D01*
Y64283D01*
X-74033Y63950D01*
X-74140Y63658D01*
X-74300Y63408D01*
X-74487Y63242D01*
X-74700Y63200D01*
G01X-73087D02*
Y65700D01*
X-72553D01*
X-72340Y65575D01*
X-72180Y65408D01*
X-72047Y65158D01*
X-71940Y64867D01*
X-71913Y64450D01*
X-71940Y64033D01*
X-72047Y63742D01*
X-72180Y63492D01*
X-72340Y63325D01*
X-72553Y63200D01*
X-73087D01*
G01X-70887Y65700D02*
Y63908D01*
X-70780Y63533D01*
X-70567Y63283D01*
X-70300Y63200D01*
X-70033Y63283D01*
X-69820Y63533D01*
X-69713Y63908D01*
Y65700D01*
G01X-68633D02*
Y63200D01*
X-67567D01*
G01X-65367D02*
X-66433D01*
Y65700D01*
X-65367D01*
G01X-65793Y64492D02*
X-66433D01*
G01X-63513Y52792D02*
X-63673Y52917D01*
X-63860Y53000D01*
X-64073D01*
X-64313Y52875D01*
X-64500Y52667D01*
X-64633Y52417D01*
X-64740Y52000D01*
X-64767Y51625D01*
X-64713Y51250D01*
X-64633Y51000D01*
X-64473Y50750D01*
X-64287Y50583D01*
X-64100Y50500D01*
X-63913D01*
X-63727Y50583D01*
X-63567Y50708D01*
X-63433Y50875D01*
G01X-61900Y50500D02*
X-62113Y50542D01*
X-62300Y50708D01*
X-62460Y50958D01*
X-62567Y51250D01*
X-62620Y51583D01*
Y51917D01*
X-62567Y52250D01*
X-62460Y52542D01*
X-62300Y52792D01*
X-62113Y52958D01*
X-61900Y53000D01*
X-61687Y52958D01*
X-61500Y52792D01*
X-61340Y52542D01*
X-61233Y52250D01*
X-61180Y51917D01*
Y51583D01*
X-61233Y51250D01*
X-61340Y50958D01*
X-61500Y50708D01*
X-61687Y50542D01*
X-61900Y50500D01*
G01X-60287Y53000D02*
Y51208D01*
X-60180Y50833D01*
X-59967Y50583D01*
X-59700Y50500D01*
X-59433Y50583D01*
X-59220Y50833D01*
X-59113Y51208D01*
Y53000D01*
G01X-57500D02*
Y50500D01*
G01X-58113Y53000D02*
X-56887D01*
G01X-46683Y39854D02*
X-44850Y38680D01*
G01X-44517Y39267D02*
X-47017D01*
G01X-46683Y38680D02*
X-44850Y39854D01*
G01X-45767Y40067D02*
Y38467D01*
G01X-43333Y40700D02*
Y38200D01*
X-42267D01*
G01X-40600D02*
Y40700D01*
X-40920Y40200D01*
G01Y38200D02*
X-40280D01*
G01X-33113Y91092D02*
X-33273Y91217D01*
X-33460Y91300D01*
X-33673D01*
X-33913Y91175D01*
X-34100Y90967D01*
X-34233Y90717D01*
X-34340Y90300D01*
X-34367Y89925D01*
X-34313Y89550D01*
X-34233Y89300D01*
X-34073Y89050D01*
X-33887Y88883D01*
X-33700Y88800D01*
X-33513D01*
X-33327Y88883D01*
X-33167Y89008D01*
X-33033Y89175D01*
G01X-31953Y89092D02*
X-31767Y88883D01*
X-31553Y88800D01*
X-31340Y88883D01*
X-31153Y89133D01*
X-31020Y89508D01*
X-30967Y89883D01*
Y90342D01*
X-31020Y90717D01*
X-31153Y91050D01*
X-31313Y91217D01*
X-31500Y91300D01*
X-31713Y91217D01*
X-31873Y91050D01*
X-31980Y90800D01*
X-32033Y90467D01*
X-31980Y90175D01*
X-31847Y89883D01*
X-31687Y89717D01*
X-31500Y89675D01*
X-31287Y89758D01*
X-31127Y89967D01*
X-30967Y90342D01*
G01X-16313Y41192D02*
X-16473Y41317D01*
X-16660Y41400D01*
X-16873D01*
X-17113Y41275D01*
X-17300Y41067D01*
X-17433Y40817D01*
X-17540Y40400D01*
X-17567Y40025D01*
X-17513Y39650D01*
X-17433Y39400D01*
X-17273Y39150D01*
X-17087Y38983D01*
X-16900Y38900D01*
X-16713D01*
X-16527Y38983D01*
X-16367Y39108D01*
X-16233Y39275D01*
G01X-14700Y38900D02*
Y41400D01*
X-15020Y40900D01*
G01Y38900D02*
X-14380D01*
G01X-12500Y41400D02*
X-12713Y41317D01*
X-12873Y41108D01*
X-12980Y40858D01*
X-13060Y40525D01*
X-13087Y40150D01*
X-13060Y39775D01*
X-12980Y39442D01*
X-12873Y39192D01*
X-12713Y38983D01*
X-12500Y38900D01*
X-12287Y38983D01*
X-12127Y39192D01*
X-12020Y39442D01*
X-11940Y39775D01*
X-11913Y40150D01*
X-11940Y40525D01*
X-12020Y40858D01*
X-12127Y41108D01*
X-12287Y41317D01*
X-12500Y41400D01*
G01X-13713Y55592D02*
X-13873Y55717D01*
X-14060Y55800D01*
X-14273D01*
X-14513Y55675D01*
X-14700Y55467D01*
X-14833Y55217D01*
X-14940Y54800D01*
X-14967Y54425D01*
X-14913Y54050D01*
X-14833Y53800D01*
X-14673Y53550D01*
X-14487Y53383D01*
X-14300Y53300D01*
X-14113D01*
X-13927Y53383D01*
X-13767Y53508D01*
X-13633Y53675D01*
G01X-12607Y54342D02*
X-12420Y54633D01*
X-12260Y54800D01*
X-12047Y54883D01*
X-11860Y54800D01*
X-11727Y54633D01*
X-11620Y54383D01*
X-11593Y54092D01*
X-11620Y53842D01*
X-11727Y53592D01*
X-11887Y53383D01*
X-12073Y53300D01*
X-12287Y53383D01*
X-12473Y53633D01*
X-12580Y54008D01*
X-12607Y54425D01*
X-12553Y54967D01*
X-12473Y55258D01*
X-12340Y55550D01*
X-12153Y55758D01*
X-11967Y55800D01*
X-11780Y55717D01*
X-11647Y55508D01*
G01X-20187Y109300D02*
Y107508D01*
X-20080Y107133D01*
X-19867Y106883D01*
X-19600Y106800D01*
X-19333Y106883D01*
X-19120Y107133D01*
X-19013Y107508D01*
Y109300D01*
G01X-17987Y107300D02*
X-17827Y107008D01*
X-17613Y106842D01*
X-17373Y106800D01*
X-17160Y106842D01*
X-16947Y107050D01*
X-16813Y107300D01*
X-16787Y107550D01*
X-16840Y107842D01*
X-17027Y108050D01*
X-17213Y108133D01*
X-17453D01*
G01X-17213D02*
X-17053Y108258D01*
X-16920Y108467D01*
X-16867Y108717D01*
X-16920Y108967D01*
X-17053Y109175D01*
X-17293Y109300D01*
X-17533Y109258D01*
X-17773Y109092D01*
G01X-12313Y122492D02*
X-12473Y122617D01*
X-12660Y122700D01*
X-12873D01*
X-13113Y122575D01*
X-13300Y122367D01*
X-13433Y122117D01*
X-13540Y121700D01*
X-13567Y121325D01*
X-13513Y120950D01*
X-13433Y120700D01*
X-13273Y120450D01*
X-13087Y120283D01*
X-12900Y120200D01*
X-12713D01*
X-12527Y120283D01*
X-12367Y120408D01*
X-12233Y120575D01*
G01X-10753Y120200D02*
X-10700Y120742D01*
X-10620Y121200D01*
X-10513Y121617D01*
X-10380Y122075D01*
X-10167Y122700D01*
X-11233D01*
G01X12687Y28792D02*
X12527Y28917D01*
X12340Y29000D01*
X12127D01*
X11887Y28875D01*
X11700Y28667D01*
X11567Y28417D01*
X11460Y28000D01*
X11433Y27625D01*
X11487Y27250D01*
X11567Y27000D01*
X11727Y26750D01*
X11913Y26583D01*
X12100Y26500D01*
X12287D01*
X12473Y26583D01*
X12633Y26708D01*
X12767Y26875D01*
G01X13713Y27000D02*
X13873Y26708D01*
X14087Y26542D01*
X14327Y26500D01*
X14540Y26542D01*
X14753Y26750D01*
X14887Y27000D01*
X14913Y27250D01*
X14860Y27542D01*
X14673Y27750D01*
X14487Y27833D01*
X14247D01*
G01X14487D02*
X14647Y27958D01*
X14780Y28167D01*
X14833Y28417D01*
X14780Y28667D01*
X14647Y28875D01*
X14407Y29000D01*
X14167Y28958D01*
X13927Y28792D01*
G01X17187Y41892D02*
X17027Y42017D01*
X16840Y42100D01*
X16627D01*
X16387Y41975D01*
X16200Y41767D01*
X16067Y41517D01*
X15960Y41100D01*
X15933Y40725D01*
X15987Y40350D01*
X16067Y40100D01*
X16227Y39850D01*
X16413Y39683D01*
X16600Y39600D01*
X16787D01*
X16973Y39683D01*
X17133Y39808D01*
X17267Y39975D01*
G01X19333Y39600D02*
X18267D01*
Y42100D01*
X19333D01*
G01X18907Y40892D02*
X18267D01*
G01X20440Y39600D02*
X21560Y42100D01*
G01X20440D02*
X21560Y39600D01*
G01X23200Y42100D02*
Y39600D01*
G01X22587Y42100D02*
X23813D01*
G01X4267Y133800D02*
X4400Y133550D01*
X4560Y133383D01*
X4747Y133300D01*
X4960Y133383D01*
X5120Y133550D01*
X5280Y133800D01*
X5333Y134133D01*
Y135800D01*
G01X7000D02*
Y133300D01*
G01X6387Y135800D02*
X7613D01*
G01X8533Y133300D02*
X9200Y135800D01*
X9867Y133300D01*
G01X9627Y134175D02*
X8773D01*
G01X11560Y134550D02*
X12093D01*
Y133800D01*
X11933Y133550D01*
X11747Y133383D01*
X11480Y133300D01*
X11213Y133383D01*
X11027Y133550D01*
X10867Y133800D01*
X10760Y134092D01*
X10707Y134425D01*
Y134717D01*
X10760Y134967D01*
X10867Y135258D01*
X11027Y135508D01*
X11187Y135675D01*
X11400Y135800D01*
X11587D01*
X11800Y135717D01*
X11960Y135550D01*
G01X20960Y5450D02*
X21493D01*
Y4700D01*
X21333Y4450D01*
X21147Y4283D01*
X20880Y4200D01*
X20613Y4283D01*
X20427Y4450D01*
X20267Y4700D01*
X20160Y4992D01*
X20107Y5325D01*
Y5617D01*
X20160Y5867D01*
X20267Y6158D01*
X20427Y6408D01*
X20587Y6575D01*
X20800Y6700D01*
X20987D01*
X21200Y6617D01*
X21360Y6450D01*
G01X22467Y4200D02*
Y6700D01*
X23107D01*
X23320Y6575D01*
X23480Y6283D01*
X23533Y5950D01*
X23480Y5617D01*
X23347Y5367D01*
X23107Y5242D01*
X22467D01*
G01X24640Y4533D02*
X24853Y4325D01*
X25093Y4200D01*
X25307D01*
X25520Y4325D01*
X25680Y4533D01*
X25760Y4825D01*
X25707Y5117D01*
X25573Y5367D01*
X25333Y5533D01*
X25013Y5617D01*
X24827Y5783D01*
X24747Y6075D01*
X24800Y6367D01*
X24933Y6575D01*
X25120Y6700D01*
X25307D01*
X25493Y6617D01*
X25653Y6408D01*
G01X26707Y4200D02*
Y6700D01*
X27400Y4617D01*
X28093Y6700D01*
Y4200D01*
G01X29600D02*
X29387Y4242D01*
X29200Y4408D01*
X29040Y4658D01*
X28933Y4950D01*
X28880Y5283D01*
Y5617D01*
X28933Y5950D01*
X29040Y6242D01*
X29200Y6492D01*
X29387Y6658D01*
X29600Y6700D01*
X29813Y6658D01*
X30000Y6492D01*
X30160Y6242D01*
X30267Y5950D01*
X30320Y5617D01*
Y5283D01*
X30267Y4950D01*
X30160Y4658D01*
X30000Y4408D01*
X29813Y4242D01*
X29600Y4200D01*
G01X31213D02*
Y6700D01*
X31747D01*
X31960Y6575D01*
X32120Y6408D01*
X32253Y6158D01*
X32360Y5867D01*
X32387Y5450D01*
X32360Y5033D01*
X32253Y4742D01*
X32120Y4492D01*
X31960Y4325D01*
X31747Y4200D01*
X31213D01*
G01X33413Y6700D02*
Y4908D01*
X33520Y4533D01*
X33733Y4283D01*
X34000Y4200D01*
X34267Y4283D01*
X34480Y4533D01*
X34587Y4908D01*
Y6700D01*
G01X35667D02*
Y4200D01*
X36733D01*
G01X38933D02*
X37867D01*
Y6700D01*
X38933D01*
G01X38507Y5492D02*
X37867D01*
G01X28087Y49792D02*
X27927Y49917D01*
X27740Y50000D01*
X27527D01*
X27287Y49875D01*
X27100Y49667D01*
X26967Y49417D01*
X26860Y49000D01*
X26833Y48625D01*
X26887Y48250D01*
X26967Y48000D01*
X27127Y47750D01*
X27313Y47583D01*
X27500Y47500D01*
X27687D01*
X27873Y47583D01*
X28033Y47708D01*
X28167Y47875D01*
G01X29113D02*
X29273Y47667D01*
X29460Y47542D01*
X29700Y47500D01*
X29940Y47583D01*
X30127Y47750D01*
X30260Y48042D01*
X30287Y48375D01*
X30233Y48708D01*
X30100Y48917D01*
X29913Y49083D01*
X29727Y49125D01*
X29540Y49083D01*
X29300Y48917D01*
X29380Y50000D01*
X30100D01*
G01X36587Y112592D02*
X36427Y112717D01*
X36240Y112800D01*
X36027D01*
X35787Y112675D01*
X35600Y112467D01*
X35467Y112217D01*
X35360Y111800D01*
X35333Y111425D01*
X35387Y111050D01*
X35467Y110800D01*
X35627Y110550D01*
X35813Y110383D01*
X36000Y110300D01*
X36187D01*
X36373Y110383D01*
X36533Y110508D01*
X36667Y110675D01*
G01X38200Y110300D02*
X38387Y110342D01*
X38600Y110467D01*
X38733Y110675D01*
X38787Y110967D01*
X38733Y111258D01*
X38573Y111508D01*
X38333Y111633D01*
X38067D01*
X37907Y111717D01*
X37773Y111925D01*
X37720Y112217D01*
X37800Y112508D01*
X37987Y112717D01*
X38200Y112800D01*
X38413Y112717D01*
X38600Y112508D01*
X38680Y112217D01*
X38627Y111925D01*
X38493Y111717D01*
X38333Y111633D01*
X38067D01*
X37827Y111508D01*
X37667Y111258D01*
X37613Y110967D01*
X37667Y110675D01*
X37800Y110467D01*
X38013Y110342D01*
X38200Y110300D01*
G01X56000Y62900D02*
X66000D01*
Y72900D01*
X56000D01*
Y62900D01*
G01X56500Y78200D02*
X66500D01*
Y88200D01*
X56500D01*
Y78200D01*
G01X49987Y122492D02*
X49827Y122617D01*
X49640Y122700D01*
X49427D01*
X49187Y122575D01*
X49000Y122367D01*
X48867Y122117D01*
X48760Y121700D01*
X48733Y121325D01*
X48787Y120950D01*
X48867Y120700D01*
X49027Y120450D01*
X49213Y120283D01*
X49400Y120200D01*
X49587D01*
X49773Y120283D01*
X49933Y120408D01*
X50067Y120575D01*
G01X51600Y120200D02*
Y122700D01*
X51280Y122200D01*
G01Y120200D02*
X51920D01*
G01X68500Y63600D02*
Y61100D01*
G01X67887Y63600D02*
X69113D01*
G01X70167Y61100D02*
Y63600D01*
X70807D01*
X71020Y63475D01*
X71180Y63183D01*
X71233Y62850D01*
X71180Y62517D01*
X71047Y62267D01*
X70807Y62142D01*
X70167D01*
G01X72313Y61600D02*
X72473Y61308D01*
X72687Y61142D01*
X72927Y61100D01*
X73140Y61142D01*
X73353Y61350D01*
X73487Y61600D01*
X73513Y61850D01*
X73460Y62142D01*
X73273Y62350D01*
X73087Y62433D01*
X72847D01*
G01X73087D02*
X73247Y62558D01*
X73380Y62767D01*
X73433Y63017D01*
X73380Y63267D01*
X73247Y63475D01*
X73007Y63600D01*
X72767Y63558D01*
X72527Y63392D01*
G01X68600Y79600D02*
Y77100D01*
G01X67987Y79600D02*
X69213D01*
G01X70267Y77100D02*
Y79600D01*
X70907D01*
X71120Y79475D01*
X71280Y79183D01*
X71333Y78850D01*
X71280Y78517D01*
X71147Y78267D01*
X70907Y78142D01*
X70267D01*
G01X73000Y77100D02*
Y79600D01*
X72680Y79100D01*
G01Y77100D02*
X73320D01*
G01X59213Y102000D02*
Y100208D01*
X59320Y99833D01*
X59533Y99583D01*
X59800Y99500D01*
X60067Y99583D01*
X60280Y99833D01*
X60387Y100208D01*
Y102000D01*
G01X61413Y99875D02*
X61573Y99667D01*
X61760Y99542D01*
X62000Y99500D01*
X62240Y99583D01*
X62427Y99750D01*
X62560Y100042D01*
X62587Y100375D01*
X62533Y100708D01*
X62400Y100917D01*
X62213Y101083D01*
X62027Y101125D01*
X61840Y101083D01*
X61600Y100917D01*
X61680Y102000D01*
X62400D01*
G01X85567Y13900D02*
X85700Y13650D01*
X85860Y13483D01*
X86047Y13400D01*
X86260Y13483D01*
X86420Y13650D01*
X86580Y13900D01*
X86633Y14233D01*
Y15900D01*
G01X87793Y15483D02*
X87953Y15733D01*
X88140Y15858D01*
X88353Y15900D01*
X88620Y15817D01*
X88807Y15608D01*
X88860Y15358D01*
X88833Y15108D01*
X88727Y14900D01*
X88193Y14483D01*
X87953Y14192D01*
X87793Y13775D01*
X87740Y13400D01*
X88860D01*
G01X96987Y42192D02*
X96827Y42317D01*
X96640Y42400D01*
X96427D01*
X96187Y42275D01*
X96000Y42067D01*
X95867Y41817D01*
X95760Y41400D01*
X95733Y41025D01*
X95787Y40650D01*
X95867Y40400D01*
X96027Y40150D01*
X96213Y39983D01*
X96400Y39900D01*
X96587D01*
X96773Y39983D01*
X96933Y40108D01*
X97067Y40275D01*
G01X98093Y41983D02*
X98253Y42233D01*
X98440Y42358D01*
X98653Y42400D01*
X98920Y42317D01*
X99107Y42108D01*
X99160Y41858D01*
X99133Y41608D01*
X99027Y41400D01*
X98493Y40983D01*
X98253Y40692D01*
X98093Y40275D01*
X98040Y39900D01*
X99160D01*
G01X95587Y71192D02*
X95427Y71317D01*
X95240Y71400D01*
X95027D01*
X94787Y71275D01*
X94600Y71067D01*
X94467Y70817D01*
X94360Y70400D01*
X94333Y70025D01*
X94387Y69650D01*
X94467Y69400D01*
X94627Y69150D01*
X94813Y68983D01*
X95000Y68900D01*
X95187D01*
X95373Y68983D01*
X95533Y69108D01*
X95667Y69275D01*
G01X97520Y68900D02*
Y71400D01*
X96533Y69608D01*
X97867D01*
G01X84967Y95300D02*
X85100Y95050D01*
X85260Y94883D01*
X85447Y94800D01*
X85660Y94883D01*
X85820Y95050D01*
X85980Y95300D01*
X86033Y95633D01*
Y97300D01*
G01X87700Y94800D02*
Y97300D01*
X87380Y96800D01*
G01Y94800D02*
X88020D01*
G54D11*
G01X-148050Y48703D02*
Y47697D01*
G01X-139050Y31089D02*
Y19711D01*
G01X-137350Y47397D02*
Y48403D01*
G01X-134850Y47397D02*
Y48403D01*
G01X-141750Y47697D02*
Y48703D01*
G01X-126703Y45950D02*
X-125697D01*
G01Y43450D02*
X-126703D01*
G01X-119850Y71486D02*
Y69914D01*
G01X-116750Y19711D02*
Y31089D01*
G01X-108150Y9400D02*
X-99250D01*
G01X-107050Y29914D02*
Y31486D01*
G01X-110950Y30014D02*
Y31586D01*
G01X-110303Y72250D02*
X-109297D01*
G01X-110103Y69250D02*
X-109097D01*
G01X-110003Y65650D02*
X-108997D01*
G01X-106250Y71486D02*
Y69914D01*
G01X-113950D02*
Y71486D01*
G01X-110403Y75750D02*
X-109397D01*
G01X-93350Y14397D02*
Y15403D01*
G01X-103050Y30214D02*
Y31786D01*
G01X-97950Y30314D02*
Y31886D01*
G01X-94250Y27797D02*
Y28803D01*
G01X-91350Y27797D02*
Y28803D01*
G01X-99650Y69814D02*
Y71386D01*
G01X-94250Y69814D02*
Y71386D01*
G01X-100350Y69914D02*
Y71486D01*
G01X-90450Y14397D02*
Y15403D01*
G01X-87175Y16521D02*
Y15079D01*
G01X-83025D02*
Y16521D01*
G01X-81250Y25800D02*
Y9800D01*
G01X-90200Y78000D02*
Y67000D01*
G01D02*
X-37200D01*
G01X-70750Y9800D02*
Y25800D01*
G01X-68776Y13916D02*
X-61788Y6633D01*
G01X-68776Y29484D02*
Y13916D01*
G01X-61788Y36767D02*
X-68776Y29484D01*
G01X-61788Y6633D02*
X-59941D01*
G01X-63153Y41750D02*
X-58647D01*
G01X-59941Y36767D02*
X-61788D01*
G01X-58647Y49050D02*
X-63153D01*
G01X-48659Y6633D02*
X-46812D01*
G01D02*
X-39824Y13916D01*
G01D02*
Y29484D01*
G01D02*
X-46812Y36767D01*
G01D02*
X-48659D01*
G01X-37200Y67000D02*
Y78000D01*
G01X-31250Y83297D02*
Y84303D01*
G01X-25850Y83297D02*
Y84303D01*
G01X-13800Y70129D02*
Y66600D01*
G01D02*
X-10271D01*
G01X-20272Y101564D02*
G02I-300J0D01*
G01X-10271Y107000D02*
X-13800D01*
G01D02*
Y103471D01*
G01X-5003Y37950D02*
X-3997D01*
G01X-5003Y42050D02*
X-3997D01*
G01X-5703Y51650D02*
X-4697D01*
G01X-5703Y57150D02*
X-4697D01*
G01X-9303Y113350D02*
X-8297D01*
G01X-9303Y118850D02*
X-8297D01*
G01X-650Y116100D02*
G02I-300J0D01*
G01X16303Y19650D02*
X15297D01*
G01X4400Y18400D02*
Y7400D01*
G01X57400Y18400D02*
X4400D01*
G01Y7400D02*
X57400D01*
G01X15297Y25150D02*
X16303D01*
G01X14950Y48897D02*
Y49903D01*
G01X23950Y22400D02*
G02I-300J0D01*
G01X25597Y50850D02*
X26603D01*
G01X25597Y56350D02*
X26603D01*
G01X19050Y48897D02*
Y49903D01*
G01X23071Y66600D02*
X26600D01*
G01D02*
Y70129D01*
G01Y103471D02*
Y107000D01*
G01D02*
X23071D01*
G01X34850Y103797D02*
Y104803D01*
G01X40350Y103797D02*
Y104803D01*
G01X56697Y124250D02*
X57703D01*
G01X56697Y118750D02*
X57703D01*
G01X48964Y125314D02*
X98764D01*
G01X48964Y148914D02*
Y125314D01*
G01X98764Y148914D02*
X48964D01*
G01X57400Y7400D02*
Y18400D01*
G01X81500Y16700D02*
X92500D01*
G01X81500Y49700D02*
Y16700D01*
G01X81300Y60100D02*
X92300D01*
G01X81300Y93100D02*
Y60100D01*
G01X92500Y49700D02*
X81500D01*
G01X92300Y93100D02*
X81300D01*
G01X92500Y16700D02*
Y49700D01*
G01X94750Y33597D02*
Y34603D01*
G01X92300Y60100D02*
Y93100D01*
G01X93950Y77497D02*
Y78503D01*
G01X97000Y85850D02*
G02I-300J0D01*
G01X100250Y33497D02*
Y34503D01*
G01X99450Y77497D02*
Y78503D01*
G01X98764Y125314D02*
Y148914D01*
G54D12*
G01X14965Y141352D02*
Y127848D01*
G01X40635D02*
Y141352D01*
G01X83942Y107457D02*
Y114543D01*
M02*
