G04 ================== begin FILE IDENTIFICATION RECORD ==================*
G04 Layout Name:  L:/SENIOR DESIGN/DESIGN 4/ALLEGRO V5/allegro/senior design v5.brd*
G04 Film Name:    BOATCREWMASK_TOP*
G04 File Format:  Gerber RS274X*
G04 File Origin:  Cadence Allegro 22.1-P001*
G04 Origin Date:  Fri May  9 15:46:27 2025*
G04 *
G04 Layer:  VIA CLASS/SOLDERMASK_TOP*
G04 Layer:  PIN/SOLDERMASK_TOP*
G04 Layer:  DRC ERROR CLASS/SOLDERMASK_TOP*
G04 *
G04 Offset:    (0.00 0.00)*
G04 Mirror:    No*
G04 Mode:      Positive*
G04 Rotation:  0*
G04 FullContactRelief:  No*
G04 UndefLineWidth:     5.00*
G04 ================== end FILE IDENTIFICATION RECORD ====================*
%FSLAX25Y25*MOIN*%
%IR0*IPPOS*OFA0.00000B0.00000*MIA0B0*SFA1.00000B1.00000*%
%ADD12R,.213X.065*%
%ADD13C,.044*%
%ADD20R,.02X.02*%
%ADD27C,.068*%
%ADD36C,.069*%
%ADD35R,.03701X.11772*%
%ADD10C,.07087*%
%ADD23R,.04X.042*%
%ADD21R,.022X.034*%
%ADD33R,.012X.047*%
%ADD30R,.047X.012*%
%ADD34R,.037X.042*%
%ADD32R,.042X.037*%
%ADD28R,.05X.065*%
%ADD19R,.034X.038*%
%ADD18R,.0355X.022*%
%ADD26R,.071X.038*%
%ADD17R,.047X.026*%
%ADD11R,.055X.036*%
%ADD24R,.047X.036*%
%ADD31R,.036X.047*%
%ADD15C,.14173*%
%ADD25R,.0335X.03381*%
%ADD37O,.02565X.05321*%
%ADD22R,.02168X.03381*%
%ADD16R,.03381X.02168*%
%ADD14R,.02168X.03184*%
%ADD29R,.08661X.07874*%
%LPD*%
G75*
G54D10*
X-145200Y16100D03*
Y34900D03*
G54D11*
X-144900Y44650D03*
Y51750D03*
G54D20*
X-111450Y74000D03*
X-108150D03*
X-111150Y67400D03*
X-107850D03*
X-92400Y72750D03*
Y69450D03*
G54D30*
X-16238Y72036D03*
Y74005D03*
Y75973D03*
Y77942D03*
Y79910D03*
Y81879D03*
Y83847D03*
Y85816D03*
Y87784D03*
Y89753D03*
Y91721D03*
Y93690D03*
Y95658D03*
Y97627D03*
Y99595D03*
Y101564D03*
X29038Y74005D03*
Y72036D03*
Y87784D03*
Y85816D03*
Y83847D03*
Y81879D03*
Y79910D03*
Y77942D03*
Y75973D03*
Y101564D03*
Y99595D03*
Y97627D03*
Y95658D03*
Y93690D03*
Y91721D03*
Y89753D03*
G54D21*
X-91900Y12300D03*
Y17500D03*
G54D12*
X-127900Y15250D03*
Y35550D03*
G54D22*
X-92800Y25724D03*
Y30876D03*
G54D31*
X-11550Y116100D03*
X-2450Y54400D03*
X-7950D03*
X-6050Y116100D03*
X13050Y22400D03*
X18550D03*
X28850Y53600D03*
X23350D03*
X54450Y121500D03*
X59950D03*
G54D13*
X-131900Y22100D03*
X-103300Y16000D03*
X-109000Y39300D03*
X-109300Y46700D03*
X-107900Y61800D03*
X-76000Y30300D03*
X-71400Y45400D03*
X-53700Y59000D03*
Y66600D03*
X-25300Y55000D03*
X-25200Y70600D03*
X-28600Y91000D03*
X-7950Y44150D03*
Y50100D03*
X-6050Y121500D03*
X18550Y27700D03*
X9200Y115600D03*
X23350Y49400D03*
X27800Y114600D03*
X43000Y101550D03*
X53600D03*
X54450Y117000D03*
X70950Y94050D03*
X66600Y114700D03*
X59950Y109900D03*
X71900D03*
X96700Y86500D03*
X104200Y31250D03*
G54D14*
X-136100Y45324D03*
Y50476D03*
G54D32*
X-1050Y40000D03*
X-7950D03*
G54D23*
X-100500Y27550D03*
Y34650D03*
G54D15*
X-132600Y99600D03*
X-108400D03*
X61000Y67900D03*
X61500Y83200D03*
G54D24*
X-97000Y73350D03*
Y67850D03*
X-28600Y81050D03*
Y86550D03*
X37600Y101550D03*
Y107050D03*
X97500Y31250D03*
Y36750D03*
X96700Y75250D03*
Y80750D03*
G54D33*
X3447Y64162D03*
X1479D03*
X-490D03*
X-2458D03*
X-4427D03*
X-6395D03*
X-8364D03*
Y109438D03*
X-6395D03*
X-4427D03*
X-2458D03*
X-490D03*
X1479D03*
X3447D03*
X15258Y64162D03*
X13290D03*
X11321D03*
X9353D03*
X7384D03*
X5416D03*
Y109438D03*
X7384D03*
X9353D03*
X11321D03*
X13290D03*
X15258D03*
X21164Y64162D03*
X19195D03*
X17227D03*
Y109438D03*
X19195D03*
X21164D03*
G54D16*
X-123624Y44700D03*
X-128776D03*
G54D25*
X-85100Y19459D03*
Y12141D03*
G54D34*
X17000Y45850D03*
Y52750D03*
G54D17*
X-116900Y73950D03*
Y67450D03*
X-103300Y73950D03*
Y67450D03*
G54D26*
X-76000Y9650D03*
Y25950D03*
G54D35*
X17800Y126588D03*
Y142612D03*
X22800Y126588D03*
X27800D03*
X22800Y142612D03*
X27800D03*
X32800Y126588D03*
X37800D03*
X32800Y142612D03*
X37800D03*
G54D18*
X-109425Y12260D03*
Y16000D03*
Y19740D03*
X-97975D03*
Y16000D03*
Y12260D03*
G54D36*
X59100Y139200D03*
X68942D03*
X78785D03*
X88628D03*
G54D27*
X-83700Y72500D03*
X-63700D03*
X-73700D03*
X-53700D03*
X-43700D03*
X10900Y12900D03*
X30900D03*
X20900D03*
X40900D03*
X50900D03*
X87000Y23200D03*
Y33200D03*
Y43200D03*
X86800Y76600D03*
Y66600D03*
Y86600D03*
G54D37*
X71600Y100665D03*
X66600D03*
Y121335D03*
X71600D03*
X81600Y100665D03*
X76600D03*
Y121335D03*
X81600D03*
G54D19*
X-109000Y34050D03*
Y27150D03*
G54D28*
X-66900Y45400D03*
X-54900D03*
G54D29*
X-54300Y10086D03*
Y11700D03*
Y31700D03*
Y33314D03*
M02*
