G04 ================== begin FILE IDENTIFICATION RECORD ==================*
G04 Layout Name:  L:/SENIOR DESIGN/DESIGN 4/ALLEGRO V5/allegro/senior design v5.brd*
G04 Film Name:    BOATCREWSILK_TOP*
G04 File Format:  Gerber RS274X*
G04 File Origin:  Cadence Allegro 22.1-P001*
G04 Origin Date:  Fri May  9 17:41:07 2025*
G04 *
G04 Layer:  PACKAGE GEOMETRY/SILKSCREEN_TOP*
G04 Layer:  MANUFACTURING/AUTOSILK_TOP*
G04 *
G04 Offset:    (0.00 0.00)*
G04 Mirror:    No*
G04 Mode:      Positive*
G04 Rotation:  0*
G04 FullContactRelief:  No*
G04 UndefLineWidth:     5.00*
G04 ================== end FILE IDENTIFICATION RECORD ====================*
%FSLAX25Y25*MOIN*%
%IR0*IPPOS*OFA0.00000B0.00000*MIA0B0*SFA1.00000B1.00000*%
%ADD10C,.005*%
%ADD11C,.006*%
%ADD12C,.00787*%
G75*
%LPD*%
G75*
G36*
G01X-20588Y84597D02*
Y83097D01*
X-19588D01*
Y84597D01*
X-20588D01*
G37*
G36*
G01X-3208Y60812D02*
Y59812D01*
X-1708D01*
Y60812D01*
X-3208D01*
G37*
G36*
G01X-1240Y112788D02*
Y113788D01*
X260D01*
Y112788D01*
X-1240D01*
G37*
G36*
G01X16477Y60812D02*
Y59812D01*
X17977D01*
Y60812D01*
X16477D01*
G37*
G36*
G01X18445Y112788D02*
Y113788D01*
X19945D01*
Y112788D01*
X18445D01*
G37*
G36*
G01X33388Y86566D02*
Y85066D01*
X32388D01*
Y86566D01*
X33388D01*
G37*
G54D10*
G01X-147140Y9650D02*
X-146607D01*
Y8900D01*
X-146767Y8650D01*
X-146953Y8483D01*
X-147220Y8400D01*
X-147487Y8483D01*
X-147673Y8650D01*
X-147833Y8900D01*
X-147940Y9192D01*
X-147993Y9525D01*
Y9817D01*
X-147940Y10067D01*
X-147833Y10358D01*
X-147673Y10608D01*
X-147513Y10775D01*
X-147300Y10900D01*
X-147113D01*
X-146900Y10817D01*
X-146740Y10650D01*
G01X-145713Y8400D02*
Y10900D01*
X-144487Y8400D01*
Y10900D01*
G01X-143487Y8400D02*
Y10900D01*
X-142953D01*
X-142740Y10775D01*
X-142580Y10608D01*
X-142447Y10358D01*
X-142340Y10067D01*
X-142313Y9650D01*
X-142340Y9233D01*
X-142447Y8942D01*
X-142580Y8692D01*
X-142740Y8525D01*
X-142953Y8400D01*
X-143487D01*
G01X-150220Y11080D02*
X-140180D01*
Y21120D01*
X-150220D01*
Y11080D01*
G01X-148587Y28533D02*
X-148480Y28658D01*
X-148400Y28867D01*
X-148347Y29158D01*
X-148400Y29408D01*
X-148507Y29575D01*
X-148693Y29700D01*
X-149413D01*
Y27200D01*
X-148533D01*
X-148347Y27367D01*
X-148240Y27617D01*
X-148187Y27908D01*
X-148240Y28200D01*
X-148400Y28450D01*
X-148587Y28533D01*
X-149413D01*
G01X-146120Y27200D02*
Y28867D01*
G01Y28575D02*
X-146227Y28742D01*
X-146387Y28825D01*
X-146573Y28867D01*
X-146760Y28783D01*
X-146920Y28617D01*
X-147027Y28367D01*
X-147080Y28033D01*
X-147027Y27700D01*
X-146920Y27450D01*
X-146760Y27283D01*
X-146573Y27200D01*
X-146387Y27242D01*
X-146227Y27367D01*
X-146120Y27533D01*
G01X-144400Y29700D02*
Y27200D01*
G01X-144773Y28867D02*
X-144027D01*
G01X-142200Y29700D02*
Y27200D01*
G01X-142573Y28867D02*
X-141827D01*
G01X-140293Y28033D02*
X-139653D01*
G01X-140000Y28575D02*
Y27492D01*
G01X-150220Y29880D02*
X-140180D01*
Y39920D01*
X-150220D01*
Y29880D01*
G01X-146533Y55500D02*
Y58000D01*
X-145867D01*
X-145653Y57875D01*
X-145520Y57708D01*
X-145467Y57375D01*
X-145520Y57042D01*
X-145680Y56833D01*
X-145867Y56708D01*
X-146533D01*
G01X-145867D02*
X-145467Y55500D01*
G01X-144387Y55875D02*
X-144227Y55667D01*
X-144040Y55542D01*
X-143800Y55500D01*
X-143560Y55583D01*
X-143373Y55750D01*
X-143240Y56042D01*
X-143213Y56375D01*
X-143267Y56708D01*
X-143400Y56917D01*
X-143587Y57083D01*
X-143773Y57125D01*
X-143960Y57083D01*
X-144200Y56917D01*
X-144120Y58000D01*
X-143400D01*
G01X-138033Y54000D02*
Y56500D01*
X-137367D01*
X-137153Y56375D01*
X-137020Y56208D01*
X-136967Y55875D01*
X-137020Y55542D01*
X-137180Y55333D01*
X-137367Y55208D01*
X-138033D01*
G01X-137367D02*
X-136967Y54000D01*
G01X-135807Y55042D02*
X-135620Y55333D01*
X-135460Y55500D01*
X-135247Y55583D01*
X-135060Y55500D01*
X-134927Y55333D01*
X-134820Y55083D01*
X-134793Y54792D01*
X-134820Y54542D01*
X-134927Y54292D01*
X-135087Y54083D01*
X-135273Y54000D01*
X-135487Y54083D01*
X-135673Y54333D01*
X-135780Y54708D01*
X-135807Y55125D01*
X-135753Y55667D01*
X-135673Y55958D01*
X-135540Y56250D01*
X-135353Y56458D01*
X-135167Y56500D01*
X-134980Y56417D01*
X-134847Y56208D01*
G01X-134800Y90400D02*
Y87900D01*
G01X-135413Y90400D02*
X-134187D01*
G01X-133133Y87900D02*
Y90400D01*
X-132493D01*
X-132280Y90275D01*
X-132120Y89983D01*
X-132067Y89650D01*
X-132120Y89317D01*
X-132253Y89067D01*
X-132493Y88942D01*
X-133133D01*
G01X-130080Y87900D02*
Y90400D01*
X-131067Y88608D01*
X-129733D01*
G01X-137600Y94600D02*
X-127600D01*
Y104600D01*
X-137600D01*
Y94600D01*
G01X-138640Y127050D02*
X-138107D01*
Y126300D01*
X-138267Y126050D01*
X-138453Y125883D01*
X-138720Y125800D01*
X-138987Y125883D01*
X-139173Y126050D01*
X-139333Y126300D01*
X-139440Y126592D01*
X-139493Y126925D01*
Y127217D01*
X-139440Y127467D01*
X-139333Y127758D01*
X-139173Y128008D01*
X-139013Y128175D01*
X-138800Y128300D01*
X-138613D01*
X-138400Y128217D01*
X-138240Y128050D01*
G01X-136120Y125800D02*
Y127467D01*
G01Y127175D02*
X-136227Y127342D01*
X-136387Y127425D01*
X-136573Y127467D01*
X-136760Y127383D01*
X-136920Y127217D01*
X-137027Y126967D01*
X-137080Y126633D01*
X-137027Y126300D01*
X-136920Y126050D01*
X-136760Y125883D01*
X-136573Y125800D01*
X-136387Y125842D01*
X-136227Y125967D01*
X-136120Y126133D01*
G01X-134773Y125800D02*
Y127467D01*
G01Y127133D02*
X-134640Y127300D01*
X-134507Y127425D01*
X-134320Y127467D01*
X-134187Y127425D01*
X-134027Y127300D01*
G01X-132573Y125800D02*
Y127467D01*
G01Y127133D02*
X-132440Y127300D01*
X-132307Y127425D01*
X-132120Y127467D01*
X-131987Y127425D01*
X-131827Y127300D01*
G01X-130400Y126925D02*
X-129547D01*
X-129627Y127217D01*
X-129760Y127383D01*
X-129947Y127467D01*
X-130133Y127425D01*
X-130293Y127300D01*
X-130400Y127008D01*
X-130453Y126758D01*
Y126508D01*
X-130400Y126258D01*
X-130267Y126008D01*
X-130107Y125842D01*
X-129920Y125800D01*
X-129733Y125883D01*
X-129547Y126133D01*
G01X-127800Y128300D02*
Y125800D01*
G01X-128173Y127467D02*
X-127427D01*
G01X-125600Y128300D02*
Y125800D01*
G01X-125973Y127467D02*
X-125227D01*
G01X-121760Y126133D02*
X-121547Y125925D01*
X-121307Y125800D01*
X-121093D01*
X-120880Y125925D01*
X-120720Y126133D01*
X-120640Y126425D01*
X-120693Y126717D01*
X-120827Y126967D01*
X-121067Y127133D01*
X-121387Y127217D01*
X-121573Y127383D01*
X-121653Y127675D01*
X-121600Y127967D01*
X-121467Y128175D01*
X-121280Y128300D01*
X-121093D01*
X-120907Y128217D01*
X-120747Y128008D01*
G01X-119453Y125800D02*
Y128300D01*
G01Y127092D02*
X-119320Y127300D01*
X-119187Y127425D01*
X-118973Y127467D01*
X-118813Y127425D01*
X-118627Y127258D01*
X-118547Y127008D01*
Y125800D01*
G01X-117200Y126925D02*
X-116347D01*
X-116427Y127217D01*
X-116560Y127383D01*
X-116747Y127467D01*
X-116933Y127425D01*
X-117093Y127300D01*
X-117200Y127008D01*
X-117253Y126758D01*
Y126508D01*
X-117200Y126258D01*
X-117067Y126008D01*
X-116907Y125842D01*
X-116720Y125800D01*
X-116533Y125883D01*
X-116347Y126133D01*
G01X-115080Y124967D02*
Y127467D01*
G01Y127092D02*
X-114947Y127300D01*
X-114813Y127425D01*
X-114600Y127467D01*
X-114413Y127425D01*
X-114227Y127217D01*
X-114147Y126925D01*
X-114120Y126633D01*
X-114147Y126342D01*
X-114227Y126050D01*
X-114387Y125883D01*
X-114600Y125800D01*
X-114787Y125842D01*
X-114973Y125967D01*
X-115080Y126133D01*
G01X-112880Y124967D02*
Y127467D01*
G01Y127092D02*
X-112747Y127300D01*
X-112613Y127425D01*
X-112400Y127467D01*
X-112213Y127425D01*
X-112027Y127217D01*
X-111947Y126925D01*
X-111920Y126633D01*
X-111947Y126342D01*
X-112027Y126050D01*
X-112187Y125883D01*
X-112400Y125800D01*
X-112587Y125842D01*
X-112773Y125967D01*
X-112880Y126133D01*
G01X-109720Y125800D02*
Y127467D01*
G01Y127175D02*
X-109827Y127342D01*
X-109987Y127425D01*
X-110173Y127467D01*
X-110360Y127383D01*
X-110520Y127217D01*
X-110627Y126967D01*
X-110680Y126633D01*
X-110627Y126300D01*
X-110520Y126050D01*
X-110360Y125883D01*
X-110173Y125800D01*
X-109987Y125842D01*
X-109827Y125967D01*
X-109720Y126133D01*
G01X-108373Y125800D02*
Y127467D01*
G01Y127133D02*
X-108240Y127300D01*
X-108107Y127425D01*
X-107920Y127467D01*
X-107787Y127425D01*
X-107627Y127300D01*
G01X-105320Y128300D02*
Y125800D01*
G01Y126175D02*
X-105427Y125967D01*
X-105587Y125842D01*
X-105773Y125800D01*
X-105987Y125883D01*
X-106147Y126092D01*
X-106253Y126342D01*
X-106280Y126633D01*
X-106253Y126925D01*
X-106147Y127175D01*
X-105987Y127383D01*
X-105773Y127467D01*
X-105587Y127425D01*
X-105453Y127342D01*
X-105320Y127175D01*
G01X-139333Y123200D02*
X-139200Y122950D01*
X-139040Y122783D01*
X-138853Y122700D01*
X-138640Y122783D01*
X-138480Y122950D01*
X-138320Y123200D01*
X-138267Y123533D01*
Y125200D01*
G01X-136120Y122700D02*
Y124367D01*
G01Y124075D02*
X-136227Y124242D01*
X-136387Y124325D01*
X-136573Y124367D01*
X-136760Y124283D01*
X-136920Y124117D01*
X-137027Y123867D01*
X-137080Y123533D01*
X-137027Y123200D01*
X-136920Y122950D01*
X-136760Y122783D01*
X-136573Y122700D01*
X-136387Y122742D01*
X-136227Y122867D01*
X-136120Y123033D01*
G01X-134960Y121950D02*
X-134800Y121867D01*
X-134587Y121950D01*
X-134453Y122117D01*
X-134347Y122325D01*
X-134187Y122992D01*
X-133840Y124367D01*
G01X-134693D02*
X-134187Y122992D01*
G01X-130587Y122700D02*
Y125200D01*
G01X-129573D02*
X-130587Y123658D01*
G01X-129413Y122700D02*
X-130133Y124367D01*
G01X-128173Y122700D02*
Y124367D01*
G01Y124033D02*
X-128040Y124200D01*
X-127907Y124325D01*
X-127720Y124367D01*
X-127587Y124325D01*
X-127427Y124200D01*
G01X-125600Y124367D02*
Y122700D01*
G01Y125033D02*
X-125653Y125075D01*
Y125158D01*
X-125600Y125200D01*
X-125547Y125158D01*
Y125075D01*
X-125600Y125033D01*
G01X-123800Y122992D02*
X-123667Y122825D01*
X-123480Y122700D01*
X-123320D01*
X-123160Y122783D01*
X-123053Y122908D01*
X-123000Y123075D01*
X-123027Y123325D01*
X-123133Y123450D01*
X-123613Y123700D01*
X-123720Y123992D01*
X-123667Y124200D01*
X-123560Y124325D01*
X-123400Y124367D01*
X-123240Y124325D01*
X-123080Y124200D01*
G01X-121600Y123825D02*
X-120747D01*
X-120827Y124117D01*
X-120960Y124283D01*
X-121147Y124367D01*
X-121333Y124325D01*
X-121493Y124200D01*
X-121600Y123908D01*
X-121653Y123658D01*
Y123408D01*
X-121600Y123158D01*
X-121467Y122908D01*
X-121307Y122742D01*
X-121120Y122700D01*
X-120933Y122783D01*
X-120747Y123033D01*
G01X-119000Y122700D02*
Y125200D01*
G01X-116800Y122700D02*
Y125200D01*
G01X-139333Y120100D02*
X-139200Y119850D01*
X-139040Y119683D01*
X-138853Y119600D01*
X-138640Y119683D01*
X-138480Y119850D01*
X-138320Y120100D01*
X-138267Y120433D01*
Y122100D01*
G01X-136120Y119600D02*
Y121267D01*
G01Y120975D02*
X-136227Y121142D01*
X-136387Y121225D01*
X-136573Y121267D01*
X-136760Y121183D01*
X-136920Y121017D01*
X-137027Y120767D01*
X-137080Y120433D01*
X-137027Y120100D01*
X-136920Y119850D01*
X-136760Y119683D01*
X-136573Y119600D01*
X-136387Y119642D01*
X-136227Y119767D01*
X-136120Y119933D01*
G01X-134960Y118850D02*
X-134800Y118767D01*
X-134587Y118850D01*
X-134453Y119017D01*
X-134347Y119225D01*
X-134187Y119892D01*
X-133840Y121267D01*
G01X-134693D02*
X-134187Y119892D01*
G01X-130560Y119933D02*
X-130347Y119725D01*
X-130107Y119600D01*
X-129893D01*
X-129680Y119725D01*
X-129520Y119933D01*
X-129440Y120225D01*
X-129493Y120517D01*
X-129627Y120767D01*
X-129867Y120933D01*
X-130187Y121017D01*
X-130373Y121183D01*
X-130453Y121475D01*
X-130400Y121767D01*
X-130267Y121975D01*
X-130080Y122100D01*
X-129893D01*
X-129707Y122017D01*
X-129547Y121808D01*
G01X-128253Y119600D02*
Y122100D01*
G01Y120892D02*
X-128120Y121100D01*
X-127987Y121225D01*
X-127773Y121267D01*
X-127613Y121225D01*
X-127427Y121058D01*
X-127347Y120808D01*
Y119600D01*
G01X-125120D02*
Y121267D01*
G01Y120975D02*
X-125227Y121142D01*
X-125387Y121225D01*
X-125573Y121267D01*
X-125760Y121183D01*
X-125920Y121017D01*
X-126027Y120767D01*
X-126080Y120433D01*
X-126027Y120100D01*
X-125920Y119850D01*
X-125760Y119683D01*
X-125573Y119600D01*
X-125387Y119642D01*
X-125227Y119767D01*
X-125120Y119933D01*
G01X-123853Y119600D02*
Y122100D01*
G01Y120892D02*
X-123720Y121100D01*
X-123587Y121225D01*
X-123373Y121267D01*
X-123213Y121225D01*
X-123027Y121058D01*
X-122947Y120808D01*
Y119600D01*
G01X-139333Y143800D02*
Y141300D01*
X-138267D01*
G01X-136600D02*
X-136760Y141342D01*
X-136920Y141508D01*
X-137027Y141800D01*
X-137080Y142133D01*
X-137027Y142467D01*
X-136920Y142758D01*
X-136760Y142925D01*
X-136600Y142967D01*
X-136440Y142925D01*
X-136280Y142758D01*
X-136173Y142467D01*
X-136147Y142133D01*
X-136173Y141800D01*
X-136280Y141508D01*
X-136440Y141342D01*
X-136600Y141300D01*
G01X-134933D02*
Y143800D01*
X-134267D01*
X-134053Y143675D01*
X-133920Y143508D01*
X-133867Y143175D01*
X-133920Y142842D01*
X-134080Y142633D01*
X-134267Y142508D01*
X-134933D01*
G01X-134267D02*
X-133867Y141300D01*
G01X-131720D02*
Y142967D01*
G01Y142675D02*
X-131827Y142842D01*
X-131987Y142925D01*
X-132173Y142967D01*
X-132360Y142883D01*
X-132520Y142717D01*
X-132627Y142467D01*
X-132680Y142133D01*
X-132627Y141800D01*
X-132520Y141550D01*
X-132360Y141383D01*
X-132173Y141300D01*
X-131987Y141342D01*
X-131827Y141467D01*
X-131720Y141633D01*
G01X-128333Y141300D02*
Y143800D01*
X-127667D01*
X-127453Y143675D01*
X-127320Y143508D01*
X-127267Y143175D01*
X-127320Y142842D01*
X-127480Y142633D01*
X-127667Y142508D01*
X-128333D01*
G01X-127667D02*
X-127267Y141300D01*
G01X-125013Y143592D02*
X-125173Y143717D01*
X-125360Y143800D01*
X-125573D01*
X-125813Y143675D01*
X-126000Y143467D01*
X-126133Y143217D01*
X-126240Y142800D01*
X-126267Y142425D01*
X-126213Y142050D01*
X-126133Y141800D01*
X-125973Y141550D01*
X-125787Y141383D01*
X-125600Y141300D01*
X-125413D01*
X-125227Y141383D01*
X-125067Y141508D01*
X-124933Y141675D01*
G01X-120987Y142633D02*
X-120880Y142758D01*
X-120800Y142967D01*
X-120747Y143258D01*
X-120800Y143508D01*
X-120907Y143675D01*
X-121093Y143800D01*
X-121813D01*
Y141300D01*
X-120933D01*
X-120747Y141467D01*
X-120640Y141717D01*
X-120587Y142008D01*
X-120640Y142300D01*
X-120800Y142550D01*
X-120987Y142633D01*
X-121813D01*
G01X-119000Y141300D02*
X-119160Y141342D01*
X-119320Y141508D01*
X-119427Y141800D01*
X-119480Y142133D01*
X-119427Y142467D01*
X-119320Y142758D01*
X-119160Y142925D01*
X-119000Y142967D01*
X-118840Y142925D01*
X-118680Y142758D01*
X-118573Y142467D01*
X-118547Y142133D01*
X-118573Y141800D01*
X-118680Y141508D01*
X-118840Y141342D01*
X-119000Y141300D01*
G01X-116320D02*
Y142967D01*
G01Y142675D02*
X-116427Y142842D01*
X-116587Y142925D01*
X-116773Y142967D01*
X-116960Y142883D01*
X-117120Y142717D01*
X-117227Y142467D01*
X-117280Y142133D01*
X-117227Y141800D01*
X-117120Y141550D01*
X-116960Y141383D01*
X-116773Y141300D01*
X-116587Y141342D01*
X-116427Y141467D01*
X-116320Y141633D01*
G01X-114600Y143800D02*
Y141300D01*
G01X-114973Y142967D02*
X-114227D01*
G01X-139360Y138533D02*
X-139147Y138325D01*
X-138907Y138200D01*
X-138693D01*
X-138480Y138325D01*
X-138320Y138533D01*
X-138240Y138825D01*
X-138293Y139117D01*
X-138427Y139367D01*
X-138667Y139533D01*
X-138987Y139617D01*
X-139173Y139783D01*
X-139253Y140075D01*
X-139200Y140367D01*
X-139067Y140575D01*
X-138880Y140700D01*
X-138693D01*
X-138507Y140617D01*
X-138347Y140408D01*
G01X-137000Y139325D02*
X-136147D01*
X-136227Y139617D01*
X-136360Y139783D01*
X-136547Y139867D01*
X-136733Y139825D01*
X-136893Y139700D01*
X-137000Y139408D01*
X-137053Y139158D01*
Y138908D01*
X-137000Y138658D01*
X-136867Y138408D01*
X-136707Y138242D01*
X-136520Y138200D01*
X-136333Y138283D01*
X-136147Y138533D01*
G01X-134853Y138200D02*
Y139867D01*
G01Y139450D02*
X-134747Y139658D01*
X-134587Y139825D01*
X-134373Y139867D01*
X-134187Y139825D01*
X-134027Y139658D01*
X-133947Y139367D01*
Y138200D01*
G01X-132200Y139867D02*
Y138200D01*
G01Y140533D02*
X-132253Y140575D01*
Y140658D01*
X-132200Y140700D01*
X-132147Y140658D01*
Y140575D01*
X-132200Y140533D01*
G01X-130000Y138200D02*
X-130160Y138242D01*
X-130320Y138408D01*
X-130427Y138700D01*
X-130480Y139033D01*
X-130427Y139367D01*
X-130320Y139658D01*
X-130160Y139825D01*
X-130000Y139867D01*
X-129840Y139825D01*
X-129680Y139658D01*
X-129573Y139367D01*
X-129547Y139033D01*
X-129573Y138700D01*
X-129680Y138408D01*
X-129840Y138242D01*
X-130000Y138200D01*
G01X-128173D02*
Y139867D01*
G01Y139533D02*
X-128040Y139700D01*
X-127907Y139825D01*
X-127720Y139867D01*
X-127587Y139825D01*
X-127427Y139700D01*
G01X-123987Y138200D02*
Y140700D01*
X-123453D01*
X-123240Y140575D01*
X-123080Y140408D01*
X-122947Y140158D01*
X-122840Y139867D01*
X-122813Y139450D01*
X-122840Y139033D01*
X-122947Y138742D01*
X-123080Y138492D01*
X-123240Y138325D01*
X-123453Y138200D01*
X-123987D01*
G01X-121600Y139325D02*
X-120747D01*
X-120827Y139617D01*
X-120960Y139783D01*
X-121147Y139867D01*
X-121333Y139825D01*
X-121493Y139700D01*
X-121600Y139408D01*
X-121653Y139158D01*
Y138908D01*
X-121600Y138658D01*
X-121467Y138408D01*
X-121307Y138242D01*
X-121120Y138200D01*
X-120933Y138283D01*
X-120747Y138533D01*
G01X-119400Y138492D02*
X-119267Y138325D01*
X-119080Y138200D01*
X-118920D01*
X-118760Y138283D01*
X-118653Y138408D01*
X-118600Y138575D01*
X-118627Y138825D01*
X-118733Y138950D01*
X-119213Y139200D01*
X-119320Y139492D01*
X-119267Y139700D01*
X-119160Y139825D01*
X-119000Y139867D01*
X-118840Y139825D01*
X-118680Y139700D01*
G01X-116800Y139867D02*
Y138200D01*
G01Y140533D02*
X-116853Y140575D01*
Y140658D01*
X-116800Y140700D01*
X-116747Y140658D01*
Y140575D01*
X-116800Y140533D01*
G01X-114973Y137575D02*
X-114787Y137408D01*
X-114573Y137367D01*
X-114387Y137408D01*
X-114227Y137617D01*
X-114120Y137908D01*
Y139867D01*
G01Y139533D02*
X-114227Y139700D01*
X-114387Y139825D01*
X-114573Y139867D01*
X-114787Y139783D01*
X-114920Y139617D01*
X-115027Y139325D01*
X-115080Y139033D01*
X-115053Y138783D01*
X-114947Y138492D01*
X-114787Y138283D01*
X-114573Y138200D01*
X-114413Y138242D01*
X-114227Y138408D01*
X-114120Y138575D01*
G01X-112853Y138200D02*
Y139867D01*
G01Y139450D02*
X-112747Y139658D01*
X-112587Y139825D01*
X-112373Y139867D01*
X-112187Y139825D01*
X-112027Y139658D01*
X-111947Y139367D01*
Y138200D01*
G01X-108000D02*
Y140700D01*
X-108320Y140200D01*
G01Y138200D02*
X-107680D01*
G01X-138267Y135100D02*
X-139333D01*
Y137600D01*
X-138267D01*
G01X-138693Y136392D02*
X-139333D01*
G01X-137133Y137600D02*
Y135100D01*
X-136067D01*
G01X-133867D02*
X-134933D01*
Y137600D01*
X-133867D01*
G01X-134293Y136392D02*
X-134933D01*
G01X-132040Y136350D02*
X-131507D01*
Y135600D01*
X-131667Y135350D01*
X-131853Y135183D01*
X-132120Y135100D01*
X-132387Y135183D01*
X-132573Y135350D01*
X-132733Y135600D01*
X-132840Y135892D01*
X-132893Y136225D01*
Y136517D01*
X-132840Y136767D01*
X-132733Y137058D01*
X-132573Y137308D01*
X-132413Y137475D01*
X-132200Y137600D01*
X-132013D01*
X-131800Y137517D01*
X-131640Y137350D01*
G01X-128360Y135433D02*
X-128147Y135225D01*
X-127907Y135100D01*
X-127693D01*
X-127480Y135225D01*
X-127320Y135433D01*
X-127240Y135725D01*
X-127293Y136017D01*
X-127427Y136267D01*
X-127667Y136433D01*
X-127987Y136517D01*
X-128173Y136683D01*
X-128253Y136975D01*
X-128200Y137267D01*
X-128067Y137475D01*
X-127880Y137600D01*
X-127693D01*
X-127507Y137517D01*
X-127347Y137308D01*
G01X-126080Y134267D02*
Y136767D01*
G01Y136392D02*
X-125947Y136600D01*
X-125813Y136725D01*
X-125600Y136767D01*
X-125413Y136725D01*
X-125227Y136517D01*
X-125147Y136225D01*
X-125120Y135933D01*
X-125147Y135642D01*
X-125227Y135350D01*
X-125387Y135183D01*
X-125600Y135100D01*
X-125787Y135142D01*
X-125973Y135267D01*
X-126080Y135433D01*
G01X-123773Y135100D02*
Y136767D01*
G01Y136433D02*
X-123640Y136600D01*
X-123507Y136725D01*
X-123320Y136767D01*
X-123187Y136725D01*
X-123027Y136600D01*
G01X-121200Y136767D02*
Y135100D01*
G01Y137433D02*
X-121253Y137475D01*
Y137558D01*
X-121200Y137600D01*
X-121147Y137558D01*
Y137475D01*
X-121200Y137433D01*
G01X-119453Y135100D02*
Y136767D01*
G01Y136350D02*
X-119347Y136558D01*
X-119187Y136725D01*
X-118973Y136767D01*
X-118787Y136725D01*
X-118627Y136558D01*
X-118547Y136267D01*
Y135100D01*
G01X-117173Y134475D02*
X-116987Y134308D01*
X-116773Y134267D01*
X-116587Y134308D01*
X-116427Y134517D01*
X-116320Y134808D01*
Y136767D01*
G01Y136433D02*
X-116427Y136600D01*
X-116587Y136725D01*
X-116773Y136767D01*
X-116987Y136683D01*
X-117120Y136517D01*
X-117227Y136225D01*
X-117280Y135933D01*
X-117253Y135683D01*
X-117147Y135392D01*
X-116987Y135183D01*
X-116773Y135100D01*
X-116613Y135142D01*
X-116427Y135308D01*
X-116320Y135475D01*
G01X-112907Y137183D02*
X-112747Y137433D01*
X-112560Y137558D01*
X-112347Y137600D01*
X-112080Y137517D01*
X-111893Y137308D01*
X-111840Y137058D01*
X-111867Y136808D01*
X-111973Y136600D01*
X-112507Y136183D01*
X-112747Y135892D01*
X-112907Y135475D01*
X-112960Y135100D01*
X-111840D01*
G01X-110200Y137600D02*
X-110413Y137517D01*
X-110573Y137308D01*
X-110680Y137058D01*
X-110760Y136725D01*
X-110787Y136350D01*
X-110760Y135975D01*
X-110680Y135642D01*
X-110573Y135392D01*
X-110413Y135183D01*
X-110200Y135100D01*
X-109987Y135183D01*
X-109827Y135392D01*
X-109720Y135642D01*
X-109640Y135975D01*
X-109613Y136350D01*
X-109640Y136725D01*
X-109720Y137058D01*
X-109827Y137308D01*
X-109987Y137517D01*
X-110200Y137600D01*
G01X-108507Y137183D02*
X-108347Y137433D01*
X-108160Y137558D01*
X-107947Y137600D01*
X-107680Y137517D01*
X-107493Y137308D01*
X-107440Y137058D01*
X-107467Y136808D01*
X-107573Y136600D01*
X-108107Y136183D01*
X-108347Y135892D01*
X-108507Y135475D01*
X-108560Y135100D01*
X-107440D01*
G01X-106387Y135475D02*
X-106227Y135267D01*
X-106040Y135142D01*
X-105800Y135100D01*
X-105560Y135183D01*
X-105373Y135350D01*
X-105240Y135642D01*
X-105213Y135975D01*
X-105267Y136308D01*
X-105400Y136517D01*
X-105587Y136683D01*
X-105773Y136725D01*
X-105960Y136683D01*
X-106200Y136517D01*
X-106120Y137600D01*
X-105400D01*
G01X-128433Y40300D02*
Y42800D01*
X-127767D01*
X-127553Y42675D01*
X-127420Y42508D01*
X-127367Y42175D01*
X-127420Y41842D01*
X-127580Y41633D01*
X-127767Y41508D01*
X-128433D01*
G01X-127767D02*
X-127367Y40300D01*
G01X-125380D02*
Y42800D01*
X-126367Y41008D01*
X-125033D01*
G01X-119213Y42192D02*
X-119373Y42317D01*
X-119560Y42400D01*
X-119773D01*
X-120013Y42275D01*
X-120200Y42067D01*
X-120333Y41817D01*
X-120440Y41400D01*
X-120467Y41025D01*
X-120413Y40650D01*
X-120333Y40400D01*
X-120173Y40150D01*
X-119987Y39983D01*
X-119800Y39900D01*
X-119613D01*
X-119427Y39983D01*
X-119267Y40108D01*
X-119133Y40275D01*
G01X-117920Y42400D02*
X-117280D01*
G01X-117600D02*
Y39900D01*
G01X-117920D02*
X-117280D01*
G01X-116013D02*
Y42400D01*
X-114787Y39900D01*
Y42400D01*
G01X-119213Y79292D02*
X-119373Y79417D01*
X-119560Y79500D01*
X-119773D01*
X-120013Y79375D01*
X-120200Y79167D01*
X-120333Y78917D01*
X-120440Y78500D01*
X-120467Y78125D01*
X-120413Y77750D01*
X-120333Y77500D01*
X-120173Y77250D01*
X-119987Y77083D01*
X-119800Y77000D01*
X-119613D01*
X-119427Y77083D01*
X-119267Y77208D01*
X-119133Y77375D01*
G01X-118107Y79083D02*
X-117947Y79333D01*
X-117760Y79458D01*
X-117547Y79500D01*
X-117280Y79417D01*
X-117093Y79208D01*
X-117040Y78958D01*
X-117067Y78708D01*
X-117173Y78500D01*
X-117707Y78083D01*
X-117947Y77792D01*
X-118107Y77375D01*
X-118160Y77000D01*
X-117040D01*
G01X-115400Y79500D02*
X-115613Y79417D01*
X-115773Y79208D01*
X-115880Y78958D01*
X-115960Y78625D01*
X-115987Y78250D01*
X-115960Y77875D01*
X-115880Y77542D01*
X-115773Y77292D01*
X-115613Y77083D01*
X-115400Y77000D01*
X-115187Y77083D01*
X-115027Y77292D01*
X-114920Y77542D01*
X-114840Y77875D01*
X-114813Y78250D01*
X-114840Y78625D01*
X-114920Y78958D01*
X-115027Y79208D01*
X-115187Y79417D01*
X-115400Y79500D01*
G01X-105687Y24000D02*
Y22208D01*
X-105580Y21833D01*
X-105367Y21583D01*
X-105100Y21500D01*
X-104833Y21583D01*
X-104620Y21833D01*
X-104513Y22208D01*
Y24000D01*
G01X-103407Y22542D02*
X-103220Y22833D01*
X-103060Y23000D01*
X-102847Y23083D01*
X-102660Y23000D01*
X-102527Y22833D01*
X-102420Y22583D01*
X-102393Y22292D01*
X-102420Y22042D01*
X-102527Y21792D01*
X-102687Y21583D01*
X-102873Y21500D01*
X-103087Y21583D01*
X-103273Y21833D01*
X-103380Y22208D01*
X-103407Y22625D01*
X-103353Y23167D01*
X-103273Y23458D01*
X-103140Y23750D01*
X-102953Y23958D01*
X-102767Y24000D01*
X-102580Y23917D01*
X-102447Y23708D01*
G01X-111033Y22000D02*
Y24500D01*
X-110367D01*
X-110153Y24375D01*
X-110020Y24208D01*
X-109967Y23875D01*
X-110020Y23542D01*
X-110180Y23333D01*
X-110367Y23208D01*
X-111033D01*
G01X-110367D02*
X-109967Y22000D01*
G01X-108807Y24083D02*
X-108647Y24333D01*
X-108460Y24458D01*
X-108247Y24500D01*
X-107980Y24417D01*
X-107793Y24208D01*
X-107740Y23958D01*
X-107767Y23708D01*
X-107873Y23500D01*
X-108407Y23083D01*
X-108647Y22792D01*
X-108807Y22375D01*
X-108860Y22000D01*
X-107740D01*
G01X-103513Y41092D02*
X-103673Y41217D01*
X-103860Y41300D01*
X-104073D01*
X-104313Y41175D01*
X-104500Y40967D01*
X-104633Y40717D01*
X-104740Y40300D01*
X-104767Y39925D01*
X-104713Y39550D01*
X-104633Y39300D01*
X-104473Y39050D01*
X-104287Y38883D01*
X-104100Y38800D01*
X-103913D01*
X-103727Y38883D01*
X-103567Y39008D01*
X-103433Y39175D01*
G01X-101900Y38800D02*
Y41300D01*
X-102220Y40800D01*
G01Y38800D02*
X-101580D01*
G01X-99380D02*
Y41300D01*
X-100367Y39508D01*
X-99033D01*
G01X-113133Y65600D02*
Y63100D01*
X-112067D01*
G01X-110080D02*
Y65600D01*
X-111067Y63808D01*
X-109733D01*
G01X-105613Y79092D02*
X-105773Y79217D01*
X-105960Y79300D01*
X-106173D01*
X-106413Y79175D01*
X-106600Y78967D01*
X-106733Y78717D01*
X-106840Y78300D01*
X-106867Y77925D01*
X-106813Y77550D01*
X-106733Y77300D01*
X-106573Y77050D01*
X-106387Y76883D01*
X-106200Y76800D01*
X-106013D01*
X-105827Y76883D01*
X-105667Y77008D01*
X-105533Y77175D01*
G01X-104507Y78883D02*
X-104347Y79133D01*
X-104160Y79258D01*
X-103947Y79300D01*
X-103680Y79217D01*
X-103493Y79008D01*
X-103440Y78758D01*
X-103467Y78508D01*
X-103573Y78300D01*
X-104107Y77883D01*
X-104347Y77592D01*
X-104507Y77175D01*
X-104560Y76800D01*
X-103440D01*
G01X-101800D02*
Y79300D01*
X-102120Y78800D01*
G01Y76800D02*
X-101480D01*
G01X-111933Y79300D02*
Y76800D01*
X-110867D01*
G01X-109787Y77300D02*
X-109627Y77008D01*
X-109413Y76842D01*
X-109173Y76800D01*
X-108960Y76842D01*
X-108747Y77050D01*
X-108613Y77300D01*
X-108587Y77550D01*
X-108640Y77842D01*
X-108827Y78050D01*
X-109013Y78133D01*
X-109253D01*
G01X-109013D02*
X-108853Y78258D01*
X-108720Y78467D01*
X-108667Y78717D01*
X-108720Y78967D01*
X-108853Y79175D01*
X-109093Y79300D01*
X-109333Y79258D01*
X-109573Y79092D01*
G01X-110500Y91400D02*
Y88900D01*
G01X-111113Y91400D02*
X-109887D01*
G01X-108833Y88900D02*
Y91400D01*
X-108193D01*
X-107980Y91275D01*
X-107820Y90983D01*
X-107767Y90650D01*
X-107820Y90317D01*
X-107953Y90067D01*
X-108193Y89942D01*
X-108833D01*
G01X-106687Y89275D02*
X-106527Y89067D01*
X-106340Y88942D01*
X-106100Y88900D01*
X-105860Y88983D01*
X-105673Y89150D01*
X-105540Y89442D01*
X-105513Y89775D01*
X-105567Y90108D01*
X-105700Y90317D01*
X-105887Y90483D01*
X-106073Y90525D01*
X-106260Y90483D01*
X-106500Y90317D01*
X-106420Y91400D01*
X-105700D01*
G01X-113400Y94600D02*
X-103400D01*
Y104600D01*
X-113400D01*
Y94600D01*
G01X-93933Y20100D02*
Y22600D01*
X-93267D01*
X-93053Y22475D01*
X-92920Y22308D01*
X-92867Y21975D01*
X-92920Y21642D01*
X-93080Y21433D01*
X-93267Y21308D01*
X-93933D01*
G01X-93267D02*
X-92867Y20100D01*
G01X-91787Y20600D02*
X-91627Y20308D01*
X-91413Y20142D01*
X-91173Y20100D01*
X-90960Y20142D01*
X-90747Y20350D01*
X-90613Y20600D01*
X-90587Y20850D01*
X-90640Y21142D01*
X-90827Y21350D01*
X-91013Y21433D01*
X-91253D01*
G01X-91013D02*
X-90853Y21558D01*
X-90720Y21767D01*
X-90667Y22017D01*
X-90720Y22267D01*
X-90853Y22475D01*
X-91093Y22600D01*
X-91333Y22558D01*
X-91573Y22392D01*
G01X-94213Y65192D02*
X-94373Y65317D01*
X-94560Y65400D01*
X-94773D01*
X-95013Y65275D01*
X-95200Y65067D01*
X-95333Y64817D01*
X-95440Y64400D01*
X-95467Y64025D01*
X-95413Y63650D01*
X-95333Y63400D01*
X-95173Y63150D01*
X-94987Y62983D01*
X-94800Y62900D01*
X-94613D01*
X-94427Y62983D01*
X-94267Y63108D01*
X-94133Y63275D01*
G01X-93107Y64983D02*
X-92947Y65233D01*
X-92760Y65358D01*
X-92547Y65400D01*
X-92280Y65317D01*
X-92093Y65108D01*
X-92040Y64858D01*
X-92067Y64608D01*
X-92173Y64400D01*
X-92707Y63983D01*
X-92947Y63692D01*
X-93107Y63275D01*
X-93160Y62900D01*
X-92040D01*
G01X-90987Y63400D02*
X-90827Y63108D01*
X-90613Y62942D01*
X-90373Y62900D01*
X-90160Y62942D01*
X-89947Y63150D01*
X-89813Y63400D01*
X-89787Y63650D01*
X-89840Y63942D01*
X-90027Y64150D01*
X-90213Y64233D01*
X-90453D01*
G01X-90213D02*
X-90053Y64358D01*
X-89920Y64567D01*
X-89867Y64817D01*
X-89920Y65067D01*
X-90053Y65275D01*
X-90293Y65400D01*
X-90533Y65358D01*
X-90773Y65192D01*
G01X-99013Y78992D02*
X-99173Y79117D01*
X-99360Y79200D01*
X-99573D01*
X-99813Y79075D01*
X-100000Y78867D01*
X-100133Y78617D01*
X-100240Y78200D01*
X-100267Y77825D01*
X-100213Y77450D01*
X-100133Y77200D01*
X-99973Y76950D01*
X-99787Y76783D01*
X-99600Y76700D01*
X-99413D01*
X-99227Y76783D01*
X-99067Y76908D01*
X-98933Y77075D01*
G01X-97907Y78783D02*
X-97747Y79033D01*
X-97560Y79158D01*
X-97347Y79200D01*
X-97080Y79117D01*
X-96893Y78908D01*
X-96840Y78658D01*
X-96867Y78408D01*
X-96973Y78200D01*
X-97507Y77783D01*
X-97747Y77492D01*
X-97907Y77075D01*
X-97960Y76700D01*
X-96840D01*
G01X-95707Y78783D02*
X-95547Y79033D01*
X-95360Y79158D01*
X-95147Y79200D01*
X-94880Y79117D01*
X-94693Y78908D01*
X-94640Y78658D01*
X-94667Y78408D01*
X-94773Y78200D01*
X-95307Y77783D01*
X-95547Y77492D01*
X-95707Y77075D01*
X-95760Y76700D01*
X-94640D01*
G01X-78787Y4200D02*
Y6700D01*
X-78253D01*
X-78040Y6575D01*
X-77880Y6408D01*
X-77747Y6158D01*
X-77640Y5867D01*
X-77613Y5450D01*
X-77640Y5033D01*
X-77747Y4742D01*
X-77880Y4492D01*
X-78040Y4325D01*
X-78253Y4200D01*
X-78787D01*
G01X-76507Y6283D02*
X-76347Y6533D01*
X-76160Y6658D01*
X-75947Y6700D01*
X-75680Y6617D01*
X-75493Y6408D01*
X-75440Y6158D01*
X-75467Y5908D01*
X-75573Y5700D01*
X-76107Y5283D01*
X-76347Y4992D01*
X-76507Y4575D01*
X-76560Y4200D01*
X-75440D01*
G01X-73800D02*
Y6700D01*
X-74120Y6200D01*
G01Y4200D02*
X-73480D01*
G01X-90633Y29900D02*
Y32400D01*
X-89967D01*
X-89753Y32275D01*
X-89620Y32108D01*
X-89567Y31775D01*
X-89620Y31442D01*
X-89780Y31233D01*
X-89967Y31108D01*
X-90633D01*
G01X-89967D02*
X-89567Y29900D01*
G01X-87900D02*
Y32400D01*
X-88220Y31900D01*
G01Y29900D02*
X-87580D01*
G01X-87413Y24492D02*
X-87573Y24617D01*
X-87760Y24700D01*
X-87973D01*
X-88213Y24575D01*
X-88400Y24367D01*
X-88533Y24117D01*
X-88640Y23700D01*
X-88667Y23325D01*
X-88613Y22950D01*
X-88533Y22700D01*
X-88373Y22450D01*
X-88187Y22283D01*
X-88000Y22200D01*
X-87813D01*
X-87627Y22283D01*
X-87467Y22408D01*
X-87333Y22575D01*
G01X-85800Y22200D02*
Y24700D01*
X-86120Y24200D01*
G01Y22200D02*
X-85480D01*
G01X-84107Y24283D02*
X-83947Y24533D01*
X-83760Y24658D01*
X-83547Y24700D01*
X-83280Y24617D01*
X-83093Y24408D01*
X-83040Y24158D01*
X-83067Y23908D01*
X-83173Y23700D01*
X-83707Y23283D01*
X-83947Y22992D01*
X-84107Y22575D01*
X-84160Y22200D01*
X-83040D01*
G01X-86433Y65800D02*
Y63300D01*
X-85367D01*
G01X-83700D02*
X-83913Y63342D01*
X-84100Y63508D01*
X-84260Y63758D01*
X-84367Y64050D01*
X-84420Y64383D01*
Y64717D01*
X-84367Y65050D01*
X-84260Y65342D01*
X-84100Y65592D01*
X-83913Y65758D01*
X-83700Y65800D01*
X-83487Y65758D01*
X-83300Y65592D01*
X-83140Y65342D01*
X-83033Y65050D01*
X-82980Y64717D01*
Y64383D01*
X-83033Y64050D01*
X-83140Y63758D01*
X-83300Y63508D01*
X-83487Y63342D01*
X-83700Y63300D01*
G01X-82033D02*
Y65800D01*
X-81367D01*
X-81153Y65675D01*
X-81020Y65508D01*
X-80967Y65175D01*
X-81020Y64842D01*
X-81180Y64633D01*
X-81367Y64508D01*
X-82033D01*
G01X-81367D02*
X-80967Y63300D01*
G01X-79967D02*
X-79300Y65800D01*
X-78633Y63300D01*
G01X-78873Y64175D02*
X-79727D01*
G01X-77793Y63300D02*
Y65800D01*
X-77100Y63717D01*
X-76407Y65800D01*
Y63300D01*
G01X-74900D02*
X-75113Y63342D01*
X-75300Y63508D01*
X-75460Y63758D01*
X-75567Y64050D01*
X-75620Y64383D01*
Y64717D01*
X-75567Y65050D01*
X-75460Y65342D01*
X-75300Y65592D01*
X-75113Y65758D01*
X-74900Y65800D01*
X-74687Y65758D01*
X-74500Y65592D01*
X-74340Y65342D01*
X-74233Y65050D01*
X-74180Y64717D01*
Y64383D01*
X-74233Y64050D01*
X-74340Y63758D01*
X-74500Y63508D01*
X-74687Y63342D01*
X-74900Y63300D01*
G01X-73287D02*
Y65800D01*
X-72753D01*
X-72540Y65675D01*
X-72380Y65508D01*
X-72247Y65258D01*
X-72140Y64967D01*
X-72113Y64550D01*
X-72140Y64133D01*
X-72247Y63842D01*
X-72380Y63592D01*
X-72540Y63425D01*
X-72753Y63300D01*
X-73287D01*
G01X-71087Y65800D02*
Y64008D01*
X-70980Y63633D01*
X-70767Y63383D01*
X-70500Y63300D01*
X-70233Y63383D01*
X-70020Y63633D01*
X-69913Y64008D01*
Y65800D01*
G01X-68833D02*
Y63300D01*
X-67767D01*
G01X-65567D02*
X-66633D01*
Y65800D01*
X-65567D01*
G01X-65993Y64592D02*
X-66633D01*
G01X-63713Y52892D02*
X-63873Y53017D01*
X-64060Y53100D01*
X-64273D01*
X-64513Y52975D01*
X-64700Y52767D01*
X-64833Y52517D01*
X-64940Y52100D01*
X-64967Y51725D01*
X-64913Y51350D01*
X-64833Y51100D01*
X-64673Y50850D01*
X-64487Y50683D01*
X-64300Y50600D01*
X-64113D01*
X-63927Y50683D01*
X-63767Y50808D01*
X-63633Y50975D01*
G01X-62100Y50600D02*
X-62313Y50642D01*
X-62500Y50808D01*
X-62660Y51058D01*
X-62767Y51350D01*
X-62820Y51683D01*
Y52017D01*
X-62767Y52350D01*
X-62660Y52642D01*
X-62500Y52892D01*
X-62313Y53058D01*
X-62100Y53100D01*
X-61887Y53058D01*
X-61700Y52892D01*
X-61540Y52642D01*
X-61433Y52350D01*
X-61380Y52017D01*
Y51683D01*
X-61433Y51350D01*
X-61540Y51058D01*
X-61700Y50808D01*
X-61887Y50642D01*
X-62100Y50600D01*
G01X-60487Y53100D02*
Y51308D01*
X-60380Y50933D01*
X-60167Y50683D01*
X-59900Y50600D01*
X-59633Y50683D01*
X-59420Y50933D01*
X-59313Y51308D01*
Y53100D01*
G01X-57700D02*
Y50600D01*
G01X-58313Y53100D02*
X-57087D01*
G01X-46883Y39954D02*
X-45050Y38780D01*
G01X-44717Y39367D02*
X-47217D01*
G01X-46883Y38780D02*
X-45050Y39954D01*
G01X-45967Y40167D02*
Y38567D01*
G01X-43533Y40800D02*
Y38300D01*
X-42467D01*
G01X-40800D02*
Y40800D01*
X-41120Y40300D01*
G01Y38300D02*
X-40480D01*
G01X-33313Y91192D02*
X-33473Y91317D01*
X-33660Y91400D01*
X-33873D01*
X-34113Y91275D01*
X-34300Y91067D01*
X-34433Y90817D01*
X-34540Y90400D01*
X-34567Y90025D01*
X-34513Y89650D01*
X-34433Y89400D01*
X-34273Y89150D01*
X-34087Y88983D01*
X-33900Y88900D01*
X-33713D01*
X-33527Y88983D01*
X-33367Y89108D01*
X-33233Y89275D01*
G01X-32153Y89192D02*
X-31967Y88983D01*
X-31753Y88900D01*
X-31540Y88983D01*
X-31353Y89233D01*
X-31220Y89608D01*
X-31167Y89983D01*
Y90442D01*
X-31220Y90817D01*
X-31353Y91150D01*
X-31513Y91317D01*
X-31700Y91400D01*
X-31913Y91317D01*
X-32073Y91150D01*
X-32180Y90900D01*
X-32233Y90567D01*
X-32180Y90275D01*
X-32047Y89983D01*
X-31887Y89817D01*
X-31700Y89775D01*
X-31487Y89858D01*
X-31327Y90067D01*
X-31167Y90442D01*
G01X-15513Y45092D02*
X-15673Y45217D01*
X-15860Y45300D01*
X-16073D01*
X-16313Y45175D01*
X-16500Y44967D01*
X-16633Y44717D01*
X-16740Y44300D01*
X-16767Y43925D01*
X-16713Y43550D01*
X-16633Y43300D01*
X-16473Y43050D01*
X-16287Y42883D01*
X-16100Y42800D01*
X-15913D01*
X-15727Y42883D01*
X-15567Y43008D01*
X-15433Y43175D01*
G01X-13900Y42800D02*
Y45300D01*
X-14220Y44800D01*
G01Y42800D02*
X-13580D01*
G01X-11700Y45300D02*
X-11913Y45217D01*
X-12073Y45008D01*
X-12180Y44758D01*
X-12260Y44425D01*
X-12287Y44050D01*
X-12260Y43675D01*
X-12180Y43342D01*
X-12073Y43092D01*
X-11913Y42883D01*
X-11700Y42800D01*
X-11487Y42883D01*
X-11327Y43092D01*
X-11220Y43342D01*
X-11140Y43675D01*
X-11113Y44050D01*
X-11140Y44425D01*
X-11220Y44758D01*
X-11327Y45008D01*
X-11487Y45217D01*
X-11700Y45300D01*
G01X-13913Y55692D02*
X-14073Y55817D01*
X-14260Y55900D01*
X-14473D01*
X-14713Y55775D01*
X-14900Y55567D01*
X-15033Y55317D01*
X-15140Y54900D01*
X-15167Y54525D01*
X-15113Y54150D01*
X-15033Y53900D01*
X-14873Y53650D01*
X-14687Y53483D01*
X-14500Y53400D01*
X-14313D01*
X-14127Y53483D01*
X-13967Y53608D01*
X-13833Y53775D01*
G01X-12807Y54442D02*
X-12620Y54733D01*
X-12460Y54900D01*
X-12247Y54983D01*
X-12060Y54900D01*
X-11927Y54733D01*
X-11820Y54483D01*
X-11793Y54192D01*
X-11820Y53942D01*
X-11927Y53692D01*
X-12087Y53483D01*
X-12273Y53400D01*
X-12487Y53483D01*
X-12673Y53733D01*
X-12780Y54108D01*
X-12807Y54525D01*
X-12753Y55067D01*
X-12673Y55358D01*
X-12540Y55650D01*
X-12353Y55858D01*
X-12167Y55900D01*
X-11980Y55817D01*
X-11847Y55608D01*
G01X-20387Y109400D02*
Y107608D01*
X-20280Y107233D01*
X-20067Y106983D01*
X-19800Y106900D01*
X-19533Y106983D01*
X-19320Y107233D01*
X-19213Y107608D01*
Y109400D01*
G01X-18187Y107400D02*
X-18027Y107108D01*
X-17813Y106942D01*
X-17573Y106900D01*
X-17360Y106942D01*
X-17147Y107150D01*
X-17013Y107400D01*
X-16987Y107650D01*
X-17040Y107942D01*
X-17227Y108150D01*
X-17413Y108233D01*
X-17653D01*
G01X-17413D02*
X-17253Y108358D01*
X-17120Y108567D01*
X-17067Y108817D01*
X-17120Y109067D01*
X-17253Y109275D01*
X-17493Y109400D01*
X-17733Y109358D01*
X-17973Y109192D01*
G01X-12513Y122592D02*
X-12673Y122717D01*
X-12860Y122800D01*
X-13073D01*
X-13313Y122675D01*
X-13500Y122467D01*
X-13633Y122217D01*
X-13740Y121800D01*
X-13767Y121425D01*
X-13713Y121050D01*
X-13633Y120800D01*
X-13473Y120550D01*
X-13287Y120383D01*
X-13100Y120300D01*
X-12913D01*
X-12727Y120383D01*
X-12567Y120508D01*
X-12433Y120675D01*
G01X-10953Y120300D02*
X-10900Y120842D01*
X-10820Y121300D01*
X-10713Y121717D01*
X-10580Y122175D01*
X-10367Y122800D01*
X-11433D01*
G01X12487Y28892D02*
X12327Y29017D01*
X12140Y29100D01*
X11927D01*
X11687Y28975D01*
X11500Y28767D01*
X11367Y28517D01*
X11260Y28100D01*
X11233Y27725D01*
X11287Y27350D01*
X11367Y27100D01*
X11527Y26850D01*
X11713Y26683D01*
X11900Y26600D01*
X12087D01*
X12273Y26683D01*
X12433Y26808D01*
X12567Y26975D01*
G01X13513Y27100D02*
X13673Y26808D01*
X13887Y26642D01*
X14127Y26600D01*
X14340Y26642D01*
X14553Y26850D01*
X14687Y27100D01*
X14713Y27350D01*
X14660Y27642D01*
X14473Y27850D01*
X14287Y27933D01*
X14047D01*
G01X14287D02*
X14447Y28058D01*
X14580Y28267D01*
X14633Y28517D01*
X14580Y28767D01*
X14447Y28975D01*
X14207Y29100D01*
X13967Y29058D01*
X13727Y28892D01*
G01X16987Y41992D02*
X16827Y42117D01*
X16640Y42200D01*
X16427D01*
X16187Y42075D01*
X16000Y41867D01*
X15867Y41617D01*
X15760Y41200D01*
X15733Y40825D01*
X15787Y40450D01*
X15867Y40200D01*
X16027Y39950D01*
X16213Y39783D01*
X16400Y39700D01*
X16587D01*
X16773Y39783D01*
X16933Y39908D01*
X17067Y40075D01*
G01X19133Y39700D02*
X18067D01*
Y42200D01*
X19133D01*
G01X18707Y40992D02*
X18067D01*
G01X20240Y39700D02*
X21360Y42200D01*
G01X20240D02*
X21360Y39700D01*
G01X23000Y42200D02*
Y39700D01*
G01X22387Y42200D02*
X23613D01*
G01X4067Y133900D02*
X4200Y133650D01*
X4360Y133483D01*
X4547Y133400D01*
X4760Y133483D01*
X4920Y133650D01*
X5080Y133900D01*
X5133Y134233D01*
Y135900D01*
G01X6800D02*
Y133400D01*
G01X6187Y135900D02*
X7413D01*
G01X8333Y133400D02*
X9000Y135900D01*
X9667Y133400D01*
G01X9427Y134275D02*
X8573D01*
G01X11360Y134650D02*
X11893D01*
Y133900D01*
X11733Y133650D01*
X11547Y133483D01*
X11280Y133400D01*
X11013Y133483D01*
X10827Y133650D01*
X10667Y133900D01*
X10560Y134192D01*
X10507Y134525D01*
Y134817D01*
X10560Y135067D01*
X10667Y135358D01*
X10827Y135608D01*
X10987Y135775D01*
X11200Y135900D01*
X11387D01*
X11600Y135817D01*
X11760Y135650D01*
G01X20760Y5550D02*
X21293D01*
Y4800D01*
X21133Y4550D01*
X20947Y4383D01*
X20680Y4300D01*
X20413Y4383D01*
X20227Y4550D01*
X20067Y4800D01*
X19960Y5092D01*
X19907Y5425D01*
Y5717D01*
X19960Y5967D01*
X20067Y6258D01*
X20227Y6508D01*
X20387Y6675D01*
X20600Y6800D01*
X20787D01*
X21000Y6717D01*
X21160Y6550D01*
G01X22267Y4300D02*
Y6800D01*
X22907D01*
X23120Y6675D01*
X23280Y6383D01*
X23333Y6050D01*
X23280Y5717D01*
X23147Y5467D01*
X22907Y5342D01*
X22267D01*
G01X24440Y4633D02*
X24653Y4425D01*
X24893Y4300D01*
X25107D01*
X25320Y4425D01*
X25480Y4633D01*
X25560Y4925D01*
X25507Y5217D01*
X25373Y5467D01*
X25133Y5633D01*
X24813Y5717D01*
X24627Y5883D01*
X24547Y6175D01*
X24600Y6467D01*
X24733Y6675D01*
X24920Y6800D01*
X25107D01*
X25293Y6717D01*
X25453Y6508D01*
G01X26507Y4300D02*
Y6800D01*
X27200Y4717D01*
X27893Y6800D01*
Y4300D01*
G01X29400D02*
X29187Y4342D01*
X29000Y4508D01*
X28840Y4758D01*
X28733Y5050D01*
X28680Y5383D01*
Y5717D01*
X28733Y6050D01*
X28840Y6342D01*
X29000Y6592D01*
X29187Y6758D01*
X29400Y6800D01*
X29613Y6758D01*
X29800Y6592D01*
X29960Y6342D01*
X30067Y6050D01*
X30120Y5717D01*
Y5383D01*
X30067Y5050D01*
X29960Y4758D01*
X29800Y4508D01*
X29613Y4342D01*
X29400Y4300D01*
G01X31013D02*
Y6800D01*
X31547D01*
X31760Y6675D01*
X31920Y6508D01*
X32053Y6258D01*
X32160Y5967D01*
X32187Y5550D01*
X32160Y5133D01*
X32053Y4842D01*
X31920Y4592D01*
X31760Y4425D01*
X31547Y4300D01*
X31013D01*
G01X33213Y6800D02*
Y5008D01*
X33320Y4633D01*
X33533Y4383D01*
X33800Y4300D01*
X34067Y4383D01*
X34280Y4633D01*
X34387Y5008D01*
Y6800D01*
G01X35467D02*
Y4300D01*
X36533D01*
G01X38733D02*
X37667D01*
Y6800D01*
X38733D01*
G01X38307Y5592D02*
X37667D01*
G01X27887Y49892D02*
X27727Y50017D01*
X27540Y50100D01*
X27327D01*
X27087Y49975D01*
X26900Y49767D01*
X26767Y49517D01*
X26660Y49100D01*
X26633Y48725D01*
X26687Y48350D01*
X26767Y48100D01*
X26927Y47850D01*
X27113Y47683D01*
X27300Y47600D01*
X27487D01*
X27673Y47683D01*
X27833Y47808D01*
X27967Y47975D01*
G01X28913D02*
X29073Y47767D01*
X29260Y47642D01*
X29500Y47600D01*
X29740Y47683D01*
X29927Y47850D01*
X30060Y48142D01*
X30087Y48475D01*
X30033Y48808D01*
X29900Y49017D01*
X29713Y49183D01*
X29527Y49225D01*
X29340Y49183D01*
X29100Y49017D01*
X29180Y50100D01*
X29900D01*
G01X36387Y112692D02*
X36227Y112817D01*
X36040Y112900D01*
X35827D01*
X35587Y112775D01*
X35400Y112567D01*
X35267Y112317D01*
X35160Y111900D01*
X35133Y111525D01*
X35187Y111150D01*
X35267Y110900D01*
X35427Y110650D01*
X35613Y110483D01*
X35800Y110400D01*
X35987D01*
X36173Y110483D01*
X36333Y110608D01*
X36467Y110775D01*
G01X38000Y110400D02*
X38187Y110442D01*
X38400Y110567D01*
X38533Y110775D01*
X38587Y111067D01*
X38533Y111358D01*
X38373Y111608D01*
X38133Y111733D01*
X37867D01*
X37707Y111817D01*
X37573Y112025D01*
X37520Y112317D01*
X37600Y112608D01*
X37787Y112817D01*
X38000Y112900D01*
X38213Y112817D01*
X38400Y112608D01*
X38480Y112317D01*
X38427Y112025D01*
X38293Y111817D01*
X38133Y111733D01*
X37867D01*
X37627Y111608D01*
X37467Y111358D01*
X37413Y111067D01*
X37467Y110775D01*
X37600Y110567D01*
X37813Y110442D01*
X38000Y110400D01*
G01X56000Y62900D02*
X66000D01*
Y72900D01*
X56000D01*
Y62900D01*
G01X56500Y78200D02*
X66500D01*
Y88200D01*
X56500D01*
Y78200D01*
G01X49787Y122592D02*
X49627Y122717D01*
X49440Y122800D01*
X49227D01*
X48987Y122675D01*
X48800Y122467D01*
X48667Y122217D01*
X48560Y121800D01*
X48533Y121425D01*
X48587Y121050D01*
X48667Y120800D01*
X48827Y120550D01*
X49013Y120383D01*
X49200Y120300D01*
X49387D01*
X49573Y120383D01*
X49733Y120508D01*
X49867Y120675D01*
G01X51400Y120300D02*
Y122800D01*
X51080Y122300D01*
G01Y120300D02*
X51720D01*
G01X68300Y63700D02*
Y61200D01*
G01X67687Y63700D02*
X68913D01*
G01X69967Y61200D02*
Y63700D01*
X70607D01*
X70820Y63575D01*
X70980Y63283D01*
X71033Y62950D01*
X70980Y62617D01*
X70847Y62367D01*
X70607Y62242D01*
X69967D01*
G01X72113Y61700D02*
X72273Y61408D01*
X72487Y61242D01*
X72727Y61200D01*
X72940Y61242D01*
X73153Y61450D01*
X73287Y61700D01*
X73313Y61950D01*
X73260Y62242D01*
X73073Y62450D01*
X72887Y62533D01*
X72647D01*
G01X72887D02*
X73047Y62658D01*
X73180Y62867D01*
X73233Y63117D01*
X73180Y63367D01*
X73047Y63575D01*
X72807Y63700D01*
X72567Y63658D01*
X72327Y63492D01*
G01X68400Y79700D02*
Y77200D01*
G01X67787Y79700D02*
X69013D01*
G01X70067Y77200D02*
Y79700D01*
X70707D01*
X70920Y79575D01*
X71080Y79283D01*
X71133Y78950D01*
X71080Y78617D01*
X70947Y78367D01*
X70707Y78242D01*
X70067D01*
G01X72800Y77200D02*
Y79700D01*
X72480Y79200D01*
G01Y77200D02*
X73120D01*
G01X59013Y102100D02*
Y100308D01*
X59120Y99933D01*
X59333Y99683D01*
X59600Y99600D01*
X59867Y99683D01*
X60080Y99933D01*
X60187Y100308D01*
Y102100D01*
G01X61213Y99975D02*
X61373Y99767D01*
X61560Y99642D01*
X61800Y99600D01*
X62040Y99683D01*
X62227Y99850D01*
X62360Y100142D01*
X62387Y100475D01*
X62333Y100808D01*
X62200Y101017D01*
X62013Y101183D01*
X61827Y101225D01*
X61640Y101183D01*
X61400Y101017D01*
X61480Y102100D01*
X62200D01*
G01X85367Y14000D02*
X85500Y13750D01*
X85660Y13583D01*
X85847Y13500D01*
X86060Y13583D01*
X86220Y13750D01*
X86380Y14000D01*
X86433Y14333D01*
Y16000D01*
G01X87593Y15583D02*
X87753Y15833D01*
X87940Y15958D01*
X88153Y16000D01*
X88420Y15917D01*
X88607Y15708D01*
X88660Y15458D01*
X88633Y15208D01*
X88527Y15000D01*
X87993Y14583D01*
X87753Y14292D01*
X87593Y13875D01*
X87540Y13500D01*
X88660D01*
G01X96787Y42292D02*
X96627Y42417D01*
X96440Y42500D01*
X96227D01*
X95987Y42375D01*
X95800Y42167D01*
X95667Y41917D01*
X95560Y41500D01*
X95533Y41125D01*
X95587Y40750D01*
X95667Y40500D01*
X95827Y40250D01*
X96013Y40083D01*
X96200Y40000D01*
X96387D01*
X96573Y40083D01*
X96733Y40208D01*
X96867Y40375D01*
G01X97893Y42083D02*
X98053Y42333D01*
X98240Y42458D01*
X98453Y42500D01*
X98720Y42417D01*
X98907Y42208D01*
X98960Y41958D01*
X98933Y41708D01*
X98827Y41500D01*
X98293Y41083D01*
X98053Y40792D01*
X97893Y40375D01*
X97840Y40000D01*
X98960D01*
G01X95387Y71292D02*
X95227Y71417D01*
X95040Y71500D01*
X94827D01*
X94587Y71375D01*
X94400Y71167D01*
X94267Y70917D01*
X94160Y70500D01*
X94133Y70125D01*
X94187Y69750D01*
X94267Y69500D01*
X94427Y69250D01*
X94613Y69083D01*
X94800Y69000D01*
X94987D01*
X95173Y69083D01*
X95333Y69208D01*
X95467Y69375D01*
G01X97320Y69000D02*
Y71500D01*
X96333Y69708D01*
X97667D01*
G01X84767Y95400D02*
X84900Y95150D01*
X85060Y94983D01*
X85247Y94900D01*
X85460Y94983D01*
X85620Y95150D01*
X85780Y95400D01*
X85833Y95733D01*
Y97400D01*
G01X87500Y94900D02*
Y97400D01*
X87180Y96900D01*
G01Y94900D02*
X87820D01*
G54D11*
G01X-148050Y48703D02*
Y47697D01*
G01X-139050Y31089D02*
Y19711D01*
G01X-137350Y47397D02*
Y48403D01*
G01X-134850Y47397D02*
Y48403D01*
G01X-141750Y47697D02*
Y48703D01*
G01X-126703Y45950D02*
X-125697D01*
G01Y43450D02*
X-126703D01*
G01X-119850Y71486D02*
Y69914D01*
G01X-116750Y19711D02*
Y31089D01*
G01X-108150Y9400D02*
X-99250D01*
G01X-107050Y29914D02*
Y31486D01*
G01X-110950Y30014D02*
Y31586D01*
G01X-110303Y72250D02*
X-109297D01*
G01X-110103Y69250D02*
X-109097D01*
G01X-110003Y65650D02*
X-108997D01*
G01X-106250Y71486D02*
Y69914D01*
G01X-113950D02*
Y71486D01*
G01X-110403Y75750D02*
X-109397D01*
G01X-93350Y14397D02*
Y15403D01*
G01X-103050Y30214D02*
Y31786D01*
G01X-97950Y30314D02*
Y31886D01*
G01X-94250Y27797D02*
Y28803D01*
G01X-91350Y27797D02*
Y28803D01*
G01X-99650Y69814D02*
Y71386D01*
G01X-94250Y69814D02*
Y71386D01*
G01X-100350Y69914D02*
Y71486D01*
G01X-90450Y14397D02*
Y15403D01*
G01X-87175Y16521D02*
Y15079D01*
G01X-83025D02*
Y16521D01*
G01X-81250Y25800D02*
Y9800D01*
G01X-90200Y78000D02*
Y67000D01*
G01D02*
X-37200D01*
G01X-70750Y9800D02*
Y25800D01*
G01X-68776Y13916D02*
X-61788Y6633D01*
G01X-68776Y29484D02*
Y13916D01*
G01X-61788Y36767D02*
X-68776Y29484D01*
G01X-61788Y6633D02*
X-59941D01*
G01X-63153Y41750D02*
X-58647D01*
G01X-59941Y36767D02*
X-61788D01*
G01X-58647Y49050D02*
X-63153D01*
G01X-48659Y6633D02*
X-46812D01*
G01D02*
X-39824Y13916D01*
G01D02*
Y29484D01*
G01D02*
X-46812Y36767D01*
G01D02*
X-48659D01*
G01X-37200Y67000D02*
Y78000D01*
G01X-31250Y83297D02*
Y84303D01*
G01X-25850Y83297D02*
Y84303D01*
G01X-13800Y70129D02*
Y66600D01*
G01D02*
X-10271D01*
G01X-20272Y101564D02*
G02I-300J0D01*
G01X-10271Y107000D02*
X-13800D01*
G01D02*
Y103471D01*
G01X-4903Y41750D02*
X-3897D01*
G01X-4903Y45850D02*
X-3897D01*
G01X-5703Y51650D02*
X-4697D01*
G01X-5703Y57150D02*
X-4697D01*
G01X-9303Y113350D02*
X-8297D01*
G01X-9303Y118850D02*
X-8297D01*
G01X-650Y116100D02*
G02I-300J0D01*
G01X16303Y19650D02*
X15297D01*
G01X4400Y18400D02*
Y7400D01*
G01X57400Y18400D02*
X4400D01*
G01Y7400D02*
X57400D01*
G01X15297Y25150D02*
X16303D01*
G01X14950Y48897D02*
Y49903D01*
G01X23950Y22400D02*
G02I-300J0D01*
G01X25597Y50850D02*
X26603D01*
G01X25597Y56350D02*
X26603D01*
G01X19050Y48897D02*
Y49903D01*
G01X23071Y66600D02*
X26600D01*
G01D02*
Y70129D01*
G01Y103471D02*
Y107000D01*
G01D02*
X23071D01*
G01X34850Y103797D02*
Y104803D01*
G01X40350Y103797D02*
Y104803D01*
G01X56697Y124250D02*
X57703D01*
G01X56697Y118750D02*
X57703D01*
G01X48964Y125314D02*
X98764D01*
G01X48964Y148914D02*
Y125314D01*
G01X98764Y148914D02*
X48964D01*
G01X57400Y7400D02*
Y18400D01*
G01X81500Y16700D02*
X92500D01*
G01X81500Y49700D02*
Y16700D01*
G01X81300Y60100D02*
X92300D01*
G01X81300Y93100D02*
Y60100D01*
G01X92500Y49700D02*
X81500D01*
G01X92300Y93100D02*
X81300D01*
G01X92500Y16700D02*
Y49700D01*
G01X94750Y33597D02*
Y34603D01*
G01X92300Y60100D02*
Y93100D01*
G01X93950Y77497D02*
Y78503D01*
G01X97000Y85850D02*
G02I-300J0D01*
G01X100250Y33497D02*
Y34503D01*
G01X99450Y77497D02*
Y78503D01*
G01X98764Y125314D02*
Y148914D01*
G54D12*
G01X14965Y141352D02*
Y127848D01*
G01X40635D02*
Y141352D01*
G01X83942Y107457D02*
Y114543D01*
M02*
