G04 ================== begin FILE IDENTIFICATION RECORD ==================*
G04 Layout Name:  L:/SENIOR DESIGN/DESIGN 4/ALLEGRO V5/allegro/senior design v5.brd*
G04 Film Name:    BOATCREWMASK_BOT*
G04 File Format:  Gerber RS274X*
G04 File Origin:  Cadence Allegro 22.1-P001*
G04 Origin Date:  Fri May  9 17:41:07 2025*
G04 *
G04 Layer:  VIA CLASS/SOLDERMASK_BOTTOM*
G04 Layer:  PIN/SOLDERMASK_BOTTOM*
G04 Layer:  DRC ERROR CLASS/SOLDERMASK_BOTTOM*
G04 *
G04 Offset:    (0.00 0.00)*
G04 Mirror:    No*
G04 Mode:      Positive*
G04 Rotation:  0*
G04 FullContactRelief:  No*
G04 UndefLineWidth:     5.00*
G04 ================== end FILE IDENTIFICATION RECORD ====================*
%FSLAX25Y25*MOIN*%
%IR0*IPPOS*OFA0.00000B0.00000*MIA0B0*SFA1.00000B1.00000*%
%ADD12C,.044*%
%ADD13C,.068*%
%ADD14C,.069*%
%ADD10C,.07087*%
%ADD11C,.14173*%
%LPD*%
G75*
G54D10*
X-145200Y16100D03*
Y34900D03*
G54D11*
X-132600Y99600D03*
X-108400D03*
X61000Y67900D03*
X61500Y83200D03*
G54D12*
X-127900Y9500D03*
X-126200Y50470D03*
X-103300Y16000D03*
X-109000Y39300D03*
X-107900Y61800D03*
X-91200Y55000D03*
X-76000Y30300D03*
X-71400Y45400D03*
X-53700Y59000D03*
X-55900Y55000D03*
X-53700Y66600D03*
X-25700Y55000D03*
X-25200Y70600D03*
X-28600Y91000D03*
X-7950Y50100D03*
X-6050Y121500D03*
X9200Y115600D03*
X22300Y22400D03*
X23350Y49400D03*
X27800Y114600D03*
X43000Y101550D03*
X53600D03*
X54450Y117000D03*
X61400Y94500D03*
X66600Y114700D03*
X97500Y27400D03*
X96700Y86500D03*
G54D13*
X-83700Y72500D03*
X-63700D03*
X-73700D03*
X-53700D03*
X-43700D03*
X10900Y12900D03*
X30900D03*
X20900D03*
X40900D03*
X50900D03*
X87000Y23200D03*
Y33200D03*
Y43200D03*
X86800Y76600D03*
Y66600D03*
Y86600D03*
G54D14*
X59100Y139200D03*
X68942D03*
X78785D03*
X88628D03*
M02*
