G04 ================== begin FILE IDENTIFICATION RECORD ==================*
G04 Layout Name:  L:/ALLEGRO/allegro/senior design v4.brd*
G04 Film Name:    BOTL*
G04 File Format:  Gerber RS274X*
G04 File Origin:  Cadence Allegro 22.1-P001*
G04 Origin Date:  Thu May  1 14:29:46 2025*
G04 *
G04 Layer:  VIA CLASS/BOTTOM*
G04 Layer:  PIN/BOTTOM*
G04 Layer:  ETCH/BOTTOM*
G04 *
G04 Offset:    (0.00 0.00)*
G04 Mirror:    No*
G04 Mode:      Positive*
G04 Rotation:  0*
G04 FullContactRelief:  No*
G04 UndefLineWidth:     0.00*
G04 ================== end FILE IDENTIFICATION RECORD ====================*
%FSLAX25Y25*MOIN*%
%IR0*IPPOS*OFA0.00000B0.00000*MIA0B0*SFA1.00000B1.00000*%
%ADD13C,.06*%
%ADD11C,.024*%
%ADD14C,.069*%
%ADD10C,.06299*%
%ADD12C,.13386*%
%ADD15C,.012*%
%ADD20C,.03404*%
%ADD16C,.07004*%
%ADD19C,.07302*%
%ADD18C,.07904*%
%ADD17C,.1439*%
G75*
%LPD*%
G75*
G36*
G01X-150199Y151399D02*
X149799D01*
X149800Y4700D01*
X-150200Y4400D01*
X-150199Y151399D01*
G37*
%LPC*%
G75*
G36*
G01X85898Y42824D02*
Y43164D01*
X85868Y43213D01*
G02X85698Y43800I932J588D01*
G02X86800Y44902I1102J0D01*
G02X87579Y44579I0J-1101D01*
G01X87779Y44379D01*
G02X88102Y43600I-778J-779D01*
G01Y42824D01*
G02X90502Y39500I-1102J-3324D01*
G02X83498I-3502J0D01*
G02X85898Y42824I3502J0D01*
G37*
G36*
G01X-28202Y59697D02*
Y68603D01*
G02X-28802Y69900I1102J1297D01*
G02X-25398I1702J0D01*
G02X-25998Y68603I-1702J0D01*
G01Y59697D01*
G02X-25398Y58400I-1102J-1297D01*
G02X-28802I-1702J0D01*
G02X-28202Y59697I1702J0D01*
G37*
G36*
G01X10497Y114498D02*
G02X9200Y113898I-1297J1102D01*
G02Y117302I0J1702D01*
G02X10497Y116702I0J-1702D01*
G01X24303D01*
G02X25600Y117302I1297J-1102D01*
G02Y113898I0J-1702D01*
G02X24303Y114498I0J1702D01*
G01X10497D01*
G37*
G54D20*
X-123500Y11800D03*
G54D16*
X86800Y66600D03*
X-107700Y136400D03*
Y126400D03*
Y116400D03*
Y106400D03*
Y96400D03*
X86800Y86600D03*
Y76600D03*
X87000Y29500D03*
Y19500D03*
X50900Y12900D03*
X40900D03*
X20900D03*
X30900D03*
X10900D03*
G54D19*
X-144000Y37900D03*
X-144200Y9200D03*
G54D18*
X88628Y139200D03*
X78785D03*
X68942D03*
X59100D03*
G54D17*
X61000Y67900D03*
X61500Y83200D03*
X-103300Y52500D03*
X-125700Y52100D03*
%LPD*%
G75*
G54D10*
X-144200Y9200D03*
X-144000Y37900D03*
G54D11*
X-137400Y9200D03*
X-138250Y100800D03*
X-123500Y11800D03*
X-120000Y122100D03*
X-120500Y128600D03*
X-121400Y134500D03*
X-84900Y9800D03*
X-77000Y27100D03*
X-60800Y9600D03*
X-27100Y58400D03*
Y69900D03*
X-32350Y85550D03*
X-20100Y19800D03*
X-9600Y121500D03*
X-7950Y47750D03*
X18550Y26850D03*
X9200Y115600D03*
X8100Y134200D03*
X23350Y48150D03*
X25600Y115600D03*
X43200Y103700D03*
X71600Y95600D03*
X102850Y27550D03*
X101950Y80750D03*
G54D12*
X-125700Y52100D03*
X-103300Y52500D03*
X61000Y67900D03*
X61500Y83200D03*
G54D13*
X-107700Y96400D03*
Y106400D03*
Y116400D03*
Y126400D03*
Y136400D03*
X10900Y12900D03*
X30900D03*
X20900D03*
X40900D03*
X50900D03*
X87000Y19500D03*
Y29500D03*
Y39500D03*
X86800Y76600D03*
Y66600D03*
Y86600D03*
G54D14*
X59100Y139200D03*
X68942D03*
X78785D03*
X88628D03*
G54D15*
G01X-148052Y9200D02*
X-144200D01*
G01Y5348D02*
Y9200D01*
G01D02*
X-137400D01*
G01X-144200D02*
Y13052D01*
G01X-110695Y52500D02*
X-103300D01*
G01X-107700Y92698D02*
Y96400D01*
G01D02*
Y100102D01*
G01X-111402Y96400D02*
X-107700D01*
G01D02*
X-103998D01*
G01X-103300Y45105D02*
Y52500D01*
G01D02*
Y59895D01*
G01Y52500D02*
X-95905D01*
G01X-27100Y69900D02*
Y58400D01*
G01X25600Y115600D02*
X9200D01*
G01X20900Y9198D02*
Y12900D01*
G01D02*
Y16602D01*
G01X17198Y12900D02*
X20900D01*
G01D02*
X24602D01*
G01X54948Y139200D02*
X59100D01*
G01Y135048D02*
Y139200D01*
G01D02*
Y143352D01*
G01Y139200D02*
X63252D01*
G01X83298Y19500D02*
X87000D01*
G01X83098Y86600D02*
X86800D01*
G01X87000Y15798D02*
Y19500D01*
G01D02*
Y23202D01*
G01Y19500D02*
X90702D01*
G01X86800Y43800D02*
X87000Y43600D01*
Y39500D01*
G01X86800Y82898D02*
Y86600D01*
G01D02*
Y90302D01*
G01Y86600D02*
X90502D01*
M02*
