M48
INCH,TZ
T01C.013
T02C.02362
T03C.04
T04C.049
T05C.05512
;LEADER: 12 
;HEADER: 
;CODE  : ASCII 
;FILE  : senior design v4-1-2.drl for board L:/ALLEGRO/allegro/#Taaaaaq00904.tmp ... layers TOP and BOTTOM
;T01 Holesize 1. = 13.000000 Tolerance = +0.000000/-0.000000 PLATED MILS Quantity = 24
;T02 Holesize 2. = 23.620000 Tolerance = +0.000000/-0.000000 PLATED MILS Quantity = 2
;T03 Holesize 3. = 40.000000 Tolerance = +0.000000/-0.000000 PLATED MILS Quantity = 16
;T04 Holesize 4. = 49.000000 Tolerance = +0.000000/-0.000000 PLATED MILS Quantity = 4
;T05 Holesize 5. = 55.120000 Tolerance = +0.000000/-0.000000 PLATED MILS Quantity = 4
%
G90
T01
X-13740Y920
X-12350Y1180
X-8490Y980
X-7700Y2710
X-6080Y960
X-2710Y5840
X-2710Y6990
X-2010Y1980
X-795Y4775
X1855Y2685
X2335Y4815
X10285Y2755
X10195Y8075
X7160Y9560
X4320Y10370
X2560Y11560
X920Y11560
X810Y13420
X-960Y12150
X-3235Y8555
X-12000Y12210
X-12050Y12860
X-12140Y13450
X-13825Y10080
T02
X-14420Y920
X-14400Y3790
T03
X-10770Y9640
X-10770Y10640
X-10770Y11640
X-10770Y12640
X-10770Y13640
X1090Y1290
X2090Y1290
X3090Y1290
X4090Y1290
X5090Y1290
X8700Y1950
X8700Y2950
X8700Y3950
X8680Y6660
X8680Y7660
X8680Y8660
T04
X5910Y13920
X6894Y13920
X7879Y13920
X8863Y13920
T05
X-12570Y5210
X-10330Y5250
X6100Y6790
X6150Y8320
M30
