G04 ================== begin FILE IDENTIFICATION RECORD ==================*
G04 Layout Name:  L:/ALLEGRO/allegro/senior design v4.brd*
G04 Film Name:    BOATCREWSILK_TOP*
G04 File Format:  Gerber RS274X*
G04 File Origin:  Cadence Allegro 22.1-P001*
G04 Origin Date:  Thu May  1 15:41:34 2025*
G04 *
G04 Layer:  PACKAGE GEOMETRY/SILKSCREEN_TOP*
G04 Layer:  MANUFACTURING/AUTOSILK_TOP*
G04 *
G04 Offset:    (0.00 0.00)*
G04 Mirror:    No*
G04 Mode:      Positive*
G04 Rotation:  0*
G04 FullContactRelief:  No*
G04 UndefLineWidth:     5.00*
G04 ================== end FILE IDENTIFICATION RECORD ====================*
%FSLAX25Y25*MOIN*%
%IR0*IPPOS*OFA0.00000B0.00000*MIA0B0*SFA1.00000B1.00000*%
%ADD10C,.02*%
%ADD11C,.005*%
%ADD12C,.006*%
%ADD13C,.00787*%
G75*
%LPD*%
G75*
G36*
G01X-20588Y84597D02*
Y83097D01*
X-19588D01*
Y84597D01*
X-20588D01*
G37*
G36*
G01X-3208Y60812D02*
Y59812D01*
X-1708D01*
Y60812D01*
X-3208D01*
G37*
G36*
G01X-1240Y112788D02*
Y113788D01*
X260D01*
Y112788D01*
X-1240D01*
G37*
G36*
G01X16477Y60812D02*
Y59812D01*
X17977D01*
Y60812D01*
X16477D01*
G37*
G36*
G01X18445Y112788D02*
Y113788D01*
X19945D01*
Y112788D01*
X18445D01*
G37*
G36*
G01X33388Y86566D02*
Y85066D01*
X32388D01*
Y86566D01*
X33388D01*
G37*
G54D10*
G01X-106200Y149900D02*
G02I-1500J0D01*
G01X-1100Y12900D02*
G02I-1500J0D01*
G01X47964Y139200D02*
G02I-1500J0D01*
G01X88500Y48500D02*
G02I-1500J0D01*
G01X88300Y57600D02*
G02I-1500J0D01*
G54D11*
G01X-149220Y4180D02*
X-139180D01*
Y14220D01*
X-149220D01*
Y4180D01*
G01X-149020Y32880D02*
X-138980D01*
Y42920D01*
X-149020D01*
Y32880D01*
G01X-148787Y44833D02*
X-148680Y44958D01*
X-148600Y45167D01*
X-148547Y45458D01*
X-148600Y45708D01*
X-148707Y45875D01*
X-148893Y46000D01*
X-149613D01*
Y43500D01*
X-148733D01*
X-148547Y43667D01*
X-148440Y43917D01*
X-148387Y44208D01*
X-148440Y44500D01*
X-148600Y44750D01*
X-148787Y44833D01*
X-149613D01*
G01X-146320Y43500D02*
Y45167D01*
G01Y44875D02*
X-146427Y45042D01*
X-146587Y45125D01*
X-146773Y45167D01*
X-146960Y45083D01*
X-147120Y44917D01*
X-147227Y44667D01*
X-147280Y44333D01*
X-147227Y44000D01*
X-147120Y43750D01*
X-146960Y43583D01*
X-146773Y43500D01*
X-146587Y43542D01*
X-146427Y43667D01*
X-146320Y43833D01*
G01X-144600Y46000D02*
Y43500D01*
G01X-144973Y45167D02*
X-144227D01*
G01X-142400Y46000D02*
Y43500D01*
G01X-142773Y45167D02*
X-142027D01*
G01X-140600Y44625D02*
X-139747D01*
X-139827Y44917D01*
X-139960Y45083D01*
X-140147Y45167D01*
X-140333Y45125D01*
X-140493Y45000D01*
X-140600Y44708D01*
X-140653Y44458D01*
Y44208D01*
X-140600Y43958D01*
X-140467Y43708D01*
X-140307Y43542D01*
X-140120Y43500D01*
X-139933Y43583D01*
X-139747Y43833D01*
G01X-138373Y43500D02*
Y45167D01*
G01Y44833D02*
X-138240Y45000D01*
X-138107Y45125D01*
X-137920Y45167D01*
X-137787Y45125D01*
X-137627Y45000D01*
G01X-136360Y42750D02*
X-136200Y42667D01*
X-135987Y42750D01*
X-135853Y42917D01*
X-135747Y43125D01*
X-135587Y43792D01*
X-135240Y45167D01*
G01X-136093D02*
X-135587Y43792D01*
G01X-133893Y44333D02*
X-133253D01*
G01X-133600Y44875D02*
Y43792D01*
G01X-145213Y111792D02*
X-145373Y111917D01*
X-145560Y112000D01*
X-145773D01*
X-146013Y111875D01*
X-146200Y111667D01*
X-146333Y111417D01*
X-146440Y111000D01*
X-146467Y110625D01*
X-146413Y110250D01*
X-146333Y110000D01*
X-146173Y109750D01*
X-145987Y109583D01*
X-145800Y109500D01*
X-145613D01*
X-145427Y109583D01*
X-145267Y109708D01*
X-145133Y109875D01*
G01X-144107Y111583D02*
X-143947Y111833D01*
X-143760Y111958D01*
X-143547Y112000D01*
X-143280Y111917D01*
X-143093Y111708D01*
X-143040Y111458D01*
X-143067Y111208D01*
X-143173Y111000D01*
X-143707Y110583D01*
X-143947Y110292D01*
X-144107Y109875D01*
X-144160Y109500D01*
X-143040D01*
G01X-141400Y112000D02*
X-141613Y111917D01*
X-141773Y111708D01*
X-141880Y111458D01*
X-141960Y111125D01*
X-141987Y110750D01*
X-141960Y110375D01*
X-141880Y110042D01*
X-141773Y109792D01*
X-141613Y109583D01*
X-141400Y109500D01*
X-141187Y109583D01*
X-141027Y109792D01*
X-140920Y110042D01*
X-140840Y110375D01*
X-140813Y110750D01*
X-140840Y111125D01*
X-140920Y111458D01*
X-141027Y111708D01*
X-141187Y111917D01*
X-141400Y112000D01*
G01X-144907Y130983D02*
X-145287Y131233D01*
X-145730Y131400D01*
X-146237D01*
X-146807Y131150D01*
X-147250Y130733D01*
X-147567Y130233D01*
X-147820Y129400D01*
X-147883Y128650D01*
X-147757Y127900D01*
X-147567Y127400D01*
X-147187Y126900D01*
X-146743Y126567D01*
X-146300Y126400D01*
X-145857D01*
X-145413Y126567D01*
X-145033Y126817D01*
X-144717Y127150D01*
G01X-142403Y130567D02*
X-142023Y131067D01*
X-141580Y131317D01*
X-141073Y131400D01*
X-140440Y131233D01*
X-139997Y130817D01*
X-139870Y130317D01*
X-139933Y129817D01*
X-140187Y129400D01*
X-141453Y128567D01*
X-142023Y127983D01*
X-142403Y127150D01*
X-142530Y126400D01*
X-139870D01*
G01X-137303Y130567D02*
X-136923Y131067D01*
X-136480Y131317D01*
X-135973Y131400D01*
X-135340Y131233D01*
X-134897Y130817D01*
X-134770Y130317D01*
X-134833Y129817D01*
X-135087Y129400D01*
X-136353Y128567D01*
X-136923Y127983D01*
X-137303Y127150D01*
X-137430Y126400D01*
X-134770D01*
G01X-134487Y6833D02*
X-134380Y6958D01*
X-134300Y7167D01*
X-134247Y7458D01*
X-134300Y7708D01*
X-134407Y7875D01*
X-134593Y8000D01*
X-135313D01*
Y5500D01*
X-134433D01*
X-134247Y5667D01*
X-134140Y5917D01*
X-134087Y6208D01*
X-134140Y6500D01*
X-134300Y6750D01*
X-134487Y6833D01*
X-135313D01*
G01X-132020Y5500D02*
Y7167D01*
G01Y6875D02*
X-132127Y7042D01*
X-132287Y7125D01*
X-132473Y7167D01*
X-132660Y7083D01*
X-132820Y6917D01*
X-132927Y6667D01*
X-132980Y6333D01*
X-132927Y6000D01*
X-132820Y5750D01*
X-132660Y5583D01*
X-132473Y5500D01*
X-132287Y5542D01*
X-132127Y5667D01*
X-132020Y5833D01*
G01X-130300Y8000D02*
Y5500D01*
G01X-130673Y7167D02*
X-129927D01*
G01X-128100Y8000D02*
Y5500D01*
G01X-128473Y7167D02*
X-127727D01*
G01X-126300Y6625D02*
X-125447D01*
X-125527Y6917D01*
X-125660Y7083D01*
X-125847Y7167D01*
X-126033Y7125D01*
X-126193Y7000D01*
X-126300Y6708D01*
X-126353Y6458D01*
Y6208D01*
X-126300Y5958D01*
X-126167Y5708D01*
X-126007Y5542D01*
X-125820Y5500D01*
X-125633Y5583D01*
X-125447Y5833D01*
G01X-124073Y5500D02*
Y7167D01*
G01Y6833D02*
X-123940Y7000D01*
X-123807Y7125D01*
X-123620Y7167D01*
X-123487Y7125D01*
X-123327Y7000D01*
G01X-122060Y4750D02*
X-121900Y4667D01*
X-121687Y4750D01*
X-121553Y4917D01*
X-121447Y5125D01*
X-121287Y5792D01*
X-120940Y7167D01*
G01X-121793D02*
X-121287Y5792D01*
G01X-119647Y6333D02*
X-118953D01*
G01X-142533Y106000D02*
Y103500D01*
X-141467D01*
G01X-139480D02*
Y106000D01*
X-140467Y104208D01*
X-139133D01*
G01X-137813Y123792D02*
X-137973Y123917D01*
X-138160Y124000D01*
X-138373D01*
X-138613Y123875D01*
X-138800Y123667D01*
X-138933Y123417D01*
X-139040Y123000D01*
X-139067Y122625D01*
X-139013Y122250D01*
X-138933Y122000D01*
X-138773Y121750D01*
X-138587Y121583D01*
X-138400Y121500D01*
X-138213D01*
X-138027Y121583D01*
X-137867Y121708D01*
X-137733Y121875D01*
G01X-136707Y123583D02*
X-136547Y123833D01*
X-136360Y123958D01*
X-136147Y124000D01*
X-135880Y123917D01*
X-135693Y123708D01*
X-135640Y123458D01*
X-135667Y123208D01*
X-135773Y123000D01*
X-136307Y122583D01*
X-136547Y122292D01*
X-136707Y121875D01*
X-136760Y121500D01*
X-135640D01*
G01X-134000D02*
Y124000D01*
X-134320Y123500D01*
G01Y121500D02*
X-133680D01*
G01X-141533Y118100D02*
Y115600D01*
X-140467D01*
G01X-139387Y116100D02*
X-139227Y115808D01*
X-139013Y115642D01*
X-138773Y115600D01*
X-138560Y115642D01*
X-138347Y115850D01*
X-138213Y116100D01*
X-138187Y116350D01*
X-138240Y116642D01*
X-138427Y116850D01*
X-138613Y116933D01*
X-138853D01*
G01X-138613D02*
X-138453Y117058D01*
X-138320Y117267D01*
X-138267Y117517D01*
X-138320Y117767D01*
X-138453Y117975D01*
X-138693Y118100D01*
X-138933Y118058D01*
X-139173Y117892D01*
G01X-135513Y136392D02*
X-135673Y136517D01*
X-135860Y136600D01*
X-136073D01*
X-136313Y136475D01*
X-136500Y136267D01*
X-136633Y136017D01*
X-136740Y135600D01*
X-136767Y135225D01*
X-136713Y134850D01*
X-136633Y134600D01*
X-136473Y134350D01*
X-136287Y134183D01*
X-136100Y134100D01*
X-135913D01*
X-135727Y134183D01*
X-135567Y134308D01*
X-135433Y134475D01*
G01X-134407Y136183D02*
X-134247Y136433D01*
X-134060Y136558D01*
X-133847Y136600D01*
X-133580Y136517D01*
X-133393Y136308D01*
X-133340Y136058D01*
X-133367Y135808D01*
X-133473Y135600D01*
X-134007Y135183D01*
X-134247Y134892D01*
X-134407Y134475D01*
X-134460Y134100D01*
X-133340D01*
G01X-132287Y134600D02*
X-132127Y134308D01*
X-131913Y134142D01*
X-131673Y134100D01*
X-131460Y134142D01*
X-131247Y134350D01*
X-131113Y134600D01*
X-131087Y134850D01*
X-131140Y135142D01*
X-131327Y135350D01*
X-131513Y135433D01*
X-131753D01*
G01X-131513D02*
X-131353Y135558D01*
X-131220Y135767D01*
X-131167Y136017D01*
X-131220Y136267D01*
X-131353Y136475D01*
X-131593Y136600D01*
X-131833Y136558D01*
X-132073Y136392D01*
G01X-125513Y29792D02*
X-125673Y29917D01*
X-125860Y30000D01*
X-126073D01*
X-126313Y29875D01*
X-126500Y29667D01*
X-126633Y29417D01*
X-126740Y29000D01*
X-126767Y28625D01*
X-126713Y28250D01*
X-126633Y28000D01*
X-126473Y27750D01*
X-126287Y27583D01*
X-126100Y27500D01*
X-125913D01*
X-125727Y27583D01*
X-125567Y27708D01*
X-125433Y27875D01*
G01X-124220Y30000D02*
X-123580D01*
G01X-123900D02*
Y27500D01*
G01X-124220D02*
X-123580D01*
G01X-122313D02*
Y30000D01*
X-121087Y27500D01*
Y30000D01*
G01X-130700Y47100D02*
X-120700D01*
Y57100D01*
X-130700D01*
Y47100D01*
G01X-126800Y63900D02*
Y61400D01*
G01X-127413Y63900D02*
X-126187D01*
G01X-125133Y61400D02*
Y63900D01*
X-124493D01*
X-124280Y63775D01*
X-124120Y63483D01*
X-124067Y63150D01*
X-124120Y62817D01*
X-124253Y62567D01*
X-124493Y62442D01*
X-125133D01*
G01X-122080Y61400D02*
Y63900D01*
X-123067Y62108D01*
X-121733D01*
G01X-108133Y41900D02*
Y44400D01*
X-107467D01*
X-107253Y44275D01*
X-107120Y44108D01*
X-107067Y43775D01*
X-107120Y43442D01*
X-107280Y43233D01*
X-107467Y43108D01*
X-108133D01*
G01X-107467D02*
X-107067Y41900D01*
G01X-105080D02*
Y44400D01*
X-106067Y42608D01*
X-104733D01*
G01X-104200Y63800D02*
Y61300D01*
G01X-104813Y63800D02*
X-103587D01*
G01X-102533Y61300D02*
Y63800D01*
X-101893D01*
X-101680Y63675D01*
X-101520Y63383D01*
X-101467Y63050D01*
X-101520Y62717D01*
X-101653Y62467D01*
X-101893Y62342D01*
X-102533D01*
G01X-100387Y61675D02*
X-100227Y61467D01*
X-100040Y61342D01*
X-99800Y61300D01*
X-99560Y61383D01*
X-99373Y61550D01*
X-99240Y61842D01*
X-99213Y62175D01*
X-99267Y62508D01*
X-99400Y62717D01*
X-99587Y62883D01*
X-99773Y62925D01*
X-99960Y62883D01*
X-100200Y62717D01*
X-100120Y63800D01*
X-99400D01*
G01X-108300Y47500D02*
X-98300D01*
Y57500D01*
X-108300D01*
Y47500D01*
G01X-116600Y108567D02*
X-114100D01*
Y109633D01*
G01Y111300D02*
X-114142Y111087D01*
X-114308Y110900D01*
X-114558Y110740D01*
X-114850Y110633D01*
X-115183Y110580D01*
X-115517D01*
X-115850Y110633D01*
X-116142Y110740D01*
X-116392Y110900D01*
X-116558Y111087D01*
X-116600Y111300D01*
X-116558Y111513D01*
X-116392Y111700D01*
X-116142Y111860D01*
X-115850Y111967D01*
X-115517Y112020D01*
X-115183D01*
X-114850Y111967D01*
X-114558Y111860D01*
X-114308Y111700D01*
X-114142Y111513D01*
X-114100Y111300D01*
G01Y112967D02*
X-116600D01*
Y113633D01*
X-116475Y113847D01*
X-116308Y113980D01*
X-115975Y114033D01*
X-115642Y113980D01*
X-115433Y113820D01*
X-115308Y113633D01*
Y112967D01*
G01Y113633D02*
X-114100Y114033D01*
G01Y115033D02*
X-116600Y115700D01*
X-114100Y116367D01*
G01X-114975Y116127D02*
Y115273D01*
G01X-114100Y117207D02*
X-116600D01*
X-114517Y117900D01*
X-116600Y118593D01*
X-114100D01*
G01Y120100D02*
X-114142Y119887D01*
X-114308Y119700D01*
X-114558Y119540D01*
X-114850Y119433D01*
X-115183Y119380D01*
X-115517D01*
X-115850Y119433D01*
X-116142Y119540D01*
X-116392Y119700D01*
X-116558Y119887D01*
X-116600Y120100D01*
X-116558Y120313D01*
X-116392Y120500D01*
X-116142Y120660D01*
X-115850Y120767D01*
X-115517Y120820D01*
X-115183D01*
X-114850Y120767D01*
X-114558Y120660D01*
X-114308Y120500D01*
X-114142Y120313D01*
X-114100Y120100D01*
G01Y121713D02*
X-116600D01*
Y122247D01*
X-116475Y122460D01*
X-116308Y122620D01*
X-116058Y122753D01*
X-115767Y122860D01*
X-115350Y122887D01*
X-114933Y122860D01*
X-114642Y122753D01*
X-114392Y122620D01*
X-114225Y122460D01*
X-114100Y122247D01*
Y121713D01*
G01X-116600Y123913D02*
X-114808D01*
X-114433Y124020D01*
X-114183Y124233D01*
X-114100Y124500D01*
X-114183Y124767D01*
X-114433Y124980D01*
X-114808Y125087D01*
X-116600D01*
G01Y126167D02*
X-114100D01*
Y127233D01*
G01Y129433D02*
Y128367D01*
X-116600D01*
Y129433D01*
G01X-115392Y129007D02*
Y128367D01*
G01X-100433Y18700D02*
Y21200D01*
X-99767D01*
X-99553Y21075D01*
X-99420Y20908D01*
X-99367Y20575D01*
X-99420Y20242D01*
X-99580Y20033D01*
X-99767Y19908D01*
X-100433D01*
G01X-99767D02*
X-99367Y18700D01*
G01X-98207Y19742D02*
X-98020Y20033D01*
X-97860Y20200D01*
X-97647Y20283D01*
X-97460Y20200D01*
X-97327Y20033D01*
X-97220Y19783D01*
X-97193Y19492D01*
X-97220Y19242D01*
X-97327Y18992D01*
X-97487Y18783D01*
X-97673Y18700D01*
X-97887Y18783D01*
X-98073Y19033D01*
X-98180Y19408D01*
X-98207Y19825D01*
X-98153Y20367D01*
X-98073Y20658D01*
X-97940Y20950D01*
X-97753Y21158D01*
X-97567Y21200D01*
X-97380Y21117D01*
X-97247Y20908D01*
G01X-94618Y39873D02*
X-91832Y43540D01*
G01X-93225Y44207D02*
Y39207D01*
G01X-91832Y39873D02*
X-94618Y43540D01*
G01X-95125Y41707D02*
X-91325D01*
G01X-94618Y39873D02*
X-91832Y43540D01*
G01X-93225Y44207D02*
Y39207D01*
G01X-91832Y39873D02*
X-94618Y43540D01*
G01X-95125Y41707D02*
X-91325D01*
G01X-90443Y29600D02*
Y26017D01*
X-90190Y25267D01*
X-89683Y24767D01*
X-89050Y24600D01*
X-88417Y24767D01*
X-87910Y25267D01*
X-87657Y26017D01*
Y29600D01*
G01X-85153Y26683D02*
X-84710Y27267D01*
X-84330Y27600D01*
X-83823Y27767D01*
X-83380Y27600D01*
X-83063Y27267D01*
X-82810Y26767D01*
X-82747Y26183D01*
X-82810Y25683D01*
X-83063Y25183D01*
X-83443Y24767D01*
X-83887Y24600D01*
X-84393Y24767D01*
X-84837Y25267D01*
X-85090Y26017D01*
X-85153Y26850D01*
X-85027Y27933D01*
X-84837Y28517D01*
X-84520Y29100D01*
X-84077Y29517D01*
X-83633Y29600D01*
X-83190Y29433D01*
X-82873Y29017D01*
G01X-87933Y38900D02*
Y41400D01*
X-87267D01*
X-87053Y41275D01*
X-86920Y41108D01*
X-86867Y40775D01*
X-86920Y40442D01*
X-87080Y40233D01*
X-87267Y40108D01*
X-87933D01*
G01X-87267D02*
X-86867Y38900D01*
G01X-85707Y40983D02*
X-85547Y41233D01*
X-85360Y41358D01*
X-85147Y41400D01*
X-84880Y41317D01*
X-84693Y41108D01*
X-84640Y40858D01*
X-84667Y40608D01*
X-84773Y40400D01*
X-85307Y39983D01*
X-85547Y39692D01*
X-85707Y39275D01*
X-85760Y38900D01*
X-84640D01*
G01X-74033Y31300D02*
Y33800D01*
X-73367D01*
X-73153Y33675D01*
X-73020Y33508D01*
X-72967Y33175D01*
X-73020Y32842D01*
X-73180Y32633D01*
X-73367Y32508D01*
X-74033D01*
G01X-73367D02*
X-72967Y31300D01*
G01X-71887Y31800D02*
X-71727Y31508D01*
X-71513Y31342D01*
X-71273Y31300D01*
X-71060Y31342D01*
X-70847Y31550D01*
X-70713Y31800D01*
X-70687Y32050D01*
X-70740Y32342D01*
X-70927Y32550D01*
X-71113Y32633D01*
X-71353D01*
G01X-71113D02*
X-70953Y32758D01*
X-70820Y32967D01*
X-70767Y33217D01*
X-70820Y33467D01*
X-70953Y33675D01*
X-71193Y33800D01*
X-71433Y33758D01*
X-71673Y33592D01*
G01X-66113D02*
X-66273Y33717D01*
X-66460Y33800D01*
X-66673D01*
X-66913Y33675D01*
X-67100Y33467D01*
X-67233Y33217D01*
X-67340Y32800D01*
X-67367Y32425D01*
X-67313Y32050D01*
X-67233Y31800D01*
X-67073Y31550D01*
X-66887Y31383D01*
X-66700Y31300D01*
X-66513D01*
X-66327Y31383D01*
X-66167Y31508D01*
X-66033Y31675D01*
G01X-64500Y31300D02*
Y33800D01*
X-64820Y33300D01*
G01Y31300D02*
X-64180D01*
G01X-62807Y33383D02*
X-62647Y33633D01*
X-62460Y33758D01*
X-62247Y33800D01*
X-61980Y33717D01*
X-61793Y33508D01*
X-61740Y33258D01*
X-61767Y33008D01*
X-61873Y32800D01*
X-62407Y32383D01*
X-62647Y32092D01*
X-62807Y31675D01*
X-62860Y31300D01*
X-61740D01*
G01X-74433Y46100D02*
Y48600D01*
X-73767D01*
X-73553Y48475D01*
X-73420Y48308D01*
X-73367Y47975D01*
X-73420Y47642D01*
X-73580Y47433D01*
X-73767Y47308D01*
X-74433D01*
G01X-73767D02*
X-73367Y46100D01*
G01X-71700D02*
Y48600D01*
X-72020Y48100D01*
G01Y46100D02*
X-71380D01*
G01X-66213Y50792D02*
X-66373Y50917D01*
X-66560Y51000D01*
X-66773D01*
X-67013Y50875D01*
X-67200Y50667D01*
X-67333Y50417D01*
X-67440Y50000D01*
X-67467Y49625D01*
X-67413Y49250D01*
X-67333Y49000D01*
X-67173Y48750D01*
X-66987Y48583D01*
X-66800Y48500D01*
X-66613D01*
X-66427Y48583D01*
X-66267Y48708D01*
X-66133Y48875D01*
G01X-64600Y48500D02*
Y51000D01*
X-64920Y50500D01*
G01Y48500D02*
X-64280D01*
G01X-62080D02*
Y51000D01*
X-63067Y49208D01*
X-61733D01*
G01X-59893Y17800D02*
Y22800D01*
X-58627D01*
X-58120Y22550D01*
X-57740Y22217D01*
X-57423Y21717D01*
X-57170Y21133D01*
X-57107Y20300D01*
X-57170Y19467D01*
X-57423Y18883D01*
X-57740Y18383D01*
X-58120Y18050D01*
X-58627Y17800D01*
X-59893D01*
G01X-54603Y21967D02*
X-54223Y22467D01*
X-53780Y22717D01*
X-53273Y22800D01*
X-52640Y22633D01*
X-52197Y22217D01*
X-52070Y21717D01*
X-52133Y21217D01*
X-52387Y20800D01*
X-53653Y19967D01*
X-54223Y19383D01*
X-54603Y18550D01*
X-54730Y17800D01*
X-52070D01*
G01X-48300D02*
Y22800D01*
X-49060Y21800D01*
G01Y17800D02*
X-47540D01*
G01X-58133Y34100D02*
Y31600D01*
X-57067D01*
G01X-55400D02*
Y34100D01*
X-55720Y33600D01*
G01Y31600D02*
X-55080D01*
G01X-45813Y41392D02*
X-45973Y41517D01*
X-46160Y41600D01*
X-46373D01*
X-46613Y41475D01*
X-46800Y41267D01*
X-46933Y41017D01*
X-47040Y40600D01*
X-47067Y40225D01*
X-47013Y39850D01*
X-46933Y39600D01*
X-46773Y39350D01*
X-46587Y39183D01*
X-46400Y39100D01*
X-46213D01*
X-46027Y39183D01*
X-45867Y39308D01*
X-45733Y39475D01*
G01X-44200Y39100D02*
X-44413Y39142D01*
X-44600Y39308D01*
X-44760Y39558D01*
X-44867Y39850D01*
X-44920Y40183D01*
Y40517D01*
X-44867Y40850D01*
X-44760Y41142D01*
X-44600Y41392D01*
X-44413Y41558D01*
X-44200Y41600D01*
X-43987Y41558D01*
X-43800Y41392D01*
X-43640Y41142D01*
X-43533Y40850D01*
X-43480Y40517D01*
Y40183D01*
X-43533Y39850D01*
X-43640Y39558D01*
X-43800Y39308D01*
X-43987Y39142D01*
X-44200Y39100D01*
G01X-42587Y41600D02*
Y39808D01*
X-42480Y39433D01*
X-42267Y39183D01*
X-42000Y39100D01*
X-41733Y39183D01*
X-41520Y39433D01*
X-41413Y39808D01*
Y41600D01*
G01X-39800D02*
Y39100D01*
G01X-40413Y41600D02*
X-39187D01*
G01X-34513Y41092D02*
X-34673Y41217D01*
X-34860Y41300D01*
X-35073D01*
X-35313Y41175D01*
X-35500Y40967D01*
X-35633Y40717D01*
X-35740Y40300D01*
X-35767Y39925D01*
X-35713Y39550D01*
X-35633Y39300D01*
X-35473Y39050D01*
X-35287Y38883D01*
X-35100Y38800D01*
X-34913D01*
X-34727Y38883D01*
X-34567Y39008D01*
X-34433Y39175D01*
G01X-32900Y38800D02*
X-33113Y38842D01*
X-33300Y39008D01*
X-33460Y39258D01*
X-33567Y39550D01*
X-33620Y39883D01*
Y40217D01*
X-33567Y40550D01*
X-33460Y40842D01*
X-33300Y41092D01*
X-33113Y41258D01*
X-32900Y41300D01*
X-32687Y41258D01*
X-32500Y41092D01*
X-32340Y40842D01*
X-32233Y40550D01*
X-32180Y40217D01*
Y39883D01*
X-32233Y39550D01*
X-32340Y39258D01*
X-32500Y39008D01*
X-32687Y38842D01*
X-32900Y38800D01*
G01X-31287Y41300D02*
Y39508D01*
X-31180Y39133D01*
X-30967Y38883D01*
X-30700Y38800D01*
X-30433Y38883D01*
X-30220Y39133D01*
X-30113Y39508D01*
Y41300D01*
G01X-28500D02*
Y38800D01*
G01X-29113Y41300D02*
X-27887D01*
G01X-26300Y38800D02*
Y41300D01*
X-26620Y40800D01*
G01Y38800D02*
X-25980D01*
G01X-31357Y95783D02*
X-31737Y96033D01*
X-32180Y96200D01*
X-32687D01*
X-33257Y95950D01*
X-33700Y95533D01*
X-34017Y95033D01*
X-34270Y94200D01*
X-34333Y93450D01*
X-34207Y92700D01*
X-34017Y92200D01*
X-33637Y91700D01*
X-33193Y91367D01*
X-32750Y91200D01*
X-32307D01*
X-31863Y91367D01*
X-31483Y91617D01*
X-31167Y91950D01*
G01X-28727Y91783D02*
X-28283Y91367D01*
X-27777Y91200D01*
X-27270Y91367D01*
X-26827Y91867D01*
X-26510Y92617D01*
X-26383Y93367D01*
Y94283D01*
X-26510Y95033D01*
X-26827Y95700D01*
X-27207Y96033D01*
X-27650Y96200D01*
X-28157Y96033D01*
X-28537Y95700D01*
X-28790Y95200D01*
X-28917Y94533D01*
X-28790Y93950D01*
X-28473Y93367D01*
X-28093Y93033D01*
X-27650Y92950D01*
X-27143Y93117D01*
X-26763Y93533D01*
X-26383Y94283D01*
G01X-21513Y40392D02*
X-21673Y40517D01*
X-21860Y40600D01*
X-22073D01*
X-22313Y40475D01*
X-22500Y40267D01*
X-22633Y40017D01*
X-22740Y39600D01*
X-22767Y39225D01*
X-22713Y38850D01*
X-22633Y38600D01*
X-22473Y38350D01*
X-22287Y38183D01*
X-22100Y38100D01*
X-21913D01*
X-21727Y38183D01*
X-21567Y38308D01*
X-21433Y38475D01*
G01X-19900Y38100D02*
Y40600D01*
X-20220Y40100D01*
G01Y38100D02*
X-19580D01*
G01X-17700Y40600D02*
X-17913Y40517D01*
X-18073Y40308D01*
X-18180Y40058D01*
X-18260Y39725D01*
X-18287Y39350D01*
X-18260Y38975D01*
X-18180Y38642D01*
X-18073Y38392D01*
X-17913Y38183D01*
X-17700Y38100D01*
X-17487Y38183D01*
X-17327Y38392D01*
X-17220Y38642D01*
X-17140Y38975D01*
X-17113Y39350D01*
X-17140Y39725D01*
X-17220Y40058D01*
X-17327Y40308D01*
X-17487Y40517D01*
X-17700Y40600D01*
G01X-18957Y118483D02*
X-19337Y118733D01*
X-19780Y118900D01*
X-20287D01*
X-20857Y118650D01*
X-21300Y118233D01*
X-21617Y117733D01*
X-21870Y116900D01*
X-21933Y116150D01*
X-21807Y115400D01*
X-21617Y114900D01*
X-21237Y114400D01*
X-20793Y114067D01*
X-20350Y113900D01*
X-19907D01*
X-19463Y114067D01*
X-19083Y114317D01*
X-18767Y114650D01*
G01X-15377Y113900D02*
X-15250Y114983D01*
X-15060Y115900D01*
X-14807Y116733D01*
X-14490Y117650D01*
X-13983Y118900D01*
X-16517D01*
G01X-2857Y52983D02*
X-3237Y53233D01*
X-3680Y53400D01*
X-4187D01*
X-4757Y53150D01*
X-5200Y52733D01*
X-5517Y52233D01*
X-5770Y51400D01*
X-5833Y50650D01*
X-5707Y49900D01*
X-5517Y49400D01*
X-5137Y48900D01*
X-4693Y48567D01*
X-4250Y48400D01*
X-3807D01*
X-3363Y48567D01*
X-2983Y48817D01*
X-2667Y49150D01*
G01X-353Y50483D02*
X90Y51067D01*
X470Y51400D01*
X977Y51567D01*
X1420Y51400D01*
X1737Y51067D01*
X1990Y50567D01*
X2053Y49983D01*
X1990Y49483D01*
X1737Y48983D01*
X1357Y48567D01*
X913Y48400D01*
X407Y48567D01*
X-37Y49067D01*
X-290Y49817D01*
X-353Y50650D01*
X-227Y51733D01*
X-37Y52317D01*
X280Y52900D01*
X723Y53317D01*
X1167Y53400D01*
X1610Y53233D01*
X1927Y52817D01*
G01X-7467Y140400D02*
X-7150Y139900D01*
X-6770Y139567D01*
X-6327Y139400D01*
X-5820Y139567D01*
X-5440Y139900D01*
X-5060Y140400D01*
X-4933Y141067D01*
Y144400D01*
G01X-1100D02*
Y139400D01*
G01X-2557Y144400D02*
X357D01*
G01X2417Y139400D02*
X4000Y144400D01*
X5583Y139400D01*
G01X5013Y141150D02*
X2987D01*
G01X9480Y141900D02*
X10747D01*
Y140400D01*
X10367Y139900D01*
X9923Y139567D01*
X9290Y139400D01*
X8657Y139567D01*
X8213Y139900D01*
X7833Y140400D01*
X7580Y140983D01*
X7453Y141650D01*
Y142233D01*
X7580Y142733D01*
X7833Y143317D01*
X8213Y143817D01*
X8593Y144150D01*
X9100Y144400D01*
X9543D01*
X10050Y144233D01*
X10430Y143900D01*
G01X10880Y12900D02*
X12147D01*
Y11400D01*
X11767Y10900D01*
X11323Y10567D01*
X10690Y10400D01*
X10057Y10567D01*
X9613Y10900D01*
X9233Y11400D01*
X8980Y11983D01*
X8853Y12650D01*
Y13233D01*
X8980Y13733D01*
X9233Y14317D01*
X9613Y14817D01*
X9993Y15150D01*
X10500Y15400D01*
X10943D01*
X11450Y15233D01*
X11830Y14900D01*
G01X14333Y10400D02*
Y15400D01*
X15853D01*
X16360Y15150D01*
X16740Y14567D01*
X16867Y13900D01*
X16740Y13233D01*
X16423Y12733D01*
X15853Y12483D01*
X14333D01*
G01X19370Y11067D02*
X19877Y10650D01*
X20447Y10400D01*
X20953D01*
X21460Y10650D01*
X21840Y11067D01*
X22030Y11650D01*
X21903Y12233D01*
X21587Y12733D01*
X21017Y13067D01*
X20257Y13233D01*
X19813Y13567D01*
X19623Y14150D01*
X19750Y14733D01*
X20067Y15150D01*
X20510Y15400D01*
X20953D01*
X21397Y15233D01*
X21777Y14817D01*
G01X24153Y10400D02*
Y15400D01*
X25800Y11233D01*
X27447Y15400D01*
Y10400D01*
G01X30900D02*
X30393Y10483D01*
X29950Y10817D01*
X29570Y11317D01*
X29317Y11900D01*
X29190Y12567D01*
Y13233D01*
X29317Y13900D01*
X29570Y14483D01*
X29950Y14983D01*
X30393Y15317D01*
X30900Y15400D01*
X31407Y15317D01*
X31850Y14983D01*
X32230Y14483D01*
X32483Y13900D01*
X32610Y13233D01*
Y12567D01*
X32483Y11900D01*
X32230Y11317D01*
X31850Y10817D01*
X31407Y10483D01*
X30900Y10400D01*
G01X34607D02*
Y15400D01*
X35873D01*
X36380Y15150D01*
X36760Y14817D01*
X37077Y14317D01*
X37330Y13733D01*
X37393Y12900D01*
X37330Y12067D01*
X37077Y11483D01*
X36760Y10983D01*
X36380Y10650D01*
X35873Y10400D01*
X34607D01*
G01X39707Y15400D02*
Y11817D01*
X39960Y11067D01*
X40467Y10567D01*
X41100Y10400D01*
X41733Y10567D01*
X42240Y11067D01*
X42493Y11817D01*
Y15400D01*
G01X44933D02*
Y10400D01*
X47467D01*
G01X52567D02*
X50033D01*
Y15400D01*
X52567D01*
G01X51553Y12983D02*
X50033D01*
G01X11243Y27283D02*
X10863Y27533D01*
X10420Y27700D01*
X9913D01*
X9343Y27450D01*
X8900Y27033D01*
X8583Y26533D01*
X8330Y25700D01*
X8267Y24950D01*
X8393Y24200D01*
X8583Y23700D01*
X8963Y23200D01*
X9407Y22867D01*
X9850Y22700D01*
X10293D01*
X10737Y22867D01*
X11117Y23117D01*
X11433Y23450D01*
G01X13557Y23700D02*
X13937Y23117D01*
X14443Y22783D01*
X15013Y22700D01*
X15520Y22783D01*
X16027Y23200D01*
X16343Y23700D01*
X16407Y24200D01*
X16280Y24783D01*
X15837Y25200D01*
X15393Y25367D01*
X14823D01*
G01X15393D02*
X15773Y25617D01*
X16090Y26033D01*
X16217Y26533D01*
X16090Y27033D01*
X15773Y27450D01*
X15203Y27700D01*
X14633Y27617D01*
X14063Y27283D01*
G01X13392Y52813D02*
X13517Y52973D01*
X13600Y53160D01*
Y53373D01*
X13475Y53613D01*
X13267Y53800D01*
X13017Y53933D01*
X12600Y54040D01*
X12225Y54067D01*
X11850Y54013D01*
X11600Y53933D01*
X11350Y53773D01*
X11183Y53587D01*
X11100Y53400D01*
Y53213D01*
X11183Y53027D01*
X11308Y52867D01*
X11475Y52733D01*
G01X11100Y50667D02*
Y51733D01*
X13600D01*
Y50667D01*
G01X12392Y51093D02*
Y51733D01*
G01X11100Y49560D02*
X13600Y48440D01*
G01Y49560D02*
X11100Y48440D01*
G01X13600Y46800D02*
X11100D01*
G01X13600Y47413D02*
Y46187D01*
G01X5513Y88700D02*
Y86908D01*
X5620Y86533D01*
X5833Y86283D01*
X6100Y86200D01*
X6367Y86283D01*
X6580Y86533D01*
X6687Y86908D01*
Y88700D01*
G01X7713Y86700D02*
X7873Y86408D01*
X8087Y86242D01*
X8327Y86200D01*
X8540Y86242D01*
X8753Y86450D01*
X8887Y86700D01*
X8913Y86950D01*
X8860Y87242D01*
X8673Y87450D01*
X8487Y87533D01*
X8247D01*
G01X8487D02*
X8647Y87658D01*
X8780Y87867D01*
X8833Y88117D01*
X8780Y88367D01*
X8647Y88575D01*
X8407Y88700D01*
X8167Y88658D01*
X7927Y88492D01*
G01X21443Y52183D02*
X21063Y52433D01*
X20620Y52600D01*
X20113D01*
X19543Y52350D01*
X19100Y51933D01*
X18783Y51433D01*
X18530Y50600D01*
X18467Y49850D01*
X18593Y49100D01*
X18783Y48600D01*
X19163Y48100D01*
X19607Y47767D01*
X20050Y47600D01*
X20493D01*
X20937Y47767D01*
X21317Y48017D01*
X21633Y48350D01*
G01X23757D02*
X24137Y47933D01*
X24580Y47683D01*
X25150Y47600D01*
X25720Y47767D01*
X26163Y48100D01*
X26480Y48683D01*
X26543Y49350D01*
X26417Y50017D01*
X26100Y50433D01*
X25657Y50767D01*
X25213Y50850D01*
X24770Y50767D01*
X24200Y50433D01*
X24390Y52600D01*
X26100D01*
G01X38843Y116283D02*
X38463Y116533D01*
X38020Y116700D01*
X37513D01*
X36943Y116450D01*
X36500Y116033D01*
X36183Y115533D01*
X35930Y114700D01*
X35867Y113950D01*
X35993Y113200D01*
X36183Y112700D01*
X36563Y112200D01*
X37007Y111867D01*
X37450Y111700D01*
X37893D01*
X38337Y111867D01*
X38717Y112117D01*
X39033Y112450D01*
G01X42550Y111700D02*
X42993Y111783D01*
X43500Y112033D01*
X43817Y112450D01*
X43943Y113033D01*
X43817Y113617D01*
X43437Y114117D01*
X42867Y114367D01*
X42233D01*
X41853Y114533D01*
X41537Y114950D01*
X41410Y115533D01*
X41600Y116117D01*
X42043Y116533D01*
X42550Y116700D01*
X43057Y116533D01*
X43500Y116117D01*
X43690Y115533D01*
X43563Y114950D01*
X43247Y114533D01*
X42867Y114367D01*
X42233D01*
X41663Y114117D01*
X41283Y113617D01*
X41157Y113033D01*
X41283Y112450D01*
X41600Y112033D01*
X42107Y111783D01*
X42550Y111700D01*
G01X47600Y69000D02*
Y66500D01*
G01X46987Y69000D02*
X48213D01*
G01X49267Y66500D02*
Y69000D01*
X49907D01*
X50120Y68875D01*
X50280Y68583D01*
X50333Y68250D01*
X50280Y67917D01*
X50147Y67667D01*
X49907Y67542D01*
X49267D01*
G01X51413Y67000D02*
X51573Y66708D01*
X51787Y66542D01*
X52027Y66500D01*
X52240Y66542D01*
X52453Y66750D01*
X52587Y67000D01*
X52613Y67250D01*
X52560Y67542D01*
X52373Y67750D01*
X52187Y67833D01*
X51947D01*
G01X52187D02*
X52347Y67958D01*
X52480Y68167D01*
X52533Y68417D01*
X52480Y68667D01*
X52347Y68875D01*
X52107Y69000D01*
X51867Y68958D01*
X51627Y68792D01*
G01X56000Y62900D02*
X66000D01*
Y72900D01*
X56000D01*
Y62900D01*
G01X45100Y84900D02*
Y82400D01*
G01X44487Y84900D02*
X45713D01*
G01X46767Y82400D02*
Y84900D01*
X47407D01*
X47620Y84775D01*
X47780Y84483D01*
X47833Y84150D01*
X47780Y83817D01*
X47647Y83567D01*
X47407Y83442D01*
X46767D01*
G01X49500Y82400D02*
Y84900D01*
X49180Y84400D01*
G01Y82400D02*
X49820D01*
G01X56500Y78200D02*
X66500D01*
Y88200D01*
X56500D01*
Y78200D01*
G01X53143Y132583D02*
X52763Y132833D01*
X52320Y133000D01*
X51813D01*
X51243Y132750D01*
X50800Y132333D01*
X50483Y131833D01*
X50230Y131000D01*
X50167Y130250D01*
X50293Y129500D01*
X50483Y129000D01*
X50863Y128500D01*
X51307Y128167D01*
X51750Y128000D01*
X52193D01*
X52637Y128167D01*
X53017Y128417D01*
X53333Y128750D01*
G01X56850Y128000D02*
Y133000D01*
X56090Y132000D01*
G01Y128000D02*
X57610D01*
G01X59713Y112000D02*
Y110208D01*
X59820Y109833D01*
X60033Y109583D01*
X60300Y109500D01*
X60567Y109583D01*
X60780Y109833D01*
X60887Y110208D01*
Y112000D01*
G01X61913Y109875D02*
X62073Y109667D01*
X62260Y109542D01*
X62500Y109500D01*
X62740Y109583D01*
X62927Y109750D01*
X63060Y110042D01*
X63087Y110375D01*
X63033Y110708D01*
X62900Y110917D01*
X62713Y111083D01*
X62527Y111125D01*
X62340Y111083D01*
X62100Y110917D01*
X62180Y112000D01*
X62900D01*
G01X78433Y45560D02*
X78225Y45347D01*
X78100Y45107D01*
Y44893D01*
X78225Y44680D01*
X78433Y44520D01*
X78725Y44440D01*
X79017Y44493D01*
X79267Y44627D01*
X79433Y44867D01*
X79517Y45187D01*
X79683Y45373D01*
X79975Y45453D01*
X80267Y45400D01*
X80475Y45267D01*
X80600Y45080D01*
Y44893D01*
X80517Y44707D01*
X80308Y44547D01*
G01X79225Y43200D02*
Y42347D01*
X79517Y42427D01*
X79683Y42560D01*
X79767Y42747D01*
X79725Y42933D01*
X79600Y43093D01*
X79308Y43200D01*
X79058Y43253D01*
X78808D01*
X78558Y43200D01*
X78308Y43067D01*
X78142Y42907D01*
X78100Y42720D01*
X78183Y42533D01*
X78433Y42347D01*
G01X78100Y40973D02*
X79767D01*
G01X79433D02*
X79600Y40840D01*
X79725Y40707D01*
X79767Y40520D01*
X79725Y40387D01*
X79600Y40227D01*
G01X79767Y38880D02*
X78100Y38400D01*
X79767Y37920D01*
G01X78100Y36200D02*
X78142Y36360D01*
X78308Y36520D01*
X78600Y36627D01*
X78933Y36680D01*
X79267Y36627D01*
X79558Y36520D01*
X79725Y36360D01*
X79767Y36200D01*
X79725Y36040D01*
X79558Y35880D01*
X79267Y35773D01*
X78933Y35747D01*
X78600Y35773D01*
X78308Y35880D01*
X78142Y36040D01*
X78100Y36200D01*
G01X80392Y33413D02*
X80517Y33573D01*
X80600Y33760D01*
Y33973D01*
X80475Y34213D01*
X80267Y34400D01*
X80017Y34533D01*
X79600Y34640D01*
X79225Y34667D01*
X78850Y34613D01*
X78600Y34533D01*
X78350Y34373D01*
X78183Y34187D01*
X78100Y34000D01*
Y33813D01*
X78183Y33627D01*
X78308Y33467D01*
X78475Y33333D01*
G01X78100Y31800D02*
X78142Y31960D01*
X78308Y32120D01*
X78600Y32227D01*
X78933Y32280D01*
X79267Y32227D01*
X79558Y32120D01*
X79725Y31960D01*
X79767Y31800D01*
X79725Y31640D01*
X79558Y31480D01*
X79267Y31373D01*
X78933Y31347D01*
X78600Y31373D01*
X78308Y31480D01*
X78142Y31640D01*
X78100Y31800D01*
G01Y30053D02*
X79767D01*
G01X79350D02*
X79558Y29947D01*
X79725Y29787D01*
X79767Y29573D01*
X79725Y29387D01*
X79558Y29227D01*
X79267Y29147D01*
X78100D01*
G01X80600Y27400D02*
X78100D01*
G01X79767Y27773D02*
Y27027D01*
G01X78100Y25573D02*
X79767D01*
G01X79433D02*
X79600Y25440D01*
X79725Y25307D01*
X79767Y25120D01*
X79725Y24987D01*
X79600Y24827D01*
G01X78100Y23000D02*
X78142Y23160D01*
X78308Y23320D01*
X78600Y23427D01*
X78933Y23480D01*
X79267Y23427D01*
X79558Y23320D01*
X79725Y23160D01*
X79767Y23000D01*
X79725Y22840D01*
X79558Y22680D01*
X79267Y22573D01*
X78933Y22547D01*
X78600Y22573D01*
X78308Y22680D01*
X78142Y22840D01*
X78100Y23000D01*
G01Y20800D02*
X80600D01*
G01X78100Y18600D02*
X80600D01*
G01X79225Y16800D02*
Y15947D01*
X79517Y16027D01*
X79683Y16160D01*
X79767Y16347D01*
X79725Y16533D01*
X79600Y16693D01*
X79308Y16800D01*
X79058Y16853D01*
X78808D01*
X78558Y16800D01*
X78308Y16667D01*
X78142Y16507D01*
X78100Y16320D01*
X78183Y16133D01*
X78433Y15947D01*
G01X78100Y14573D02*
X79767D01*
G01X79433D02*
X79600Y14440D01*
X79725Y14307D01*
X79767Y14120D01*
X79725Y13987D01*
X79600Y13827D01*
G01X78233Y92260D02*
X78025Y92047D01*
X77900Y91807D01*
Y91593D01*
X78025Y91380D01*
X78233Y91220D01*
X78525Y91140D01*
X78817Y91193D01*
X79067Y91327D01*
X79233Y91567D01*
X79317Y91887D01*
X79483Y92073D01*
X79775Y92153D01*
X80067Y92100D01*
X80275Y91967D01*
X80400Y91780D01*
Y91593D01*
X80317Y91407D01*
X80108Y91247D01*
G01X77067Y89980D02*
X79567D01*
G01X79192D02*
X79400Y89847D01*
X79525Y89713D01*
X79567Y89500D01*
X79525Y89313D01*
X79317Y89127D01*
X79025Y89047D01*
X78733Y89020D01*
X78442Y89047D01*
X78150Y89127D01*
X77983Y89287D01*
X77900Y89500D01*
X77942Y89687D01*
X78067Y89873D01*
X78233Y89980D01*
G01X79025Y87700D02*
Y86847D01*
X79317Y86927D01*
X79483Y87060D01*
X79567Y87247D01*
X79525Y87433D01*
X79400Y87593D01*
X79108Y87700D01*
X78858Y87753D01*
X78608D01*
X78358Y87700D01*
X78108Y87567D01*
X77942Y87407D01*
X77900Y87220D01*
X77983Y87033D01*
X78233Y86847D01*
G01X79025Y85500D02*
Y84647D01*
X79317Y84727D01*
X79483Y84860D01*
X79567Y85047D01*
X79525Y85233D01*
X79400Y85393D01*
X79108Y85500D01*
X78858Y85553D01*
X78608D01*
X78358Y85500D01*
X78108Y85367D01*
X77942Y85207D01*
X77900Y85020D01*
X77983Y84833D01*
X78233Y84647D01*
G01X80400Y82420D02*
X77900D01*
G01X78275D02*
X78067Y82527D01*
X77942Y82687D01*
X77900Y82873D01*
X77983Y83087D01*
X78192Y83247D01*
X78442Y83353D01*
X78733Y83380D01*
X79025Y83353D01*
X79275Y83247D01*
X79483Y83087D01*
X79567Y82873D01*
X79525Y82687D01*
X79442Y82553D01*
X79275Y82420D01*
G01X80192Y80113D02*
X80317Y80273D01*
X80400Y80460D01*
Y80673D01*
X80275Y80913D01*
X80067Y81100D01*
X79817Y81233D01*
X79400Y81340D01*
X79025Y81367D01*
X78650Y81313D01*
X78400Y81233D01*
X78150Y81073D01*
X77983Y80887D01*
X77900Y80700D01*
Y80513D01*
X77983Y80327D01*
X78108Y80167D01*
X78275Y80033D01*
G01X77900Y78500D02*
X77942Y78660D01*
X78108Y78820D01*
X78400Y78927D01*
X78733Y78980D01*
X79067Y78927D01*
X79358Y78820D01*
X79525Y78660D01*
X79567Y78500D01*
X79525Y78340D01*
X79358Y78180D01*
X79067Y78073D01*
X78733Y78047D01*
X78400Y78073D01*
X78108Y78180D01*
X77942Y78340D01*
X77900Y78500D01*
G01Y76753D02*
X79567D01*
G01X79150D02*
X79358Y76647D01*
X79525Y76487D01*
X79567Y76273D01*
X79525Y76087D01*
X79358Y75927D01*
X79067Y75847D01*
X77900D01*
G01X80400Y74100D02*
X77900D01*
G01X79567Y74473D02*
Y73727D01*
G01X77900Y72273D02*
X79567D01*
G01X79233D02*
X79400Y72140D01*
X79525Y72007D01*
X79567Y71820D01*
X79525Y71687D01*
X79400Y71527D01*
G01X77900Y69700D02*
X77942Y69860D01*
X78108Y70020D01*
X78400Y70127D01*
X78733Y70180D01*
X79067Y70127D01*
X79358Y70020D01*
X79525Y69860D01*
X79567Y69700D01*
X79525Y69540D01*
X79358Y69380D01*
X79067Y69273D01*
X78733Y69247D01*
X78400Y69273D01*
X78108Y69380D01*
X77942Y69540D01*
X77900Y69700D01*
G01Y67500D02*
X80400D01*
G01X77900Y65300D02*
X80400D01*
G01X79025Y63500D02*
Y62647D01*
X79317Y62727D01*
X79483Y62860D01*
X79567Y63047D01*
X79525Y63233D01*
X79400Y63393D01*
X79108Y63500D01*
X78858Y63553D01*
X78608D01*
X78358Y63500D01*
X78108Y63367D01*
X77942Y63207D01*
X77900Y63020D01*
X77983Y62833D01*
X78233Y62647D01*
G01X77900Y61273D02*
X79567D01*
G01X79233D02*
X79400Y61140D01*
X79525Y61007D01*
X79567Y60820D01*
X79525Y60687D01*
X79400Y60527D01*
G01X96843Y44583D02*
X96463Y44833D01*
X96020Y45000D01*
X95513D01*
X94943Y44750D01*
X94500Y44333D01*
X94183Y43833D01*
X93930Y43000D01*
X93867Y42250D01*
X93993Y41500D01*
X94183Y41000D01*
X94563Y40500D01*
X95007Y40167D01*
X95450Y40000D01*
X95893D01*
X96337Y40167D01*
X96717Y40417D01*
X97033Y40750D01*
G01X99347Y44167D02*
X99727Y44667D01*
X100170Y44917D01*
X100677Y45000D01*
X101310Y44833D01*
X101753Y44417D01*
X101880Y43917D01*
X101817Y43417D01*
X101563Y43000D01*
X100297Y42167D01*
X99727Y41583D01*
X99347Y40750D01*
X99220Y40000D01*
X101880D01*
G01X97243Y90383D02*
X96863Y90633D01*
X96420Y90800D01*
X95913D01*
X95343Y90550D01*
X94900Y90133D01*
X94583Y89633D01*
X94330Y88800D01*
X94267Y88050D01*
X94393Y87300D01*
X94583Y86800D01*
X94963Y86300D01*
X95407Y85967D01*
X95850Y85800D01*
X96293D01*
X96737Y85967D01*
X97117Y86217D01*
X97433Y86550D01*
G01X101710Y85800D02*
Y90800D01*
X99367Y87217D01*
X102533D01*
G54D12*
G01X-134650Y33589D02*
Y22211D01*
G01X-134886Y107350D02*
X-133314D01*
G01Y113250D02*
X-134886D01*
G01X-138050Y105000D02*
G02I-300J0D01*
G01X-125950Y110300D02*
G02I-300J0D01*
G01X-127986Y119150D02*
X-126414D01*
G01Y125050D02*
X-127986D01*
G01X-119050Y122100D02*
G02I-300J0D01*
G01X-125650Y116400D02*
G02I-300J0D01*
G01X-119550Y128600D02*
G02I-300J0D01*
G01X-121350Y134500D02*
G02I-300J0D01*
G01X-109450Y12803D02*
Y11797D01*
G01X-112350Y22211D02*
Y33589D01*
G01X-113200Y89900D02*
X-102200D01*
G01X-113200Y142900D02*
Y89900D01*
G01X-102200Y142900D02*
X-113200D01*
G01X-103150Y11797D02*
Y12803D01*
G01X-102200Y89900D02*
Y142900D01*
G01X-82050Y33700D02*
X-90950D01*
G01Y20500D02*
X-82050D01*
G01X-63800Y16550D02*
G02I-300J0D01*
G01X-66175Y25921D02*
Y24479D01*
G01X-64200Y49150D02*
G02I-300J0D01*
G01X-55959Y5200D02*
G02I-300J0D01*
G01X-56400Y17050D02*
G02I-300J0D01*
G01X-55810Y16650D02*
X-58550D01*
G01D02*
Y10350D01*
G01X-48850Y16650D02*
X-51590D01*
G01X-62025Y24479D02*
Y25921D01*
G01X-58775Y25658D02*
Y24142D01*
G01X-54625D02*
Y25658D01*
G01X-48850Y10350D02*
Y16650D01*
G01X-38950Y25347D02*
Y29853D01*
G01X-46250D02*
Y25347D01*
G01X-42300Y39400D02*
G02I-300J0D01*
G01X-30600Y15600D02*
G02I-300J0D01*
G01X-34550Y29653D02*
Y25147D01*
G01X-27250D02*
Y29653D01*
G01X-26800Y90650D02*
G02I-300J0D01*
G01X-19800Y20650D02*
G02I-300J0D01*
G01X-12750Y54400D02*
G02I-300J0D01*
G01X-13800Y70129D02*
Y66600D01*
G01D02*
X-10271D01*
G01X-20272Y101564D02*
G02I-300J0D01*
G01X-10271Y107000D02*
X-13800D01*
G01D02*
Y103471D01*
G01X-650Y116100D02*
G02I-300J0D01*
G01X4400Y18400D02*
Y7400D01*
G01X57400Y18400D02*
X4400D01*
G01Y7400D02*
X57400D01*
G01X17300Y58150D02*
G02I-300J0D01*
G01X23950Y22400D02*
G02I-300J0D01*
G01X18550Y53600D02*
G02I-300J0D01*
G01X23071Y66600D02*
X26600D01*
G01D02*
Y70129D01*
G01Y103471D02*
Y107000D01*
G01D02*
X23071D01*
G01X37900Y96450D02*
G02I-300J0D01*
G01X48964Y125314D02*
X98764D01*
G01X48964Y148914D02*
Y125314D01*
G01X56550Y130700D02*
G02I-300J0D01*
G01X98764Y148914D02*
X48964D01*
G01X57400Y7400D02*
Y18400D01*
G01X81500Y13000D02*
X92500D01*
G01X81500Y46000D02*
Y13000D01*
G01X92500Y46000D02*
X81500D01*
G01X81300Y60100D02*
X92300D01*
G01X81300Y93100D02*
Y60100D01*
G01X92300Y93100D02*
X81300D01*
G01X92500Y13000D02*
Y46000D01*
G01X97800Y22450D02*
G02I-300J0D01*
G01X92300Y60100D02*
Y93100D01*
G01X97000Y85850D02*
G02I-300J0D01*
G01X98764Y125314D02*
Y148914D01*
G54D13*
G01X14965Y141352D02*
Y127848D01*
G01X40635D02*
Y141352D01*
G01X43115Y142612D02*
G03I-394J0D01*
G01X64258Y98795D02*
Y114543D01*
G01X83942Y107457D02*
Y114543D01*
M02*
