G04 ================== begin FILE IDENTIFICATION RECORD ==================*
G04 Layout Name:  L:/ALLEGRO/allegro/senior design v4.brd*
G04 Film Name:    BOATCREWMASK_BOT*
G04 File Format:  Gerber RS274X*
G04 File Origin:  Cadence Allegro 22.1-P001*
G04 Origin Date:  Thu May  1 15:41:34 2025*
G04 *
G04 Layer:  VIA CLASS/SOLDERMASK_BOTTOM*
G04 Layer:  PIN/SOLDERMASK_BOTTOM*
G04 Layer:  DRC ERROR CLASS/SOLDERMASK_BOTTOM*
G04 *
G04 Offset:    (0.00 0.00)*
G04 Mirror:    No*
G04 Mode:      Positive*
G04 Rotation:  0*
G04 FullContactRelief:  No*
G04 UndefLineWidth:     5.00*
G04 ================== end FILE IDENTIFICATION RECORD ====================*
%FSLAX25Y25*MOIN*%
%IR0*IPPOS*OFA0.00000B0.00000*MIA0B0*SFA1.00000B1.00000*%
%ADD13C,.06*%
%ADD11C,.044*%
%ADD14C,.069*%
%ADD10C,.07087*%
%ADD12C,.14173*%
%LPD*%
G75*
G54D10*
X-144200Y9200D03*
X-144000Y37900D03*
G54D11*
X-137400Y9200D03*
X-138250Y100800D03*
X-123500Y11800D03*
X-120000Y122100D03*
X-120500Y128600D03*
X-121400Y134500D03*
X-84900Y9800D03*
X-77000Y27100D03*
X-60800Y9600D03*
X-27100Y58400D03*
Y69900D03*
X-32350Y85550D03*
X-20100Y19800D03*
X-9600Y121500D03*
X-7950Y47750D03*
X18550Y26850D03*
X9200Y115600D03*
X8100Y134200D03*
X23350Y48150D03*
X25600Y115600D03*
X43200Y103700D03*
X71600Y95600D03*
X102850Y27550D03*
X101950Y80750D03*
G54D12*
X-125700Y52100D03*
X-103300Y52500D03*
X61000Y67900D03*
X61500Y83200D03*
G54D13*
X-107700Y96400D03*
Y106400D03*
Y116400D03*
Y126400D03*
Y136400D03*
X10900Y12900D03*
X30900D03*
X20900D03*
X40900D03*
X50900D03*
X87000Y19500D03*
Y29500D03*
Y39500D03*
X86800Y76600D03*
Y66600D03*
Y86600D03*
G54D14*
X59100Y139200D03*
X68942D03*
X78785D03*
X88628D03*
M02*
