<?xml version="1.0" standalone="no"?>
 <!DOCTYPE svg PUBLIC "-//W3C//DTD SVG 1.1//EN" 
 "http://www.w3.org/Graphics/SVG/1.1/DTD/svg11.dtd"> 
<svg
  xmlns:svg="http://www.w3.org/2000/svg"
  xmlns="http://www.w3.org/2000/svg"
  xmlns:xlink="http://www.w3.org/1999/xlink"
  version="1.1"
  width="66.6750mm" height="37.4396mm" viewBox="0.0000 0.0000 66.6750 37.4396">
<title>SVG Image created as v1_layer_F_Mask.svg date 2026/09/16 19:27:05 </title>
  <desc>Image generated by PCBNEW </desc>
<g style="fill:#000000; fill-opacity:1.0000;stroke:#000000; stroke-opacity:1.0000;
stroke-linecap:round; stroke-linejoin:round;"
 transform="translate(0 0) scale(1 1)">
<path style="fill:#D864FF; fill-opacity:0.4000; stroke:none;fill-rule:evenodd;"
d="M 14.3728,30.0186
14.9235,30.0186
14.9235,30.8774
14.3728,30.8774
Z" /> 
<path style="fill:#D864FF; fill-opacity:0.4000; stroke:none;fill-rule:evenodd;"
d="M 14.3728,31.3272
14.9235,31.3272
14.9235,32.1860
14.3728,32.1860
Z" /> 
</g>
<g style="fill:#D864FF; fill-opacity:0.4000; stroke:none;">
<circle cx="1.3386" cy="34.2011" r="0.9000" /> 
<path style="fill:#D864FF; fill-opacity:0.4000; stroke:none;fill-rule:evenodd;"
d="M 10.9652,31.8770
10.1016,31.8770
10.1016,30.9118
10.9652,30.9118
Z" /> 
<path style="fill:#D864FF; fill-opacity:0.4000; stroke:none;fill-rule:evenodd;"
d="M 10.9652,30.1244
10.1016,30.1244
10.1016,29.1592
10.9652,29.1592
Z" /> 
<path style="fill:#D864FF; fill-opacity:0.4000; stroke:none;fill-rule:evenodd;"
d="M 12.1844,28.9560
13.2004,28.9560
13.2004,30.0228
12.1844,30.0228
Z" /> 
<path style="fill:#D864FF; fill-opacity:0.4000; stroke:none;fill-rule:evenodd;"
d="M 12.1844,30.7594
13.2004,30.7594
13.2004,31.8262
12.1844,31.8262
Z" /> 
<path style="fill:#D864FF; fill-opacity:0.4000; stroke:none;fill-rule:evenodd;"
d="M 20.5918,27.5844
20.5918,25.9334
21.8618,25.9334
21.8618,27.5844
Z" /> 
<path style="fill:#D864FF; fill-opacity:0.4000; stroke:none;fill-rule:evenodd;"
d="M 23.6398,27.5844
23.6398,25.9334
24.9098,25.9334
24.9098,27.5844
Z" /> 
<path style="fill:#D864FF; fill-opacity:0.4000; stroke:none;fill-rule:evenodd;"
d="M 47.3506,0.6721
47.3582,0.6338
47.3799,0.6013
47.4123,0.5796
47.4506,0.5720
48.1905,0.5720
48.2288,0.5796
48.2613,0.6013
48.2830,0.6338
48.2906,0.6721
48.2906,3.4620
48.2830,3.5003
48.2613,3.5328
48.2288,3.5545
48.1905,3.5621
47.4506,3.5621
47.4123,3.5545
47.3799,3.5328
47.3582,3.5003
47.3506,3.4620
Z" /> 
<path style="fill:#D864FF; fill-opacity:0.4000; stroke:none;fill-rule:evenodd;"
d="M 47.3506,4.7422
47.3582,4.7039
47.3799,4.6714
47.4123,4.6497
47.4506,4.6421
48.1905,4.6421
48.2288,4.6497
48.2613,4.6714
48.2830,4.7039
48.2906,4.7422
48.2906,7.5321
48.2830,7.5704
48.2613,7.6029
48.2288,7.6246
48.1905,7.6322
47.4506,7.6322
47.4123,7.6246
47.3799,7.6029
47.3582,7.5704
47.3506,7.5321
Z" /> 
<path style="fill:#D864FF; fill-opacity:0.4000; stroke:none;fill-rule:evenodd;"
d="M 46.0806,0.6721
46.0882,0.6338
46.1099,0.6013
46.1423,0.5796
46.1806,0.5720
46.9205,0.5720
46.9588,0.5796
46.9913,0.6013
47.0130,0.6338
47.0206,0.6721
47.0206,3.4620
47.0130,3.5003
46.9913,3.5328
46.9588,3.5545
46.9205,3.5621
46.1806,3.5621
46.1423,3.5545
46.1099,3.5328
46.0882,3.5003
46.0806,3.4620
Z" /> 
<path style="fill:#D864FF; fill-opacity:0.4000; stroke:none;fill-rule:evenodd;"
d="M 46.0806,4.7422
46.0882,4.7039
46.1099,4.6714
46.1423,4.6497
46.1806,4.6421
46.9205,4.6421
46.9588,4.6497
46.9913,4.6714
47.0130,4.7039
47.0206,4.7422
47.0206,7.5321
47.0130,7.5704
46.9913,7.6029
46.9588,7.6246
46.9205,7.6322
46.1806,7.6322
46.1423,7.6246
46.1099,7.6029
46.0882,7.5704
46.0806,7.5321
Z" /> 
<path style="fill:#D864FF; fill-opacity:0.4000; stroke:none;fill-rule:evenodd;"
d="M 44.8106,0.6721
44.8182,0.6338
44.8399,0.6013
44.8723,0.5796
44.9106,0.5720
45.6505,0.5720
45.6888,0.5796
45.7213,0.6013
45.7430,0.6338
45.7506,0.6721
45.7506,3.4620
45.7430,3.5003
45.7213,3.5328
45.6888,3.5545
45.6505,3.5621
44.9106,3.5621
44.8723,3.5545
44.8399,3.5328
44.8182,3.5003
44.8106,3.4620
Z" /> 
<path style="fill:#D864FF; fill-opacity:0.4000; stroke:none;fill-rule:evenodd;"
d="M 44.8106,4.7422
44.8182,4.7039
44.8399,4.6714
44.8723,4.6497
44.9106,4.6421
45.6505,4.6421
45.6888,4.6497
45.7213,4.6714
45.7430,4.7039
45.7506,4.7422
45.7506,7.5321
45.7430,7.5704
45.7213,7.6029
45.6888,7.6246
45.6505,7.6322
44.9106,7.6322
44.8723,7.6246
44.8399,7.6029
44.8182,7.5704
44.8106,7.5321
Z" /> 
<path style="fill:#D864FF; fill-opacity:0.4000; stroke:none;fill-rule:evenodd;"
d="M 43.5406,0.6721
43.5482,0.6338
43.5699,0.6013
43.6023,0.5796
43.6406,0.5720
44.3805,0.5720
44.4188,0.5796
44.4513,0.6013
44.4730,0.6338
44.4806,0.6721
44.4806,3.4620
44.4730,3.5003
44.4513,3.5328
44.4188,3.5545
44.3805,3.5621
43.6406,3.5621
43.6023,3.5545
43.5699,3.5328
43.5482,3.5003
43.5406,3.4620
Z" /> 
<path style="fill:#D864FF; fill-opacity:0.4000; stroke:none;fill-rule:evenodd;"
d="M 43.5406,4.7422
43.5482,4.7039
43.5699,4.6714
43.6023,4.6497
43.6406,4.6421
44.3805,4.6421
44.4188,4.6497
44.4513,4.6714
44.4730,4.7039
44.4806,4.7422
44.4806,7.5321
44.4730,7.5704
44.4513,7.6029
44.4188,7.6246
44.3805,7.6322
43.6406,7.6322
43.6023,7.6246
43.5699,7.6029
43.5482,7.5704
43.5406,7.5321
Z" /> 
<path style="fill:#D864FF; fill-opacity:0.4000; stroke:none;fill-rule:evenodd;"
d="M 42.2706,0.6721
42.2782,0.6338
42.2999,0.6013
42.3323,0.5796
42.3706,0.5720
43.1105,0.5720
43.1488,0.5796
43.1813,0.6013
43.2030,0.6338
43.2106,0.6721
43.2106,3.4620
43.2030,3.5003
43.1813,3.5328
43.1488,3.5545
43.1105,3.5621
42.3706,3.5621
42.3323,3.5545
42.2999,3.5328
42.2782,3.5003
42.2706,3.4620
Z" /> 
<path style="fill:#D864FF; fill-opacity:0.4000; stroke:none;fill-rule:evenodd;"
d="M 42.2706,4.7422
42.2782,4.7039
42.2999,4.6714
42.3323,4.6497
42.3706,4.6421
43.1105,4.6421
43.1488,4.6497
43.1813,4.6714
43.2030,4.7039
43.2106,4.7422
43.2106,7.5321
43.2030,7.5704
43.1813,7.6029
43.1488,7.6246
43.1105,7.6322
42.3706,7.6322
42.3323,7.6246
42.2999,7.6029
42.2782,7.5704
42.2706,7.5321
Z" /> 
<path style="fill:#D864FF; fill-opacity:0.4000; stroke:none;fill-rule:evenodd;"
d="M 43.3883,32.0040
43.3883,33.1978
42.4739,33.1978
42.4739,32.0040
Z" /> 
<path style="fill:#D864FF; fill-opacity:0.4000; stroke:none;fill-rule:evenodd;"
d="M 41.9913,32.0040
41.9913,33.1978
41.0769,33.1978
41.0769,32.0040
Z" /> 
</g>
<g style="fill:#D864FF; fill-opacity:0.4000; stroke:none;">
<circle cx="53.2308" cy="2.9337" r="0.8763" /> 
</g>
<g style="fill:#D864FF; fill-opacity:0.4000; stroke:none;">
<circle cx="55.7306" cy="2.9337" r="0.8763" /> 
</g>
<g style="fill:#D864FF; fill-opacity:0.4000; stroke:none;">
<circle cx="58.2308" cy="2.9337" r="0.8763" /> 
</g>
<g style="fill:#D864FF; fill-opacity:0.4000; stroke:none;">
<circle cx="60.7309" cy="2.9337" r="0.8763" /> 
<path style="fill:#D864FF; fill-opacity:0.4000; stroke:none;fill-rule:evenodd;"
d="M 42.0675,24.3586
43.0073,24.3586
43.0073,25.4254
42.0675,25.4254
Z" /> 
<path style="fill:#D864FF; fill-opacity:0.4000; stroke:none;fill-rule:evenodd;"
d="M 42.0675,26.1112
43.0073,26.1112
43.0073,27.1780
42.0675,27.1780
Z" /> 
</g>
<g style="fill:#D864FF; fill-opacity:0.4000; stroke:none;">
<circle cx="16.9596" cy="19.8755" r="0.8636" /> 
</g>
<g style="fill:#D864FF; fill-opacity:0.4000; stroke:none;">
<circle cx="19.4996" cy="19.8755" r="0.8636" /> 
</g>
<g style="fill:#D864FF; fill-opacity:0.4000; stroke:none;">
<circle cx="22.0396" cy="19.8755" r="0.8636" /> 
</g>
<g style="fill:#D864FF; fill-opacity:0.4000; stroke:none;">
<circle cx="24.5796" cy="19.8755" r="0.8636" /> 
</g>
<g style="fill:#D864FF; fill-opacity:0.4000; stroke:none;">
<circle cx="27.1196" cy="19.8755" r="0.8636" /> 
<path style="fill:#D864FF; fill-opacity:0.4000; stroke:none;fill-rule:evenodd;"
d="M 23.3272,31.2387
23.3272,28.8287
25.5271,28.8287
25.5271,31.2387
Z" /> 
<path style="fill:#D864FF; fill-opacity:0.4000; stroke:none;fill-rule:evenodd;"
d="M 23.3272,36.7287
23.3272,34.3187
25.5271,34.3187
25.5271,36.7287
Z" /> 
<path style="fill:#D864FF; fill-opacity:0.4000; stroke:none;fill-rule:evenodd;"
d="M 9.9746,33.5559
9.9746,32.9971
10.8763,32.9971
10.8763,33.5559
Z" /> 
<path style="fill:#D864FF; fill-opacity:0.4000; stroke:none;fill-rule:evenodd;"
d="M 9.9746,34.5059
9.9746,33.9471
10.8763,33.9471
10.8763,34.5059
Z" /> 
<path style="fill:#D864FF; fill-opacity:0.4000; stroke:none;fill-rule:evenodd;"
d="M 9.9746,35.4559
9.9746,34.8971
10.8763,34.8971
10.8763,35.4559
Z" /> 
<path style="fill:#D864FF; fill-opacity:0.4000; stroke:none;fill-rule:evenodd;"
d="M 12.8829,35.4559
12.8829,34.8971
13.7846,34.8971
13.7846,35.4559
Z" /> 
<path style="fill:#D864FF; fill-opacity:0.4000; stroke:none;fill-rule:evenodd;"
d="M 12.8829,34.5059
12.8829,33.9471
13.7846,33.9471
13.7846,34.5059
Z" /> 
<path style="fill:#D864FF; fill-opacity:0.4000; stroke:none;fill-rule:evenodd;"
d="M 12.8829,33.5559
12.8829,32.9971
13.7846,32.9971
13.7846,33.5559
Z" /> 
<path style="fill:#D864FF; fill-opacity:0.4000; stroke:none;fill-rule:evenodd;"
d="M 14.5974,33.4137
15.1562,33.4137
15.1562,34.2773
14.5974,34.2773
Z" /> 
<path style="fill:#D864FF; fill-opacity:0.4000; stroke:none;fill-rule:evenodd;"
d="M 14.5974,34.7345
15.1562,34.7345
15.1562,35.5981
14.5974,35.5981
Z" /> 
<path style="fill:#D864FF; fill-opacity:0.4000; stroke:none;fill-rule:evenodd;"
d="M 63.5813,30.8102
62.3875,30.8102
62.3875,29.8958
63.5813,29.8958
Z" /> 
<path style="fill:#D864FF; fill-opacity:0.4000; stroke:none;fill-rule:evenodd;"
d="M 63.5813,29.4132
62.3875,29.4132
62.3875,28.4988
63.5813,28.4988
Z" /> 
<path style="fill:#D864FF; fill-opacity:0.4000; stroke:none;fill-rule:evenodd;"
d="M 35.7429,25.0698
35.7429,23.8760
36.6573,23.8760
36.6573,25.0698
Z" /> 
<path style="fill:#D864FF; fill-opacity:0.4000; stroke:none;fill-rule:evenodd;"
d="M 37.1399,25.0698
37.1399,23.8760
38.0543,23.8760
38.0543,25.0698
Z" /> 
<path style="fill:#D864FF; fill-opacity:0.4000; stroke:none;fill-rule:evenodd;"
d="M 48.3667,12.9540
47.1729,12.9540
47.1729,12.0396
48.3667,12.0396
Z" /> 
<path style="fill:#D864FF; fill-opacity:0.4000; stroke:none;fill-rule:evenodd;"
d="M 48.3667,11.5570
47.1729,11.5570
47.1729,10.6426
48.3667,10.6426
Z" /> 
<path style="fill:#D864FF; fill-opacity:0.4000; stroke:none;fill-rule:evenodd;"
d="M 11.0795,20.9169
11.0795,21.4249
10.5715,21.4249
10.5715,20.9169
Z" /> 
<path style="fill:#D864FF; fill-opacity:0.4000; stroke:none;fill-rule:evenodd;"
d="M 10.2413,20.9169
10.2413,21.4249
9.7333,21.4249
9.7333,20.9169
Z" /> 
</g>
<g style="fill:#D864FF; fill-opacity:0.4000; stroke:none;">
<circle cx="4.5390" cy="12.9921" r="1.8000" /> 
<path style="fill:#D864FF; fill-opacity:0.4000; stroke:none;fill-rule:evenodd;"
d="M 51.5925,8.0264
51.5925,6.8326
52.5069,6.8326
52.5069,8.0264
Z" /> 
<path style="fill:#D864FF; fill-opacity:0.4000; stroke:none;fill-rule:evenodd;"
d="M 52.9895,8.0264
52.9895,6.8326
53.9039,6.8326
53.9039,8.0264
Z" /> 
</g>
<g style="fill:#D864FF; fill-opacity:0.4000; stroke:none;">
<circle cx="53.8404" cy="17.1577" r="1.8000" /> 
<path style="fill:#D864FF; fill-opacity:0.4000; stroke:none;fill-rule:evenodd;"
d="M 43.6931,25.2730
43.6931,24.0792
44.6075,24.0792
44.6075,25.2730
Z" /> 
<path style="fill:#D864FF; fill-opacity:0.4000; stroke:none;fill-rule:evenodd;"
d="M 45.0901,25.2730
45.0901,24.0792
46.0045,24.0792
46.0045,25.2730
Z" /> 
<path style="fill:#D864FF; fill-opacity:0.4000; stroke:none;fill-rule:evenodd;"
d="M 9.1237,21.4884
7.9299,21.4884
7.9299,20.8280
9.1237,20.8280
Z" /> 
<path style="fill:#D864FF; fill-opacity:0.4000; stroke:none;fill-rule:evenodd;"
d="M 9.1237,19.8374
7.9299,19.8374
7.9299,19.1770
9.1237,19.1770
Z" /> 
<path style="fill:#D864FF; fill-opacity:0.4000; stroke:none;fill-rule:evenodd;"
d="M 17.0294,35.6361
16.1785,35.6361
16.1785,34.7773
17.0294,34.7773
Z" /> 
<path style="fill:#D864FF; fill-opacity:0.4000; stroke:none;fill-rule:evenodd;"
d="M 17.0294,33.7773
16.1785,33.7773
16.1785,32.9185
17.0294,32.9185
Z" /> 
<path style="fill:#D864FF; fill-opacity:0.4000; stroke:none;fill-rule:evenodd;"
d="M 3.9253,27.1826
3.3746,27.1826
3.3746,26.3738
3.9253,26.3738
Z" /> 
<path style="fill:#D864FF; fill-opacity:0.4000; stroke:none;fill-rule:evenodd;"
d="M 3.9253,25.8740
3.3746,25.8740
3.3746,25.0652
3.9253,25.0652
Z" /> 
<path style="fill:#D864FF; fill-opacity:0.4000; stroke:none;fill-rule:evenodd;"
d="M 5.0809,27.2120
5.0809,26.6614
5.9397,26.6614
5.9397,27.2120
Z" /> 
<path style="fill:#D864FF; fill-opacity:0.4000; stroke:none;fill-rule:evenodd;"
d="M 6.3895,27.2120
6.3895,26.6614
7.2483,26.6614
7.2483,27.2120
Z" /> 
</g>
<g style="fill:#D864FF; fill-opacity:0.4000; stroke:none;">
<circle cx="10.6858" cy="12.9921" r="1.8000" /> 
</g>
<g style="fill:#D864FF; fill-opacity:0.4000; stroke:none;">
<circle cx="40.9880" cy="35.0139" r="0.8636" /> 
</g>
<g style="fill:#D864FF; fill-opacity:0.4000; stroke:none;">
<circle cx="43.5280" cy="35.0139" r="0.8636" /> 
</g>
<g style="fill:#D864FF; fill-opacity:0.4000; stroke:none;">
<circle cx="46.0680" cy="35.0139" r="0.8636" /> 
</g>
<g style="fill:#D864FF; fill-opacity:0.4000; stroke:none;">
<circle cx="48.6080" cy="35.0139" r="0.8636" /> 
</g>
<g style="fill:#D864FF; fill-opacity:0.4000; stroke:none;">
<circle cx="51.1480" cy="35.0139" r="0.8636" /> 
<path style="fill:#D864FF; fill-opacity:0.4000; stroke:none;fill-rule:evenodd;"
d="M 62.1843,17.3228
63.3781,17.3228
63.3781,18.2372
62.1843,18.2372
Z" /> 
<path style="fill:#D864FF; fill-opacity:0.4000; stroke:none;fill-rule:evenodd;"
d="M 62.1843,18.7198
63.3781,18.7198
63.3781,19.6342
62.1843,19.6342
Z" /> 
<path style="fill:#D864FF; fill-opacity:0.4000; stroke:none;fill-rule:evenodd;"
d="M 30.3581,15.8496
31.5519,15.8496
31.5519,16.7640
30.3581,16.7640
Z" /> 
<path style="fill:#D864FF; fill-opacity:0.4000; stroke:none;fill-rule:evenodd;"
d="M 30.3581,17.2466
31.5519,17.2466
31.5519,18.1610
30.3581,18.1610
Z" /> 
</g>
<g style="fill:#D864FF; fill-opacity:0.4000; stroke:none;">
<circle cx="60.3174" cy="27.3177" r="0.8636" /> 
</g>
<g style="fill:#D864FF; fill-opacity:0.4000; stroke:none;">
<circle cx="60.3174" cy="29.8577" r="0.8636" /> 
</g>
<g style="fill:#D864FF; fill-opacity:0.4000; stroke:none;">
<circle cx="60.3174" cy="32.3977" r="0.8636" /> 
<path style="fill:#D864FF; fill-opacity:0.4000; stroke:none;fill-rule:evenodd;"
d="M 14.1783,21.5138
12.9845,21.5138
12.9845,20.5994
14.1783,20.5994
Z" /> 
<path style="fill:#D864FF; fill-opacity:0.4000; stroke:none;fill-rule:evenodd;"
d="M 14.1783,20.1168
12.9845,20.1168
12.9845,19.2024
14.1783,19.2024
Z" /> 
<path style="fill:#D864FF; fill-opacity:0.4000; stroke:none;fill-rule:evenodd;"
d="M 33.4980,12.6456
33.4980,12.3408
34.6918,12.3408
34.6918,12.6456
Z" /> 
<path style="fill:#D864FF; fill-opacity:0.4000; stroke:none;fill-rule:evenodd;"
d="M 33.4980,13.1458
33.4980,12.8410
34.6918,12.8410
34.6918,13.1458
Z" /> 
<path style="fill:#D864FF; fill-opacity:0.4000; stroke:none;fill-rule:evenodd;"
d="M 33.4980,13.6456
33.4980,13.3408
34.6918,13.3408
34.6918,13.6456
Z" /> 
<path style="fill:#D864FF; fill-opacity:0.4000; stroke:none;fill-rule:evenodd;"
d="M 33.4980,14.1458
33.4980,13.8410
34.6918,13.8410
34.6918,14.1458
Z" /> 
<path style="fill:#D864FF; fill-opacity:0.4000; stroke:none;fill-rule:evenodd;"
d="M 33.4980,14.6456
33.4980,14.3408
34.6918,14.3408
34.6918,14.6456
Z" /> 
<path style="fill:#D864FF; fill-opacity:0.4000; stroke:none;fill-rule:evenodd;"
d="M 33.4980,15.1458
33.4980,14.8410
34.6918,14.8410
34.6918,15.1458
Z" /> 
<path style="fill:#D864FF; fill-opacity:0.4000; stroke:none;fill-rule:evenodd;"
d="M 33.4980,15.6456
33.4980,15.3408
34.6918,15.3408
34.6918,15.6456
Z" /> 
<path style="fill:#D864FF; fill-opacity:0.4000; stroke:none;fill-rule:evenodd;"
d="M 33.4980,16.1458
33.4980,15.8410
34.6918,15.8410
34.6918,16.1458
Z" /> 
<path style="fill:#D864FF; fill-opacity:0.4000; stroke:none;fill-rule:evenodd;"
d="M 33.4980,16.6456
33.4980,16.3408
34.6918,16.3408
34.6918,16.6456
Z" /> 
<path style="fill:#D864FF; fill-opacity:0.4000; stroke:none;fill-rule:evenodd;"
d="M 33.4980,17.1458
33.4980,16.8410
34.6918,16.8410
34.6918,17.1458
Z" /> 
<path style="fill:#D864FF; fill-opacity:0.4000; stroke:none;fill-rule:evenodd;"
d="M 33.4980,17.6456
33.4980,17.3408
34.6918,17.3408
34.6918,17.6456
Z" /> 
<path style="fill:#D864FF; fill-opacity:0.4000; stroke:none;fill-rule:evenodd;"
d="M 33.4980,18.1458
33.4980,17.8410
34.6918,17.8410
34.6918,18.1458
Z" /> 
<path style="fill:#D864FF; fill-opacity:0.4000; stroke:none;fill-rule:evenodd;"
d="M 33.4980,18.6456
33.4980,18.3408
34.6918,18.3408
34.6918,18.6456
Z" /> 
<path style="fill:#D864FF; fill-opacity:0.4000; stroke:none;fill-rule:evenodd;"
d="M 33.4980,19.1458
33.4980,18.8410
34.6918,18.8410
34.6918,19.1458
Z" /> 
<path style="fill:#D864FF; fill-opacity:0.4000; stroke:none;fill-rule:evenodd;"
d="M 33.4980,19.6456
33.4980,19.3408
34.6918,19.3408
34.6918,19.6456
Z" /> 
<path style="fill:#D864FF; fill-opacity:0.4000; stroke:none;fill-rule:evenodd;"
d="M 33.4980,20.1458
33.4980,19.8410
34.6918,19.8410
34.6918,20.1458
Z" /> 
<path style="fill:#D864FF; fill-opacity:0.4000; stroke:none;fill-rule:evenodd;"
d="M 35.9425,22.5903
35.9425,21.3965
36.2473,21.3965
36.2473,22.5903
Z" /> 
<path style="fill:#D864FF; fill-opacity:0.4000; stroke:none;fill-rule:evenodd;"
d="M 36.4427,22.5903
36.4427,21.3965
36.7475,21.3965
36.7475,22.5903
Z" /> 
<path style="fill:#D864FF; fill-opacity:0.4000; stroke:none;fill-rule:evenodd;"
d="M 36.9425,22.5903
36.9425,21.3965
37.2473,21.3965
37.2473,22.5903
Z" /> 
<path style="fill:#D864FF; fill-opacity:0.4000; stroke:none;fill-rule:evenodd;"
d="M 37.4426,22.5903
37.4426,21.3965
37.7474,21.3965
37.7474,22.5903
Z" /> 
<path style="fill:#D864FF; fill-opacity:0.4000; stroke:none;fill-rule:evenodd;"
d="M 37.9425,22.5903
37.9425,21.3965
38.2473,21.3965
38.2473,22.5903
Z" /> 
<path style="fill:#D864FF; fill-opacity:0.4000; stroke:none;fill-rule:evenodd;"
d="M 38.4426,22.5903
38.4426,21.3965
38.7474,21.3965
38.7474,22.5903
Z" /> 
<path style="fill:#D864FF; fill-opacity:0.4000; stroke:none;fill-rule:evenodd;"
d="M 38.9425,22.5903
38.9425,21.3965
39.2473,21.3965
39.2473,22.5903
Z" /> 
<path style="fill:#D864FF; fill-opacity:0.4000; stroke:none;fill-rule:evenodd;"
d="M 39.4426,22.5903
39.4426,21.3965
39.7474,21.3965
39.7474,22.5903
Z" /> 
<path style="fill:#D864FF; fill-opacity:0.4000; stroke:none;fill-rule:evenodd;"
d="M 39.9425,22.5903
39.9425,21.3965
40.2473,21.3965
40.2473,22.5903
Z" /> 
<path style="fill:#D864FF; fill-opacity:0.4000; stroke:none;fill-rule:evenodd;"
d="M 40.4426,22.5903
40.4426,21.3965
40.7474,21.3965
40.7474,22.5903
Z" /> 
<path style="fill:#D864FF; fill-opacity:0.4000; stroke:none;fill-rule:evenodd;"
d="M 40.9425,22.5903
40.9425,21.3965
41.2473,21.3965
41.2473,22.5903
Z" /> 
<path style="fill:#D864FF; fill-opacity:0.4000; stroke:none;fill-rule:evenodd;"
d="M 41.4426,22.5903
41.4426,21.3965
41.7474,21.3965
41.7474,22.5903
Z" /> 
<path style="fill:#D864FF; fill-opacity:0.4000; stroke:none;fill-rule:evenodd;"
d="M 41.9425,22.5903
41.9425,21.3965
42.2473,21.3965
42.2473,22.5903
Z" /> 
<path style="fill:#D864FF; fill-opacity:0.4000; stroke:none;fill-rule:evenodd;"
d="M 42.4426,22.5903
42.4426,21.3965
42.7474,21.3965
42.7474,22.5903
Z" /> 
<path style="fill:#D864FF; fill-opacity:0.4000; stroke:none;fill-rule:evenodd;"
d="M 42.9425,22.5903
42.9425,21.3965
43.2473,21.3965
43.2473,22.5903
Z" /> 
<path style="fill:#D864FF; fill-opacity:0.4000; stroke:none;fill-rule:evenodd;"
d="M 43.4426,22.5903
43.4426,21.3965
43.7474,21.3965
43.7474,22.5903
Z" /> 
<path style="fill:#D864FF; fill-opacity:0.4000; stroke:none;fill-rule:evenodd;"
d="M 44.9981,20.1458
44.9981,19.8410
46.1919,19.8410
46.1919,20.1458
Z" /> 
<path style="fill:#D864FF; fill-opacity:0.4000; stroke:none;fill-rule:evenodd;"
d="M 44.9981,19.6456
44.9981,19.3408
46.1919,19.3408
46.1919,19.6456
Z" /> 
<path style="fill:#D864FF; fill-opacity:0.4000; stroke:none;fill-rule:evenodd;"
d="M 44.9981,19.1458
44.9981,18.8410
46.1919,18.8410
46.1919,19.1458
Z" /> 
<path style="fill:#D864FF; fill-opacity:0.4000; stroke:none;fill-rule:evenodd;"
d="M 44.9981,18.6456
44.9981,18.3408
46.1919,18.3408
46.1919,18.6456
Z" /> 
<path style="fill:#D864FF; fill-opacity:0.4000; stroke:none;fill-rule:evenodd;"
d="M 44.9981,18.1458
44.9981,17.8410
46.1919,17.8410
46.1919,18.1458
Z" /> 
<path style="fill:#D864FF; fill-opacity:0.4000; stroke:none;fill-rule:evenodd;"
d="M 44.9981,17.6456
44.9981,17.3408
46.1919,17.3408
46.1919,17.6456
Z" /> 
<path style="fill:#D864FF; fill-opacity:0.4000; stroke:none;fill-rule:evenodd;"
d="M 44.9981,17.1458
44.9981,16.8410
46.1919,16.8410
46.1919,17.1458
Z" /> 
<path style="fill:#D864FF; fill-opacity:0.4000; stroke:none;fill-rule:evenodd;"
d="M 44.9981,16.6456
44.9981,16.3408
46.1919,16.3408
46.1919,16.6456
Z" /> 
<path style="fill:#D864FF; fill-opacity:0.4000; stroke:none;fill-rule:evenodd;"
d="M 44.9981,16.1458
44.9981,15.8410
46.1919,15.8410
46.1919,16.1458
Z" /> 
<path style="fill:#D864FF; fill-opacity:0.4000; stroke:none;fill-rule:evenodd;"
d="M 44.9981,15.6456
44.9981,15.3408
46.1919,15.3408
46.1919,15.6456
Z" /> 
<path style="fill:#D864FF; fill-opacity:0.4000; stroke:none;fill-rule:evenodd;"
d="M 44.9981,15.1458
44.9981,14.8410
46.1919,14.8410
46.1919,15.1458
Z" /> 
<path style="fill:#D864FF; fill-opacity:0.4000; stroke:none;fill-rule:evenodd;"
d="M 44.9981,14.6456
44.9981,14.3408
46.1919,14.3408
46.1919,14.6456
Z" /> 
<path style="fill:#D864FF; fill-opacity:0.4000; stroke:none;fill-rule:evenodd;"
d="M 44.9981,14.1458
44.9981,13.8410
46.1919,13.8410
46.1919,14.1458
Z" /> 
<path style="fill:#D864FF; fill-opacity:0.4000; stroke:none;fill-rule:evenodd;"
d="M 44.9981,13.6456
44.9981,13.3408
46.1919,13.3408
46.1919,13.6456
Z" /> 
<path style="fill:#D864FF; fill-opacity:0.4000; stroke:none;fill-rule:evenodd;"
d="M 44.9981,13.1458
44.9981,12.8410
46.1919,12.8410
46.1919,13.1458
Z" /> 
<path style="fill:#D864FF; fill-opacity:0.4000; stroke:none;fill-rule:evenodd;"
d="M 44.9981,12.6456
44.9981,12.3408
46.1919,12.3408
46.1919,12.6456
Z" /> 
<path style="fill:#D864FF; fill-opacity:0.4000; stroke:none;fill-rule:evenodd;"
d="M 43.4426,11.0901
43.4426,9.8963
43.7474,9.8963
43.7474,11.0901
Z" /> 
<path style="fill:#D864FF; fill-opacity:0.4000; stroke:none;fill-rule:evenodd;"
d="M 42.9425,11.0901
42.9425,9.8963
43.2473,9.8963
43.2473,11.0901
Z" /> 
<path style="fill:#D864FF; fill-opacity:0.4000; stroke:none;fill-rule:evenodd;"
d="M 42.4426,11.0901
42.4426,9.8963
42.7474,9.8963
42.7474,11.0901
Z" /> 
<path style="fill:#D864FF; fill-opacity:0.4000; stroke:none;fill-rule:evenodd;"
d="M 41.9425,11.0901
41.9425,9.8963
42.2473,9.8963
42.2473,11.0901
Z" /> 
<path style="fill:#D864FF; fill-opacity:0.4000; stroke:none;fill-rule:evenodd;"
d="M 41.4426,11.0901
41.4426,9.8963
41.7474,9.8963
41.7474,11.0901
Z" /> 
<path style="fill:#D864FF; fill-opacity:0.4000; stroke:none;fill-rule:evenodd;"
d="M 40.9425,11.0901
40.9425,9.8963
41.2473,9.8963
41.2473,11.0901
Z" /> 
<path style="fill:#D864FF; fill-opacity:0.4000; stroke:none;fill-rule:evenodd;"
d="M 40.4426,11.0901
40.4426,9.8963
40.7474,9.8963
40.7474,11.0901
Z" /> 
<path style="fill:#D864FF; fill-opacity:0.4000; stroke:none;fill-rule:evenodd;"
d="M 39.9425,11.0901
39.9425,9.8963
40.2473,9.8963
40.2473,11.0901
Z" /> 
<path style="fill:#D864FF; fill-opacity:0.4000; stroke:none;fill-rule:evenodd;"
d="M 39.4426,11.0901
39.4426,9.8963
39.7474,9.8963
39.7474,11.0901
Z" /> 
<path style="fill:#D864FF; fill-opacity:0.4000; stroke:none;fill-rule:evenodd;"
d="M 38.9425,11.0901
38.9425,9.8963
39.2473,9.8963
39.2473,11.0901
Z" /> 
<path style="fill:#D864FF; fill-opacity:0.4000; stroke:none;fill-rule:evenodd;"
d="M 38.4426,11.0901
38.4426,9.8963
38.7474,9.8963
38.7474,11.0901
Z" /> 
<path style="fill:#D864FF; fill-opacity:0.4000; stroke:none;fill-rule:evenodd;"
d="M 37.9425,11.0901
37.9425,9.8963
38.2473,9.8963
38.2473,11.0901
Z" /> 
<path style="fill:#D864FF; fill-opacity:0.4000; stroke:none;fill-rule:evenodd;"
d="M 37.4426,11.0901
37.4426,9.8963
37.7474,9.8963
37.7474,11.0901
Z" /> 
<path style="fill:#D864FF; fill-opacity:0.4000; stroke:none;fill-rule:evenodd;"
d="M 36.9425,11.0901
36.9425,9.8963
37.2473,9.8963
37.2473,11.0901
Z" /> 
<path style="fill:#D864FF; fill-opacity:0.4000; stroke:none;fill-rule:evenodd;"
d="M 36.4427,11.0901
36.4427,9.8963
36.7475,9.8963
36.7475,11.0901
Z" /> 
<path style="fill:#D864FF; fill-opacity:0.4000; stroke:none;fill-rule:evenodd;"
d="M 35.9425,11.0901
35.9425,9.8963
36.2473,9.8963
36.2473,11.0901
Z" /> 
<path style="fill:#D864FF; fill-opacity:0.4000; stroke:none;fill-rule:evenodd;"
d="M 37.1399,8.2042
37.1399,9.3980
36.2255,9.3980
36.2255,8.2042
Z" /> 
<path style="fill:#D864FF; fill-opacity:0.4000; stroke:none;fill-rule:evenodd;"
d="M 35.7429,8.2042
35.7429,9.3980
34.8285,9.3980
34.8285,8.2042
Z" /> 
</g>
<g style="fill:#D864FF; fill-opacity:0.4000; stroke:none;">
<circle cx="1.3386" cy="29.4259" r="0.9000" /> 
</g>
<g style="fill:#D864FF; fill-opacity:0.4000; stroke:none;">
<circle cx="53.7134" cy="21.0439" r="1.8000" /> 
</g>
<g style="fill:#D864FF; fill-opacity:0.4000; stroke:none;">
<circle cx="60.2666" cy="21.3741" r="0.8636" /> 
</g>
<g style="fill:#D864FF; fill-opacity:0.4000; stroke:none;">
<circle cx="60.2666" cy="18.8341" r="0.8636" /> 
</g>
<g style="fill:#D864FF; fill-opacity:0.4000; stroke:none;">
<circle cx="60.2666" cy="16.2941" r="0.8636" /> 
</g>
<g style="fill:none; 
stroke:#D864FF; stroke-width:0.6515; stroke-opacity:1; 
stroke-linecap:round; stroke-linejoin:round;">
<path d="M55.1358 13.0716
L55.1358 12.3716
" />
<path d="M56.4058 13.0716
L56.4058 12.3716
" />
<path d="M57.6758 13.0716
L57.6758 12.3716
" />
<path d="M58.9458 13.0716
L58.9458 12.3716
" />
<path d="M58.9458 7.8214
L58.9458 7.1214
" />
<path d="M57.6758 7.8214
L57.6758 7.1214
" />
<path d="M56.4058 7.8214
L56.4058 7.1214
" />
<path d="M55.1358 7.8214
L55.1358 7.1214
" />
<path style="fill:#D864FF; fill-opacity:0.4000; stroke:none;fill-rule:evenodd;"
d="M 18.0137,31.2166
19.8171,31.2166
19.8171,32.1818
18.0137,32.1818
Z" /> 
<path style="fill:#D864FF; fill-opacity:0.4000; stroke:none;fill-rule:evenodd;"
d="M 18.0137,35.3568
19.8171,35.3568
19.8171,36.3220
18.0137,36.3220
Z" /> 
<path style="fill:#D864FF; fill-opacity:0.4000; stroke:none;fill-rule:evenodd;"
d="M 15.0038,20.9042
14.4958,20.9042
14.4958,20.3962
15.0038,20.3962
Z" /> 
<path style="fill:#D864FF; fill-opacity:0.4000; stroke:none;fill-rule:evenodd;"
d="M 15.0038,20.0660
14.4958,20.0660
14.4958,19.5580
15.0038,19.5580
Z" /> 
<path style="fill:#D864FF; fill-opacity:0.4000; stroke:none;fill-rule:evenodd;"
d="M 11.0033,19.2405
11.0033,19.7485
10.4953,19.7485
10.4953,19.2405
Z" /> 
<path style="fill:#D864FF; fill-opacity:0.4000; stroke:none;fill-rule:evenodd;"
d="M 10.1651,19.2405
10.1651,19.7485
9.6571,19.7485
9.6571,19.2405
Z" /> 
<path style="fill:#D864FF; fill-opacity:0.4000; stroke:none;fill-rule:evenodd;"
d="M 12.5781,21.4884
11.3843,21.4884
11.3843,20.8280
12.5781,20.8280
Z" /> 
<path style="fill:#D864FF; fill-opacity:0.4000; stroke:none;fill-rule:evenodd;"
d="M 12.5781,19.8374
11.3843,19.8374
11.3843,19.1770
12.5781,19.1770
Z" /> 
<path style="fill:#D864FF; fill-opacity:0.4000; stroke:none;fill-rule:evenodd;"
d="M 2.1133,27.4066
0.7163,27.4066
0.7163,26.4922
2.1133,26.4922
Z" /> 
<path style="fill:#D864FF; fill-opacity:0.4000; stroke:none;fill-rule:evenodd;"
d="M 2.1133,25.6032
0.7163,25.6032
0.7163,24.6888
2.1133,24.6888
Z" /> 
<path style="fill:#D864FF; fill-opacity:0.4000; stroke:none;fill-rule:evenodd;"
d="M 35.6921,27.6352
35.6921,26.6954
36.7589,26.6954
36.7589,27.6352
Z" /> 
<path style="fill:#D864FF; fill-opacity:0.4000; stroke:none;fill-rule:evenodd;"
d="M 37.4447,27.6352
37.4447,26.6954
38.5115,26.6954
38.5115,27.6352
Z" /> 
<path style="fill:#D864FF; fill-opacity:0.4000; stroke:none;fill-rule:evenodd;"
d="M 8.4379,35.2425
3.0277,35.2425
3.0277,33.5915
8.4379,33.5915
Z" /> 
<path style="fill:#D864FF; fill-opacity:0.4000; stroke:none;fill-rule:evenodd;"
d="M 8.4379,30.0863
3.0277,30.0863
3.0277,28.4353
8.4379,28.4353
Z" /> 
</g>
<g style="fill:#D864FF; fill-opacity:0.4000; stroke:none;">
<circle cx="20.0838" cy="26.7589" r="0.5588" /> 
</g>
<g style="fill:#D864FF; fill-opacity:0.4000; stroke:none;">
<circle cx="10.8128" cy="22.5933" r="0.5588" /> 
</g>
<g style="fill:#D864FF; fill-opacity:0.4000; stroke:none;">
<circle cx="11.9812" cy="34.2265" r="0.5588" /> 
</g>
<g style="fill:#D864FF; fill-opacity:0.4000; stroke:none;">
<circle cx="51.8338" cy="12.4968" r="0.5588" /> 
</g>
<g style="fill:#D864FF; fill-opacity:0.4000; stroke:none;">
<circle cx="43.8836" cy="32.6009" r="0.5588" /> 
</g>
<g style="fill:#D864FF; fill-opacity:0.4000; stroke:none;">
<circle cx="36.6827" cy="7.4295" r="0.5588" /> 
</g>
<g style="fill:#D864FF; fill-opacity:0.4000; stroke:none;">
<circle cx="30.9550" cy="15.1765" r="0.5588" /> 
</g>
<g style="fill:#D864FF; fill-opacity:0.4000; stroke:none;">
<circle cx="18.9154" cy="30.5943" r="0.5588" /> 
</g>
<g style="fill:#D864FF; fill-opacity:0.4000; stroke:none;">
<circle cx="44.1503" cy="25.7429" r="0.5588" /> 
</g>
<g style="fill:#D864FF; fill-opacity:0.4000; stroke:none;">
<circle cx="6.1646" cy="25.4711" r="0.5588" /> 
</g>
<g style="fill:#D864FF; fill-opacity:0.4000; stroke:none;">
<circle cx="49.1414" cy="12.4968" r="0.5588" /> 
</g>
<g style="fill:#D864FF; fill-opacity:0.4000; stroke:none;">
<circle cx="52.0497" cy="8.5725" r="0.5588" /> 
</g>
<g style="fill:#D864FF; fill-opacity:0.4000; stroke:none;">
<circle cx="62.7812" cy="16.3195" r="0.5588" /> 
</g>
<g style="fill:#D864FF; fill-opacity:0.4000; stroke:none;">
<circle cx="36.2001" cy="25.5651" r="0.5588" /> 
</g>
<g style="fill:#D864FF; fill-opacity:0.4000; stroke:none;">
<circle cx="5.7328" cy="35.8775" r="0.5588" /> 
</g>
<g style="fill:#D864FF; fill-opacity:0.4000; stroke:none;">
<circle cx="10.5334" cy="28.3083" r="0.5588" /> 
</g>
<g style="fill:#D864FF; fill-opacity:0.4000; stroke:none;">
<circle cx="62.9844" cy="31.3309" r="0.5588" /> 
</g>
<g style="fill:#D864FF; fill-opacity:0.4000; stroke:none;">
<circle cx="15.0546" cy="24.3205" r="0.5588" /> 
</g>
<g style="fill:#D864FF; fill-opacity:0.4000; stroke:none;">
<circle cx="24.0208" cy="24.3205" r="0.5588" /> 
</g>
<g style="fill:#D864FF; fill-opacity:0.4000; stroke:none;">
<circle cx="31.8186" cy="20.3581" r="0.5588" /> 
</g>
<g style="fill:#D864FF; fill-opacity:0.4000; stroke:none;">
<circle cx="31.6916" cy="24.3205" r="0.5588" /> 
</g>
<g style="fill:#D864FF; fill-opacity:0.4000; stroke:none;">
<circle cx="55.1358" cy="9.1567" r="0.5588" /> 
</g>
<g style="fill:#D864FF; fill-opacity:0.4000; stroke:none;">
<circle cx="53.8150" cy="14.2875" r="0.5588" /> 
</g>
<g style="fill:#D864FF; fill-opacity:0.4000; stroke:none;">
<circle cx="24.5796" cy="21.3741" r="0.5588" /> 
</g>
<g style="fill:#D864FF; fill-opacity:0.4000; stroke:none;">
<circle cx="24.5796" cy="23.3045" r="0.5588" /> 
</g>
<g style="fill:#D864FF; fill-opacity:0.4000; stroke:none;">
<circle cx="45.2806" cy="9.1821" r="0.5588" /> 
</g>
<g style="fill:#D864FF; fill-opacity:0.4000; stroke:none;">
<circle cx="40.5562" cy="8.9281" r="0.5588" /> 
</g>
<g style="fill:none; 
stroke:#D0D2CD; stroke-width:0.1270; stroke-opacity:1; 
stroke-linecap:round; stroke-linejoin:round;">
<path d="M0.0686 0.0635
L0.0686 37.3761
" />
<path d="M66.6166 37.3761
L66.6166 0.0635
" />
<path d="M0.0686 37.3761
L66.6166 37.3761
" />
<path d="M66.6166 0.0635
L0.0686 0.0635
" />
</g>
<g style="fill:#FFFFFF; fill-opacity:1.0000; stroke:none;">
<circle cx="20.0838" cy="26.7589" r="0.1651" /> 
</g>
<g style="fill:#FFFFFF; fill-opacity:1.0000; stroke:none;">
<circle cx="10.8128" cy="22.5933" r="0.1651" /> 
</g>
<g style="fill:#FFFFFF; fill-opacity:1.0000; stroke:none;">
<circle cx="11.9812" cy="34.2265" r="0.1651" /> 
</g>
<g style="fill:#FFFFFF; fill-opacity:1.0000; stroke:none;">
<circle cx="51.8338" cy="12.4968" r="0.1651" /> 
</g>
<g style="fill:#FFFFFF; fill-opacity:1.0000; stroke:none;">
<circle cx="43.8836" cy="32.6009" r="0.1651" /> 
</g>
<g style="fill:#FFFFFF; fill-opacity:1.0000; stroke:none;">
<circle cx="36.6827" cy="7.4295" r="0.1651" /> 
</g>
<g style="fill:#FFFFFF; fill-opacity:1.0000; stroke:none;">
<circle cx="30.9550" cy="15.1765" r="0.1651" /> 
</g>
<g style="fill:#FFFFFF; fill-opacity:1.0000; stroke:none;">
<circle cx="18.9154" cy="30.5943" r="0.1651" /> 
</g>
<g style="fill:#FFFFFF; fill-opacity:1.0000; stroke:none;">
<circle cx="44.1503" cy="25.7429" r="0.1651" /> 
</g>
<g style="fill:#FFFFFF; fill-opacity:1.0000; stroke:none;">
<circle cx="6.1646" cy="25.4711" r="0.1651" /> 
</g>
<g style="fill:#FFFFFF; fill-opacity:1.0000; stroke:none;">
<circle cx="49.1414" cy="12.4968" r="0.1651" /> 
</g>
<g style="fill:#FFFFFF; fill-opacity:1.0000; stroke:none;">
<circle cx="52.0497" cy="8.5725" r="0.1651" /> 
</g>
<g style="fill:#FFFFFF; fill-opacity:1.0000; stroke:none;">
<circle cx="62.7812" cy="16.3195" r="0.1651" /> 
</g>
<g style="fill:#FFFFFF; fill-opacity:1.0000; stroke:none;">
<circle cx="36.2001" cy="25.5651" r="0.1651" /> 
</g>
<g style="fill:#FFFFFF; fill-opacity:1.0000; stroke:none;">
<circle cx="5.7328" cy="35.8775" r="0.1651" /> 
</g>
<g style="fill:#FFFFFF; fill-opacity:1.0000; stroke:none;">
<circle cx="10.5334" cy="28.3083" r="0.1651" /> 
</g>
<g style="fill:#FFFFFF; fill-opacity:1.0000; stroke:none;">
<circle cx="62.9844" cy="31.3309" r="0.1651" /> 
</g>
<g style="fill:#FFFFFF; fill-opacity:1.0000; stroke:none;">
<circle cx="15.0546" cy="24.3205" r="0.1651" /> 
</g>
<g style="fill:#FFFFFF; fill-opacity:1.0000; stroke:none;">
<circle cx="24.0208" cy="24.3205" r="0.1651" /> 
</g>
<g style="fill:#FFFFFF; fill-opacity:1.0000; stroke:none;">
<circle cx="31.8186" cy="20.3581" r="0.1651" /> 
</g>
<g style="fill:#FFFFFF; fill-opacity:1.0000; stroke:none;">
<circle cx="31.6916" cy="24.3205" r="0.1651" /> 
</g>
<g style="fill:#FFFFFF; fill-opacity:1.0000; stroke:none;">
<circle cx="55.1358" cy="9.1567" r="0.1651" /> 
</g>
<g style="fill:#FFFFFF; fill-opacity:1.0000; stroke:none;">
<circle cx="53.8150" cy="14.2875" r="0.1651" /> 
</g>
<g style="fill:#FFFFFF; fill-opacity:1.0000; stroke:none;">
<circle cx="24.5796" cy="21.3741" r="0.1651" /> 
</g>
<g style="fill:#FFFFFF; fill-opacity:1.0000; stroke:none;">
<circle cx="24.5796" cy="23.3045" r="0.1651" /> 
</g>
<g style="fill:#FFFFFF; fill-opacity:1.0000; stroke:none;">
<circle cx="45.2806" cy="9.1821" r="0.1651" /> 
</g>
<g style="fill:#FFFFFF; fill-opacity:1.0000; stroke:none;">
<circle cx="40.5562" cy="8.9281" r="0.1651" /> 
</g>
<g style="fill:#FFFFFF; fill-opacity:1.0000; stroke:none;">
<circle cx="1.3386" cy="34.2011" r="0.3000" /> 
</g>
<g style="fill:#FFFFFF; fill-opacity:1.0000; stroke:none;">
<circle cx="53.2308" cy="2.9337" r="0.6223" /> 
</g>
<g style="fill:#FFFFFF; fill-opacity:1.0000; stroke:none;">
<circle cx="55.7306" cy="2.9337" r="0.6223" /> 
</g>
<g style="fill:#FFFFFF; fill-opacity:1.0000; stroke:none;">
<circle cx="58.2308" cy="2.9337" r="0.6223" /> 
</g>
<g style="fill:#FFFFFF; fill-opacity:1.0000; stroke:none;">
<circle cx="60.7309" cy="2.9337" r="0.6223" /> 
</g>
<g style="fill:#FFFFFF; fill-opacity:1.0000; stroke:none;">
<circle cx="16.9596" cy="19.8755" r="0.5080" /> 
</g>
<g style="fill:#FFFFFF; fill-opacity:1.0000; stroke:none;">
<circle cx="19.4996" cy="19.8755" r="0.5080" /> 
</g>
<g style="fill:#FFFFFF; fill-opacity:1.0000; stroke:none;">
<circle cx="22.0396" cy="19.8755" r="0.5080" /> 
</g>
<g style="fill:#FFFFFF; fill-opacity:1.0000; stroke:none;">
<circle cx="24.5796" cy="19.8755" r="0.5080" /> 
</g>
<g style="fill:#FFFFFF; fill-opacity:1.0000; stroke:none;">
<circle cx="27.1196" cy="19.8755" r="0.5080" /> 
</g>
<g style="fill:#FFFFFF; fill-opacity:1.0000; stroke:none;">
<circle cx="4.5390" cy="12.9921" r="0.7000" /> 
</g>
<g style="fill:#FFFFFF; fill-opacity:1.0000; stroke:none;">
<circle cx="53.8404" cy="17.1577" r="0.7000" /> 
</g>
<g style="fill:#FFFFFF; fill-opacity:1.0000; stroke:none;">
<circle cx="10.6858" cy="12.9921" r="0.7000" /> 
</g>
<g style="fill:#FFFFFF; fill-opacity:1.0000; stroke:none;">
<circle cx="40.9880" cy="35.0139" r="0.5080" /> 
</g>
<g style="fill:#FFFFFF; fill-opacity:1.0000; stroke:none;">
<circle cx="43.5280" cy="35.0139" r="0.5080" /> 
</g>
<g style="fill:#FFFFFF; fill-opacity:1.0000; stroke:none;">
<circle cx="46.0680" cy="35.0139" r="0.5080" /> 
</g>
<g style="fill:#FFFFFF; fill-opacity:1.0000; stroke:none;">
<circle cx="48.6080" cy="35.0139" r="0.5080" /> 
</g>
<g style="fill:#FFFFFF; fill-opacity:1.0000; stroke:none;">
<circle cx="51.1480" cy="35.0139" r="0.5080" /> 
</g>
<g style="fill:#FFFFFF; fill-opacity:1.0000; stroke:none;">
<circle cx="60.3174" cy="27.3177" r="0.5080" /> 
</g>
<g style="fill:#FFFFFF; fill-opacity:1.0000; stroke:none;">
<circle cx="60.3174" cy="29.8577" r="0.5080" /> 
</g>
<g style="fill:#FFFFFF; fill-opacity:1.0000; stroke:none;">
<circle cx="60.3174" cy="32.3977" r="0.5080" /> 
</g>
<g style="fill:#FFFFFF; fill-opacity:1.0000; stroke:none;">
<circle cx="1.3386" cy="29.4259" r="0.3000" /> 
</g>
<g style="fill:#FFFFFF; fill-opacity:1.0000; stroke:none;">
<circle cx="53.7134" cy="21.0439" r="0.7000" /> 
</g>
<g style="fill:#FFFFFF; fill-opacity:1.0000; stroke:none;">
<circle cx="60.2666" cy="21.3741" r="0.5080" /> 
</g>
<g style="fill:#FFFFFF; fill-opacity:1.0000; stroke:none;">
<circle cx="60.2666" cy="18.8341" r="0.5080" /> 
</g>
<g style="fill:#FFFFFF; fill-opacity:1.0000; stroke:none;">
<circle cx="60.2666" cy="16.2941" r="0.5080" /> 
</g> 
</svg>
